<mxfile host="drawio-plugin" modified="2024-07-29T16:24:31.334Z" agent="Mozilla/5.0 (Macintosh; Intel Mac OS X 10_15_7) AppleWebKit/537.36 (KHTML, like Gecko) Chrome/122.0.0.0 Safari/537.36" version="22.1.22" etag="BYrLXbKKYvjMnlHW8NlT" type="embed">
  <diagram id="uZWG-YIMEnT9SbSn75TY" name="Page-1">
    <mxGraphModel dx="636" dy="353" grid="1" gridSize="10" guides="1" tooltips="1" connect="1" arrows="1" fold="1" page="1" pageScale="1" pageWidth="850" pageHeight="1100" math="0" shadow="0">
      <root>
        <mxCell id="0" />
        <mxCell id="1" parent="0" />
        <mxCell id="2" value="" style="shape=image;verticalLabelPosition=bottom;labelBackgroundColor=default;verticalAlign=top;aspect=fixed;imageAspect=0;image=data:image/png,iVBORw0KGgoAAAANSUhEUgAAA/wAAAMACAYAAACZ8WyZAAAMQGlDQ1BJQ0MgUHJvZmlsZQAASImVVwdYU8kWnluSkJDQAghICb0JIlICSAmhBZBeBBshCRBKiIGgYkcWFVwLKhawoasiih0QO2JnUex9QUVBWRcLduVNCui6r3xvvm/u/PefM/85c2ZuGQDUT3LF4mxUA4AcUb4kJtifMS4pmUHqBgSgCzQBFWBcXp6YFRUVDmAZbP9e3t0EiKy95iDT+mf/fy2afEEeDwAkCuJUfh4vB+KDAOBVPLEkHwCijDefmi+WYViBtgQGCPFCGU5X4CoZTlXgvXKbuBg2xC0AqFC5XEk6AGpXIM8o4KVDDbU+iJ1EfKEIAHUGxD45Obl8iFMgtoE2Yohl+szUH3TS/6aZOqTJ5aYPYcVc5EUlQJgnzuZO/z/T8b9LTrZ00IcVrNQMSUiMbM4wb7ezcsNkmApxryg1IhJiLYg/CPlye4hRSoY0JF5hjxry8tgwZ3ClAerE5waEQWwIcZAoOyJcyaemCYM4EMMdgk4T5nPiINaDeKEgLzBWabNJkhuj9IXWp0nYLCV/niuR+5X5eijNimcp9V9nCDhKfUytMCMuEWIKxBYFwoQIiNUgdszLig1T2owpzGBHDNpIpDGy+C0gjhGIgv0V+lhBmiQoRmlfmpM3OF9sU4aQE6HE+/Mz4kIU+cFaeFx5/HAu2BWBiBU/qCPIGxc+OBe+ICBQMXesWyCKj1XqfBDn+8coxuIUcXaU0h43E2QHy3gziF3yCmKVY/GEfLghFfp4mjg/Kk4RJ16YyQ2NUsSDLwPhgA0CAANIYU0FuSATCNt6G3rhnaInCHCBBKQDAXBQMoMjEuU9IniNBYXgT4gEIG9onL+8VwAKIP91iFVcHUCavLdAPiILPIU4B4SBbHgvlY8SDXlLAE8gI/yHdy6sPBhvNqyy/n/PD7LfGRZkwpWMdNAjQ33QkhhIDCCGEIOItrgB7oN74eHw6gerM87EPQbn8d2e8JTQTnhEuEHoINyZLCyS/BTlWNAB9YOUuUj9MRe4FdR0xf1xb6gOlXFd3AA44C7QDwv3hZ5dIctWxi3LCuMn7b/N4IfVUNqRncgoeRjZj2zz80g1OzXXIRVZrn/MjyLW1KF8s4d6fvbP/iH7fNiG/WyJLcQOYOewU9gF7CjWABjYCawRa8WOyfDQ7noi312D3mLk8WRBHeE//A2urCyTeU61Tj1OXxR9+YJpsnc0YOeKp0uE6Rn5DBb8IggYHBHPcQTD2cnZBQDZ90Xx+noTLf9uILqt37n5fwDgfWJgYODIdy70BAD73OHjf/g7Z8OEnw5VAM4f5kklBQoOl10I8C2hDp80fWAMzIENnI8zcANewA8EglAQCeJAEpgEo8+A+1wCpoKZYB4oAWVgGVgF1oGNYAvYAXaD/aABHAWnwFlwCVwBN8A9uHu6wAvQB96BzwiCkBAaQkf0ERPEErFHnBEm4oMEIuFIDJKEpCDpiAiRIjOR+UgZUo6sQzYjNcg+5DByCrmAtCN3kE6kB3mNfEIxlIpqo0aoFToSZaIsNAyNQyei6egUtBAtRpega9BqdBdaj55CL6E30A70BdqPAUwV08VMMQeMibGxSCwZS8Mk2GysFKvAqrE6rAmu8zWsA+vFPuJEnI4zcAe4g0PweJyHT8Fn44vxdfgOvB5vwa/hnXgf/o1AIxgS7AmeBA5hHCGdMJVQQqggbCMcIpyBz1IX4R2RSNQlWhPd4bOYRMwkziAuJq4n7iGeJLYTHxP7SSSSPsme5E2KJHFJ+aQS0lrSLtIJ0lVSF+mDiqqKiYqzSpBKsopIpUilQmWnynGVqyrPVD6TNciWZE9yJJlPnk5eSt5KbiJfJneRP1M0KdYUb0ocJZMyj7KGUkc5Q7lPeaOqqmqm6qEarSpUnau6RnWv6nnVTtWPVC2qHZVNnUCVUpdQt1NPUu9Q39BoNCuaHy2Zlk9bQquhnaY9pH1Qo6s5qnHU+Gpz1CrV6tWuqr1UJ6tbqrPUJ6kXqleoH1C/rN6rQdaw0mBrcDVma1RqHNa4pdGvSdccpRmpmaO5WHOn5gXNbi2SlpVWoBZfq1hri9Zprcd0jG5OZ9N59Pn0rfQz9C5tora1Nkc7U7tMe7d2m3afjpaOi06CzjSdSp1jOh26mK6VLkc3W3ep7n7dm7qfhhkNYw0TDFs0rG7Y1WHv9Ybr+ekJ9Er19ujd0Pukz9AP1M/SX67foP/AADewM4g2mGqwweCMQe9w7eFew3nDS4fvH37XEDW0M4wxnGG4xbDVsN/I2CjYSGy01ui0Ua+xrrGfcabxSuPjxj0mdBMfE6HJSpMTJs8ZOgwWI5uxhtHC6DM1NA0xlZpuNm0z/WxmbRZvVmS2x+yBOcWcaZ5mvtK82bzPwsRirMVMi1qLu5ZkS6ZlhuVqy3OW762srRKtFlg1WHVb61lzrAuta63v29BsfG2m2FTbXLcl2jJts2zX216xQ+1c7TLsKu0u26P2bvZC+/X27SMIIzxGiEZUj7jlQHVgORQ41Dp0Ouo6hjsWOTY4vhxpMTJ55PKR50Z+c3J1ynba6nRvlNao0FFFo5pGvXa2c+Y5VzpfH00bHTR6zujG0a9c7F0ELhtcbrvSXce6LnBtdv3q5u4mcatz63G3cE9xr3K/xdRmRjEXM897EDz8PeZ4HPX46Onmme+53/MvLwevLK+dXt1jrMcIxmwd89jbzJvrvdm7w4fhk+KzyafD19SX61vt+8jP3I/vt83vGcuWlcnaxXrp7+Qv8T/k/57tyZ7FPhmABQQHlAa0BWoFxgeuC3wYZBaUHlQb1BfsGjwj+GQIISQsZHnILY4Rh8ep4fSFuofOCm0Jo4bFhq0LexRuFy4JbxqLjg0du2Ls/QjLCFFEQySI5ESuiHwQZR01JepINDE6Kroy+mnMqJiZMedi6bGTY3fGvovzj1sady/eJl4a35ygnjAhoSbhfWJAYnlix7iR42aNu5RkkCRMakwmJSckb0vuHx84ftX4rgmuE0om3JxoPXHaxAuTDCZlTzo2WX0yd/KBFEJKYsrOlC/cSG41tz+Vk1qV2sdj81bzXvD9+Cv5PQJvQbngWZp3Wnlad7p3+or0ngzfjIqMXiFbuE74KjMkc2Pm+6zIrO1ZA9mJ2XtyVHJScg6LtERZopZc49xpue1ie3GJuGOK55RVU/okYZJteUjexLzGfG34I98qtZH+Iu0s8CmoLPgwNWHqgWma00TTWqfbTV80/VlhUOFvM/AZvBnNM01nzpvZOYs1a/NsZHbq7OY55nOK53TNDZ67Yx5lXta834ucisqL3s5PnN9UbFQ8t/jxL8G/1JaolUhKbi3wWrBxIb5QuLBt0ehFaxd9K+WXXixzKqso+7KYt/jir6N+XfPrwJK0JW1L3ZZuWEZcJlp2c7nv8h3lmuWF5Y9XjF1Rv5KxsnTl21WTV12ocKnYuJqyWrq6Y034msa1FmuXrf2yLmPdjUr/yj1VhlWLqt6v56+/usFvQ91Go41lGz9tEm66vTl4c321VXXFFuKWgi1PtyZsPfcb87eabQbbyrZ93S7a3rEjZkdLjXtNzU7DnUtr0Vppbc+uCbuu7A7Y3VjnULd5j+6esr1gr3Tv830p+27uD9vffIB5oO6g5cGqQ/RDpfVI/fT6voaMho7GpMb2w6GHm5u8mg4dcTyy/ajp0cpjOseWHqccLz4+cKLwRP9J8cneU+mnHjdPbr53etzp6y3RLW1nws6cPxt09vQ51rkT573PH73geeHwRebFhktul+pbXVsP/e76+6E2t7b6y+6XG694XGlqH9N+/Krv1VPXAq6dvc65fulGxI32m/E3b9+acKvjNv92953sO6/uFtz9fG/ufcL90gcaDyoeGj6s/sP2jz0dbh3HOgM6Wx/FPrr3mPf4xZO8J1+6ip/SnlY8M3lW0+3cfbQnqOfK8/HPu16IX3zuLflT88+qlzYvD/7l91dr37i+rleSVwOvF7/Rf7P9rcvb5v6o/ofvct59fl/6Qf/Djo/Mj+c+JX569nnqF9KXNV9tvzZ9C/t2fyBnYEDMlXDlvwIYrGhaGgCvtwNASwKADs9nlPGK85+8IIozqxyB/4QVZ0R5cQOgDv6/R/fCv5tbAOzdCo9fUF99AgBRNADiPAA6evRQHTyryc+VskKE54BNkV9Tc1LBvymKM+cPcf/cApmqC/i5/RcmxnxGVi8a/wAAAJZlWElmTU0AKgAAAAgABQESAAMAAAABAAEAAAEaAAUAAAABAAAASgEbAAUAAAABAAAAUgEoAAMAAAABAAIAAIdpAAQAAAABAAAAWgAAAAAAAACQAAAAAQAAAJAAAAABAAOShgAHAAAAEgAAAISgAgAEAAAAAQAAA/ygAwAEAAAAAQAAAwAAAAAAQVNDSUkAAABTY3JlZW5zaG90M6/TqAAAAAlwSFlzAAAWJQAAFiUBSVIk8AAAAtxpVFh0WE1MOmNvbS5hZG9iZS54bXAAAAAAADx4OnhtcG1ldGEgeG1sbnM6eD0iYWRvYmU6bnM6bWV0YS8iIHg6eG1wdGs9IlhNUCBDb3JlIDYuMC4wIj4KICAgPHJkZjpSREYgeG1sbnM6cmRmPSJodHRwOi8vd3d3LnczLm9yZy8xOTk5LzAyLzIyLXJkZi1zeW50YXgtbnMjIj4KICAgICAgPHJkZjpEZXNjcmlwdGlvbiByZGY6YWJvdXQ9IiIKICAgICAgICAgICAgeG1sbnM6ZXhpZj0iaHR0cDovL25zLmFkb2JlLmNvbS9leGlmLzEuMC8iCiAgICAgICAgICAgIHhtbG5zOnRpZmY9Imh0dHA6Ly9ucy5hZG9iZS5jb20vdGlmZi8xLjAvIj4KICAgICAgICAgPGV4aWY6VXNlckNvbW1lbnQ+U2NyZWVuc2hvdDwvZXhpZjpVc2VyQ29tbWVudD4KICAgICAgICAgPGV4aWY6UGl4ZWxYRGltZW5zaW9uPjEwMjA8L2V4aWY6UGl4ZWxYRGltZW5zaW9uPgogICAgICAgICA8ZXhpZjpQaXhlbFlEaW1lbnNpb24+NzY4PC9leGlmOlBpeGVsWURpbWVuc2lvbj4KICAgICAgICAgPHRpZmY6UmVzb2x1dGlvblVuaXQ+MjwvdGlmZjpSZXNvbHV0aW9uVW5pdD4KICAgICAgICAgPHRpZmY6WFJlc29sdXRpb24+MTQ0LzE8L3RpZmY6WFJlc29sdXRpb24+CiAgICAgICAgIDx0aWZmOllSZXNvbHV0aW9uPjE0NC8xPC90aWZmOllSZXNvbHV0aW9uPgogICAgICAgICA8dGlmZjpPcmllbnRhdGlvbj4xPC90aWZmOk9yaWVudGF0aW9uPgogICAgICA8L3JkZjpEZXNjcmlwdGlvbj4KICAgPC9yZGY6UkRGPgo8L3g6eG1wbWV0YT4KgfY2TQAAQABJREFUeAHsnQeYPTXVh4O9ohRBQORPlSZILyIizYoKKEoTQaqgFEGKFKUoKEiX3kERBEGKSBVEQekiHSnSO4Ko2ObLGzjznZmde+fe3Zndvbu/PM+901LfzCQ5yUkyVRZNkBEBERABERABERABERABERABERABEZhQBF4zoVKjxIiACIiACIiACIiACIiACIiACIiACCQCEvj1IoiACIiACIiACIiACIiACIiACIjABCQggX8CZqqSJAIiIAIiIAIiIAIiIAIiIAIiIAIS+PUOiIAIiIAIiIAIiIAIiIAIiIAIiMAEJCCBfwJmqpIkAiIgAiIgAiIgAiIgAiIgAiIgAhL49Q6IgAiIgAiIgAiIgAiIgAiIgAiIwAQk8Lom0/TAAw+EZ599NvdyqqmmCossskh+3cvJvffeG1544YVkdZpppgmzzz77EGe92BniSDdEYJwSuOOOO8I//vGPFLvXvOY14QMf+MA4jamiNRoE2Cn117/+df5OUAbON998Iwrav2OdytURBSDHIjAJCfjvSmX3JHwBlGQREAERGBACU8XGZdZUXOeee+6AMO7NTTfd1JcA87GPfSz86le/Sl68+c1vDn//+9+9d+m8FztDHOmGCIxTAnSK3XzzzSl2b33rW8Pf/va3cRpTRWs0CDz33HNh2mmnzYPabrvtwgEHHJBfD+fEv2MzzTRTePTRR4fjjdyIgAg4Av67UtntwOhUBERABERgXBFobIT/N7/5zRBhn5SeeuqpfQn8ns7LL7/sLyvPe7FT6VA3JyyBf/7zn+H0008P//73v1Ma559//vDBD35wwqZXCROBiU6gjW+6DT8nej4ofSIw3giM5Xc8lmGPt3xQfERABMY3gcYE/hNPPLEypT/+8Y/DfvvtF1772tdWPtdNEWiaAFNLNtxww9zbzTffXAJ/TkMnIjB4BNr4ptvwc/DIKsYiMNgExvI7HsuwBzvXFHsREIHRJtDIon0vvfRSOPPMMyvj/thjj4XLLrus8pluioAIhDDDDDOEt73tbflPTESgTQJvectb2vRefovApCGgsnvSZLUSKgIiIAIDTaCREf6zzjorvPjiix1BnHLKKWHVVVft+FwPRGAyE7A1KyYzA6W9XQLXXXdd+N///pcCed3rGin2242wfBeBASCgsnsAMklRFAEREAERCI2M8JfV+XfdddcC2p///OcBLQAZERABERCB0SeAkP+GN7wh/VhNXEYEREAEREAEREAERGByEBjxUA9zmNhCysyss84a9thjj3DssceGxx9/PN1G2EfoX2+99czaqB9ZXOWPf/xjYNcAtkB7z3veExZaaKEw11xzhfHcAGYThYceeigtiMgOCCxExyJ0CyywQFIFbxsk4d9zzz1pFXnC/tSnPhXe8Y53dAyWXRVuueWWtAr4m970pjBlypQUX7Zo7MeMZbrbeFf65dgPq/vvvz9cf/31Ad5LLLFEePe7392P89wuI8BsM/XII48EvmPyjp0yRsM8+OCDgXRQnvznP/8JM888c5hlllnStpxTTz31iKPQFKNeI9LGO2Rhk5bf/e534fnnn09l2MILLxyaYGT+l49NfdP4yw4EN9xwQ7jzzjsDC67ONttsYY455kjl2Rvf+MZy0OP2us38rUt0299KXfj//e9/U31w3333pW14qYsWXXTRMJKpIsMpH5t8L+vS3OTzsXx3eknHWNS9YxGmsRjr72lQ32Pjp6MIiMCAEIgF7YjMd77zHbb1y38777xz8u9rX/tafo/nUaW/p3A++tGP5u6iIF7pphc75vCaa67J4tY5WVw0MPfXxzc2UrJvfvObWewEMCeF4/LLL5+9/e1vz39xN4LCc38RG965PdzExQr948L5aaedVrD7i1/8ovCci4suuiiLnRKV8SYN73rXu7JvfetbWRSQhrjt98bqq6+ex+czn/lMch6Fv2yZZZYphB8FyyFexwZMtsMOO2Sx4VfJOQqOWewEyl544YUhbqtuDDfdlldxe6RCnF//+tfnafvc5z5XFWS6N9J3BU+Gw3HttdfOYsdT+vEOlc2yyy6bx3+11VZLj2PnVQorziEtpJX3InZmZV/5ylcy8qUXE9VSs1VWWSWLHTkFv+C2wQYbZLwH//rXv7Llllsu/8U1O3rxuqud2NDJjjnmmGzBBRcshOu/zygEZvCJnYpd/WqbUdfA3cMm3qFnn322wCNuy5e+8R133DGLnTmFZ7CKnWnp27vqqqtcTIqnm2yySf6OwarONP1N//KXv8zmmWeeIXG3vI6dO9lhhx2WxU6AQtRG+k0XPHv1YiR+NpG/VXGqu9fkt1IXFs/j1qDZ+9///vyd+e53v5ucHX744RnlueWbHalfY2djduONN3b1fjjlo/dwJO9l7FjKy1Hq5zjV0Hvd8dzHGXfnnXdebreu7M4txpOm3h3fzohbIfsgKs8PPPDAQrq7tWGGW/dWBtzjzeGGOZLveKTf00jCBstI3uMescqaCIiACBQIhMJVnxdxRDCjErVKn+Ptt9+efPntb39buE+DIO79XBtCL8J8L3aI2w9+8IMMocXHr9M5jdGqBvNmm21WcL/XXntVpiGOihbsEc7KK69caZebCFI+LrfddlvB7vrrr1947u2Wz1dYYYUsLo5YcN/vhWeKAHbttddmZcGZcMsC/9133506VMpxqrp+73vfm11++eVdozaSdC+22GK1zD75yU8OCb+pdwWPh8PxAx/4QB5vmJeNf77SSitlRx55ZE/vddTGGCJAeb9JN+8zHWtV+WX34oKC2SWXXFKwc8ghh3iv+j6nLOgm6FvY/vjDH/6wYzhtMeoYYOlBk+9QWeCn8+ZjH/tYgb/nYueUsbvttlsWNXFKscsyz2emmWYa8tzfaPKbpjOSTkk6JSye3Y5LLrlk4Z0d7jft01M+H46fTeZvOT51101/K3Xh8bz8Dm6zzTbZFltsUZuHdNDRcdPJDKd8NL9G+l5GDcNC/K3z1PyvOj799NOFspZvzNe1/ruqKrvxs+l3J2pf5emo+5YJn4EH/8116jwdSd1LOMMxIwlzON8xcWziexpu2IQ/0vcYP2REQAREoF8CIxL4qTh8RbL44ovn4VPJIeD55/vvv3/+vNOJbxCMZIS/U0USVZSz6aabrhAviyOVeVT5L0Tt3HPPLdhlJLTKxO0HC/bwE+0BRkarDKOwFi4jJt7ss88++TOzg1/05lPB2z1/pMOiqqHv/e127rlPO+20GT/vv517gf/SSy9NIwf2rJcj/OkMqjIjTfdwK+Gm3hXSNByOdY1G/xzGvQpP2KVjqZP5whe+UJnHVfkY538X7I5U4F9qqaUK/lmYjPTyntPJYPf8sZNmQVuMOrEr32/yHSoLWz79vZzvsssu5ej1LPA3/U0zOloVZ8raOAWl8tlWW22Vx3+433TuQcXJcPxsMn8rotT1VtPfStfAXn3YyztIWd6pLDrooIMqgxlO+YhHTbyXF198ceF9o3Pir3/9a2U87ebRRx9dcFPuMPblTieBv+l3pw2Bf6R1r/Hq5zjSMIfzHRO/Jr6n4YbdxHvcD2PZFQEREAEjMCKB/8tf/nKhMjz44IPN33REzds39qrUlQsO4oVvEAxX4C93RBCHL37xi2l02oTiOB8+O+6447JpppmmEEc6LeIcxTxaqDZ6YYdK3fzILcWTsiaApfvqq6/21tL5XXfdVQjzq1/9am6HqQUI9+YeDQVGdL2qa1wTIUO1Ms7bze1hH3vDNZ67hc2RPGBKBIIjUx9MLR+VtLJ2B1MMTj755Owvf/lLiu/vf//77IADDhgivNHBQYeQN02kO84pTRomcdeIAhcEWzRP+BE3b5p8V/C3X464qWs0+uc+b1Cxp0MqznvP4jzE7Kc//Wk2++yzF9LOu2t5RlhmUKP0fnH+8Y9/PEP1+v7778/+8Ic/ZAj15GnZHtflb9387eUYt+ks+BkXlMv23HPPQjx5P2igU2b48D//+c9XBtEGo8qAKm42/Q51ErYQrigr6HSjPCDfUUsuT+tAEHv44YcLMfV8Oo0KNv1NM1XE5x3nn/70pzO+TwQtylnKQqYQle1Zx+JwvulCwisu+vWz6fytiFLHW218Kx0Dcw86vYO8W3yrTzzxRLJNuX3GGWcMma5BvfrMM884H185HU752NR7yftGh6J/15ha182gUeXtlzsc/XdVJfC38e40LfA3Ufd2Y1j1rIkw+/2OiUdT39Nwwm7qPa7iqXsiIAIiUEdg2AJ/3IavoPJNo/3JJ58shEejzVeWnN96660FO+UL3yAYjsCPoMBcQh8uKrFeiPdhMq+OitrbLwszqOb756i7l8373ve+gh2zv/fee5etZj/60Y8Kds8///zczoUXXlh4ttNOO+XPyidlu5/97GfLVnq+9twt7jSOrrzyyko/vv/97xfiSY93XKSx0i6dHsx9NH850tPtTTktI0k3c859WJtvvrkPKj9v413plyORqWs0+ueWLgS/qncadcGydkZ5fQjcldeGqBoVJm5xwcisajSj/I1gt1ez++67F/KHqTedDIKFX1sAzZgq0zSjqjCq7rXxDlUJW4yG0wFSZRCay9pUG264YcGq59NJ4G/ym+YdK3fWfPjDH67sLCWizIm1d5vjvvvuW4h/r990wVHNRS9+tpG/NdEqPG7jWykE0OGi6h2k85mOwirz1FNPZfPNN18hD7feeushVodTPjb5XrIOhn/P0EDpZFDdRxPF7KMZ6Dvecee/q7LA39a707TA32Td24ll+X6TYfbyHVv4TX9P/YTd5Hts6dFRBERABHolMGyB/4QTTsgrQipE5gtXGdRzrcLkyChxN+MbBMMR+Bnl9OGh6k7F28387Gc/K7gpq9gzd9j7WV6Mj4aBf+7Pq+bxs3Cc2aEhzwIyZhB+7BnHcsPX7HGkUe0rfxbNG67x3AmXeN0fR3qrDB07XruAhuCf/vSnKqv5vTLjddZZJ3/GSZPp7rUSbuNd6YejAejWaMSOf07ezDvvvF0XamQhKf8OHXXUURZUOp566qmF53SQdftGyFu+Re/nSAR+8t78wl/Wv+hmPvKRj+T2GeWuMk0zqgqj6l4b71CVsMU8+G7m7LPPzhnBFkGFESUznk+VwN/0N11+x+KuCx07BIlj3MWlEH/WLPCm12/au6k778XPNvK3Ll7+eRvfive/03nVO7jpppt2sp7uX3HFFYU8RLuorA3Xb/nY9HtJWWZlD0c0FtDiqzKHHnpowa6famL2/XdVFvjbend8nV/1LVvc7Fg3h7/JutfCrDs2GWYv37HFp+nvqdewm36PLT06ioAIiECvBIa9IfOJJ54Y68v/N3Ge2v9fuLOoTu2uQohz3UMULgr3mryIaqQF72IjJUQhoXCvfBFHxgtb3LFNS1Q5y6194hOfyM85iYv7dbyOjZwQ1d/z52yfFRs9+TVpjw2j/DoKM4Wtz+IoQv6Mk6hWnbawKtx89SIKS2kLvNjhEPh5f6vs93Nv++23D7Hjo9JJXMAtRDXx/NlGG22UttXKb1ScwJit1sywTaNnPBbpbuNdsfTZsRtHs9PvMS60F6JA19FZHFktPIsLTxWuy+9JHPXq+o2w7dZaa61V8GMkF1tuuWWInWjpF6fVFN6Lsr98L1H4KN+uvR4po9oAXrUwGu/QjDPOGOLuJ12jFFXlC99r7AwMlGO9mqa/6bg4ZyHoqGUTSEcnQ/znnHPO/HFc5yM/H8uT0cjfbukbjW+lW/j+Wdwtwl8OOY+Lx4bYwZ/fj+vXhDjtJL+uOqkrH5t+LynLosZSHhXqoAsuuCC/9idRYPeXIWrNFK7rLsb63amLnz0fi7p3LMIkvWP1PTX9Hlve6SgCIiACvRIYlsAf5y8VhF72ZafBVmXi3PnC7Ti3tFHBtOB5vGCvejMI+nGdAbvseER4ivOX8+ext6TgT1TXT3tFm4Wool7otIjz9OxRiAvChLj6b34dR+9DnA+dX7NHfZzbmF+XOxOi2mv+jJO4omxAgItzl0PcDijE+fuF53GuZNp3nb3X43zrwrORXMR5tR2dR7XxwrMPfvCDheuqCxh7ezS0ogZBbnUs0t3Gu5In6NWTbhzLdnu9jqOfXa3G7bQKz8vvzJ///Of8OZ1GK664Yn7d6YQOm6ZM3BYubLvttulX9X0i5MepBIFGUtwWMnVq9Rv2SBn1Gt5ovENx5foQRw+7Ronva8011yzYoZzu1TT9Tft3jDhEDbCuUeE9jDuVhDjamn50YI4HMxr52y2do/GtdAvfntFZSz1YZxCovSm/B/4Z53XlY9PvJWH6Dnmuo/YZh4Kh/PGdTnEKVFh00UULduouxvrdqYufPR+LuncswiS9Y/U9tfEeW/7pKAIiIAK9EHhdL5bKdk466SSmAuS34/zsEBdry6/rTuJCUyEuhlNnbVjPfSWLEFzuSe7kaVSTKzyK82KDF5wQzON2Q8lOXHAqCSFxMbt0Hee5524Rnhi1pwFrmgx0CJiwGxeNye1yUhb440J4YY011ghRRTe3x0gJjRJ+ca2ENEIRdwtInRR0MHQb7c096fMkzsfs6AI23uyxxx7h+OOP97cqz+OaDoX7dGbMP//86d5YpLutd8UnshtHb6/Xc761uIJ9V+t1z30jHO50GtWZOEe8zsqwniOUMhIW9+8OnDMiSGPba8X063ETjHoNczTeobgQY0/RKWvk9CPwN/1N+3cMrScrK7slJK6aHviNJzMa+dtretv4VnoNO0776ckqAv8555yT2/XvQX7TndSVj02/lwTNIMQ3vvGNvIyJ88mTtllU789jFhciLLRxqjomc8sdTsbTu9Mhiun2WNS9YxFmmcFofk9tvMfl9OhaBERABLoR6FvgR9BH4PeGUfu4Sr2/1fUcYTYuXBfiavRd7fX7kNF0hEgzZSHe7lcdyx0DCB7eoAFgAj/3UeunERsXKwpx9ffcKsJ+XDQtxLl9SYjhAQJ/nIOb7HhV17LmgHly+umnhzgPO8TVrO1Wfoz7Woe4+n36xQUBU1hxUcIQF0gKcZG93N5ITuis6DaiWO6tZqTej9b3GrZX6cfNaKa7zXfF0l/H0ez1c/SN0n7cmd246FSIc+btsucOsaYF/rjAY4irfYdjjjkm8E43aUbKqNe4jMY7RFzKgnyn+MUFDQuPKJd7NU1+03HtgMI7Nv300/cajXFlb7Tyty7RbX4rdWHb817z0DpwzR2dd51ML+Vjk++lxQNNOOrzuJhpuoUGVFyMMMQF/MxKqovsIq5RE9Zdd1277Ok4Xt4dIusHZzpFfjTrXovDWIRJ2GPxPbXxHhtHHUVABESgFwJ9q/Qz/7efuaFVkYgr/Ie4nVjVoxHdiyt6F9z3MnJpDvycdO6VGzjlufY2qu/n88eF7sLSSy+dvIyL9ZnXwebxM2rp7cc9fXM7/oQGBqP5hIEqdbeOEeY3xwVwAiqH5V5k72eT52XOw/Ub4dOb0Ux3OQ1Nvis+TU2fj1Sb4/nnn881T4hbt44dH3ca500Zvoe55porHHHEER2FfcJj9C/uRhB6HeG2+I2UkflTdxytd6jX9KAJ5A0dj72aclp6dVe2xzeNOr4XMpjyNYimzGQsyoi2v5Ve86XXcgINNG+61V3eXqfzch50sld3v1zXfOlLXyo48Wr9aCV4bTS08OLWlwX7dRfleI/Fu2NxLLdt7L4/jmbda+GORZhj9T2V3wdj0O+x/B736172RUAEJi+BYu3cA4fyYn00zHsRBlBvNxV3gkGtn1HsJk1csbagSt/PPFA/6kmcUDnzhlHDFVZYIcR9ytPt3/zmN6lRy+i9GeaHmUoqUxbiNizpEb39zOOnEeznU5fV+c0fO8atqgI/RswQ/ulsITwaIyzK5Q2CP/OW0TZoe4RzttlmK4zgHX744T2PQvo4d1LzHY10t/mu+DSOt3Marryj1nCIqwf3FMVe7dV5RmffeuutV/gOWGuDDjV+dFwh4LOAmwkLvNfD0SCpi8tIn4/WO9TrooXlMqyfjpImv2kEfPLUhP7yopEj5T5a7kcrfzulZzx9K2WNt05xLmuV9NPpVOVnk++l9581JYibfVtxa9xUJlI2lhfrG446/1i/Oz6tzz33nL/sej4adW85AqMV5lh+T229x2WWuhYBERCBTgT6EvgpMMtq5sy9La8KXhUYC875hf3intKBXs9uKzdX+dPtHiPsqLX+5S9/Sdbs2M2NPSuPjpcFfuwhoJvATyMW4dpG+nmOwGJmueWWC8xdtVE3BHWvusw84w996ENmveuRdMXtjNIPi1TgzHs++uijCwsg0ii76aab0sI0XT0c4cO41WHSWjBvECz8ood2f6THNtPd9rsy0rS35R5BbMqUKbk2SDeVWx+HG264wV8O+5yRNC+8M3KIam23hQP7abAOO2LDcDha71BZHbRTVMvlXVUZ1slt098004tM+GPaE52W8OpmWCTNd1o0uTNEt3A7PRut/O0U/nj6Vm699dZO0SzcL5cn5alyBcs9XDT9XlqQCPbsIISWEYZRcNokLLiLqrkZ1P87aeKZnarjWL87Pk6+vPX3u50T/9Fuc7Qd5lh+T229x93yUM9EQAREwBPoS0+XhWwYrTaz4IIL9iTsY5/K453vfKc5TSPUP/nJT/Lrpk78tkCoL3vVvE5hMKeLlffN0BjwW8jZ/fKIPGsRxH197XFB4Gd0khXGzSDw+/n7aADQIVA2u+22W2D7I35oQVQZ1ANZeAj/2BLPm17S6+0P55zKyxt2HujF0LiytLH+gNf4GIt0t/mu9MJjrOx4QZAFKO+5557aqDQ1BacsOHznO9/pKuzTEKdTcbya0XiHfLnRiQPfEltdeuPz2d+vOm/6my77h0ZUN4M2AAI+Qhi/b37zm92sj9qz0cjfTokZT98KncnsoNDNkIcIzd70u7K9d8t5+T1qoq6xMKrU+unE99yZu4/q+XBMW+8OnbZm2PGn2wKnPPNtG3Pnj2NR945FmD5fSf9o1j1tvsc+L3UuAiIgAp0I9CXwl9X5119//U7+DrmPcFvegqeTQDvEcR83ylsHHXTQQbWu6cjwKvKMNlZNU6AB7f1HaDW1VUYq2T7LGz+P/9JLL+1p/j6MDzzwwPSj0euFYu+3nbNdnzd0crRtPAPCQpDv1ujADh0jW221VZ62U089tcB4LNJdTkeT7wppHq+mLAja1JNO8UXdlV8TpjxaXbdKN9NYvGZME3Fo0o/ReIfQhLIFxjrFnUXH/NoqlEX9zJ0vp2Ok37Tf4YQ4s0hrN0Onhl9wtQ2NoW7hd3pW5jKaZcR4+lao5+reQVbn9wvYotZeFnQ6ce50v8x/pO+lD4f1dnz8SF+5TbLhhht6J32dl+Pe1LvjB07QIGQ7y07mqKOOqu2oGYu6dyzCHMvvqfwuNPked8p73RcBERABT6BngZ8tZnxPMQLxOuus4/2qPWfkxhtG7u644w5/a8TnLPLlF7lCmPfxLgdA+HvttVfhNr3PnYxviJq6PnbZdq88EtBt60Hvjw/Lb3+E5oHfC9jbs/Obb77ZTtNxpCMqBc86XKDiyBxrM6gSM4+/k0FgYxsk33lRfnfaTLfN0yzHr+13pRzeeLlmDr0fJWJLzU4jsDTgGeXyeTeSdCAEeGNq3/6enbMbxaabbmqX4/I4Wu/Q9ttvHxjNqzKsr7DjjjsWHu26666F67qLpr/pbbfdNl/PhLCZ0lXektTixG4dW265pV2mY6fy0Sx1+qbt+XCOVX6OVv5WxXe8fSvsxOMFeh9n3s3dd9/d3yqsel940MdF0+9lOWg/yk9n+b777ptbYY0Z1hQZrmnr3WG7YW86aV9de+21qd71dqvO26x7q8LjXpthVn3HhDka31OnsNt6jxmoolPHfscee2xg6q2MCIiACAwhEHvuezKxAZlFx/kvzlfvyZ23FAXkLC6Uk/uBfzvvvLO3kkXV//x57FQoPLOLOjubbLJJ7gdhRBX9LC7EY87zYxx1zuKc/4LdOCqfP686iSqLBfvGJDYUhliPo95ZnKs/xH5c82CIXbsRRwEK9uNc2OySSy6xx/kxTq3IoqCWRc2J3D68YsMrt9PPSR3Tsl9xxDcP1xjstNNOWRTuC1ZjR1G21FJLFezGKQlZFPQK9ppMN35bnDjGlaOz6667LouVY/r5gJt+V/rlSFziFo55fKOmiI9eOvfPY6NlyPPyjbiuRO4f6d9ll13KVrI4FaRgh/coapZksfMm5eE111yTRQ2WLG7HV7BnXA8++OAhfvZyI3YMFfyLo1UZYXnDux3Xp8ji4pMFuxZ21TveBiMfp27nTb9DsdFYme645VkWR8LzqPA+x07TbN555y3Yh0XZ9MKn6W86Tt8pxItyOM6PzqgHzMRRtyx2lhbsRYEmi+rjZiUd+/mmCw67XPTqZ9P52yVKhUdtfSuFQDpcdHoH44h4FjtusrgmQ+4yqtlnsQO4kIfkNWVJ2QynfGz6vfRxilMVstj5WYi7lTOHHHKIt1p57r+rqrK7jXdnjz32KMSX+BPXOD0rxZFvKmrUZLQdLC3+GKcXFtLSZN1b8LjLRZNh9vodt/E99Ro2KNp4j/kOfd5yHheI7kJej0RABCYrAVTSaw0Ny7infaFgOf7442vdVVmIe8YX/EGgiKOHudVeGgR1duLq/Nnb3va2QjgUhHGrvWzVVVfNEOoRnMoFZVw0ZojwkUfs1RMKWCr2sts4Glm2mq7jasBD7JY7ObxD/I/qXwU3VOixRzyLUyiybbbZJosLAhYEfYtLN399GFXndUyr3MQFjgrxJB5wj7sVZHE7wZQOOiEsfnaMIxJDvGsy3byvNDgtPDsSl9jTXgi76XdlOBzrGo3+eVMCfxwVzhC2jY0/Rg2ZyvveznAFfhpIVeHGlZrT+w2/qk4yHzbCxSqrrJLRWDfTBiPzu+7Y9DvUSdgyBjTkF1988Syq7A/Jp6hllMWFRYdEuVc+TX7TdMxQ5lq87UhHTpxykMqH8rvGdVkgITH9fNNDEt/hRq9+Np2/HaIz5HZb38qQgCpu1L2D5CHlfLldYHm85557Vvia9dShX+Wwyfey7D+DFxZvO9IBGhfmLVsdcu2/qyqBv413B4Ge79ziasequtae+WP5+2qy7h0CqMONJsPs9Ttu43vqNWzD0PR7DEeft5xL4DfaOoqACHgCPQn8jDD7QoXK3nqTvWe9nFeNkF9xxRW5014Epl7sUOjFucqFePs0lM9nm222LK5Ensej20ncbaDg79RTTz1kZNvcl3uyCTdOMbDHlUdGaKsE1nKc/TWNLzQKhmt6YVr2O66ensVpGgUWPk5V53H6RNmb/LrJdG+wwQaV8SoL/ATe5LsyHI51jUb/vCmBn3THuZ9ZnMdaycnn3VxzzZXFqTEFe4yWDNecdtppBb98WOXzqNqdRhTL97mO03HyKLTFKA+g5qTJd6gsbNHJF1c7r2VGB0BcK6Qypr3yafqbjiuEZ1E1ujbu5CcdmwcccEBl/LnZzzfd0ZPSg179bDJ/S1HoetnGt9I1wFcflt9BtNLQvKj6Dsv3Nt98845BDKd8xLOm30sfwRNOOGFIutZcc01vpeO5/66qBH4ctvHuxPUGemojkGfHHXdcIX1lgZ84Nln34l8vpskwe/2O2/ieeg0bJk2/xxL4e3nTZEcERAACPQn8W2+9daHCQMgbrkEojVvdFPyL809z73wPKD3WVaYXO7ijUyKuZl8Iq9w44ZpGSC+9+RaXI488suBnlRBpduPKsAW7TGkoq72bXX+kFx9thKr4+nuMltJI9mqy3p9ez3tlWuXfSSedlNHp4ePlz2nIxx0OCurIVf5wr6l0x/UPsqqRm0551dS7MhyOjHYar7hN5RA0/nlc+XnI8/INGlLmH8cqlX5zwwjFD3/4w2yxxRYb0oBEWyOutZAxSoUar/cT1eyRmLi9Z0eVU8KJWz1mcWGnFAQaQFXfcZxPnEehTUZ5IDUnTb1D+ONH6+K8zNQZGRfCK+SBz4+4+GHqwOkURS+Y9NJp1OQ3zRSNuPhZ5aikpYEyOG4p2in66X6/33RXz1592I+fTeVvL/Hydpr+Vrzfnc7LAn9cxyOLW9dmcWeeju8gHexx67NOXqb7wykfvYdNvpfmb9wJJIu76hTSFdecsMddj77cqSq7zXEb707cmrdjJwyaMhtvvHEWF8JMAwz2nXGMO/lYtArHpuregqc1F02F2c933PT31E/YhqOp9/jll19OUxZ9/sZ1nSwYHUVABEQgJzAVZ7GwmNCG1atZ3I4fW7NEQSZtJ8iCPHHkIkS103GbfhYcZBXe++67L/1YWChOgwistM7CeewEMB7iz5ZNscGetlBjRX4WMGRf3ajymfYx9qsh9wK7iXTzakc1vhAbFSFWjCF2tgS2kiT/O5lBflc6panX+yyueOedd6atN2eYYYa0NSW7a2DiGhhpK0jziwXY2M1iJIYt92KjNb3ff/7zn0PsNApxTY0Qp6ykX+woyr0nL1nEj+83CsOBLa+iVkuI6zPkdsbLSVvvEAyitlX6ztgmLXb2hbg+RvpFIb5r8lmAzBb4xK5fEb+Tw6a/ab5BtlVj61Dym7wmH1nB2m9h1ik+3B/ON93Nv+H42Vb+dovnaH8rcSQylZcWJxbuZGcVDDvO/O53vwss1kp+xDUkwgILLBBYpDZqppmT1o5Nv5etRbTC4zbenUceeSRE7cT0bVHnkh+0a2gnDMc0Uff2G24TYfZTNjT9PfUTtrEZ5PfY0qCjCIjA4BCYFAL/4GSHYioC7ROgccLPDAJ0nWHV9Tg9JbdGpw6NfJnBIDAcgX8wUqZYtkGgm8DfRnjyUwREQAREQAREoD0C9S399sKWzyIgAmNAYP/9909bV0a1z3T89re/3TUWjETEFYZzO2wLFVXI82udjH8CbH0nIwIiIAIiIAIiIAIiMPkISOCffHmuFE9yAnFtgwKBww47LLz00kuFe3YR14YIa6yxRojbK9qttL92L1oBuQOdjCmBOIc+oPZrJi7uZ6c6ioAIiIAIiIAIiIAITHACEvgneAYreSJQJhAX6Atx4cz8dtw+Lc2ZjztohBdffDGp+8cFusLJJ58c4o4Uad64WWZths0228wudRzHBPbZZ5+w6aabhrilZ0BLw8zMM89spzqKgAiIgAiIgAiIgAhMcALjb8WrCQ5cyROBsSbAYngHH3xwWG+99UJcAT9FhwXd4krp6RyhPu6mURnNvffeOy0IVflQN8cVgUMPPTQ88cQTQ+JEJ46MCIiACIiACIiACIjA5CCgEf7Jkc9KpQgUCKy99toBgZB5/GVTJezTCcDc/x122KFsXdcDRCBub5hG/QcoyoqqCIiACIiACIiACIjACAhohH8E8ORUBAaZwFe/+tW0ZSKC/ymnnBKefPLJIclhgb611lorbLLJJmlLwyEWdGPcEph//vnDW9/61rS9Iudsd7j++uuP2/gqYuOHANtdLr300nmE5pprrvxcJyIgAiIgAiIgAoNFQNvyDVZ+KbYi0BoB5nmzTzRz+qebbrqAsD/ttNMGpgDIiIAIiIAIiIAIiIAIiIAIDB4BCfyDl2eKsQiIgAiIgAiIgAiIgAiIgAiIgAjUEtAc/lpEsiACIiACIiACIiACIiACIiACIiACg0dAAv/g5ZliLAIiIAIiIAIiIAIiIAIiIAIiIAK1BCTw1yKSBREQAREQAREQAREQAREQAREQAREYPAIS+AcvzxRjERABERABERABERABERABERABEaglIIG/FpEsiIAIiIAIiIAIiIAIiIAIiIAIiMDgEZDAP3h5phiLgAiIgAiIgAiIgAiIgAiIgAiIQC0BCfy1iGRBBERABERABERABERABERABERABAaPgAT+wcszxVgEREAEREAEREAEREAEREAEREAEaglI4K9FJAsiIAIiIAIiIAIiIAIiIAIiIAIiMHgEJPAPXp4pxiIgAiIgAiIgAiIgAiIgAiIgAiJQS0ACfy0iWRABERABERABERABERABERABERCBwSMggX/w8kwxFgEREAEREAEREAEREAEREAEREIFaAhL4axHJggiIgAiIgAiIgAiIgAiIgAiIgAgMHgEJ/IOXZ4qxCIiACIiACIiACIiACIiACIiACNQSkMBfi0gWREAEREAEREAEREAEREAEREAERGDwCEjgH7w8U4xFQAREQAREQAREQAREQAREQAREoJaABP5aRLIgAiIgAiIgAiIgAiIgAiIgAiIgAoNHQAL/4OWZYiwCIiACIiACIiACIiACIiACIiACtQQk8NcikgUREAEREAEREAEREAEREAEREAERGDwCEvgHL88UYxEQAREQAREQAREQAREQAREQARGoJSCBvxaRLIiACIiACIiACIiACIiACIiACIjA4BGQwD94eaYYi4AIiIAIiIAIiIAIiIAIiIAIiEAtAQn8tYhkQQREQAREQAREQAREQAREQAREQAQGj4AE/sHLM8VYBERABERABERABERABERABERABGoJSOCvRSQLIiACIiACIiACIiACIiACIiACIjB4BCTwD16eKcYiIAIiIAIiIAIiIAIiIAIiIAIiUEtAAn8tIlkQAREQAREQAREQAREQAREQAREQgcEjIIF/8PJMMRYBERABERABERABERABERABERCBWgIS+GsRyYIIiIAIiIAIiIAIiIAIiIAIiIAIDB4BCfyDl2eKsQiIgAiIgAiIgAiIgAiIgAiIgAjUEpDAX4tIFkRABERABERABERABERABERABERg8AhI4B+8PFOMRUAEREAEREAEREAEREAEREAERKCWgAT+WkSyIAIiIAIiIAIiIAIiIAIiIAIiIAKDR0AC/+DlmWIsAiIgAiIgAiIgAiIgAiIgAiIgArUEJPDXIpIFERABERABERABERABERABERABERg8AhL4By/PFGMREAEREAEREAEREAEREAEREAERqCUggb8WkSyIgAiIgAiIgAiIgAiIgAiIgAiIwOARkMA/eHmmGIuACIiACIiACIiACIiACIiACIhALQEJ/LWIZEEEREAEREAEREAEREAEREAEREAEBo+ABP7ByzPFWAREQAREQAREQAREQAREQAREQARqCUjgr0UkCyIgAiIgAiIgAiIgAiIgAiIgAiIweAQk8A9eninGIiACIiACIiACIiACIiACIiACIlBLQAJ/LSJZEAEREAEREAEREAEREAEREAEREIHBIyCBf/DyTDEWAREQAREQAREQAREQAREQAREQgVoCEvhrEcmCCIiACIiACIiACIiACIiACIiACAweAQn8g5dnirEIiIAIiIAIiIAIiIAIiIAIiIAI1BKQwF+LSBZEQAREQAREQAREQAREQAREQAREYPAISOAfvDxTjEVABERABERABERABERABERABESgloAE/lpEsiACIiACIiACIiACIiACIiACIiACg0dAAv/g5ZliLAIiIAIiIAIiIAIiIAIiIAIiIAK1BCTw1yKSBREQAREQAREQAREQAREQAREQAREYPAIS+AcvzxRjERABERABERABERABERABERABEaglIIG/FpEsiIAIiIAIiIAIiIAIiIAIiIAIiMDgEZDAP3h5phiLgAiIgAiIgAiIgAiIgAiIgAiIQC0BCfy1iGRBBERABERABERABERABERABERABAaPgAT+wcszxVgEREAEREAEREAEREAEREAEREAEaglI4K9FJAsiIAIiIAIiIAIiIAIiIAIiIAIiMHgEJPAPXp4pxiIgAiIgAiIgAiIgAiIgAiIgAiJQS0ACfy0iWRABERABERABERABERABERABERCBwSMggX/w8kwxFgEREAEREAEREAEREAEREAEREIFaAhL4axHJggiIgAiIgAiIgAiIgAiIgAiIgAgMHgEJ/IOXZ4qxCIiACIiACIiACIiACIiACIiACNQSkMBfi0gWREAEREAEREAEREAEREAEREAERGDwCEjgH7w8U4xFQAREQAREQAREQAREQAREQAREoJaABP5aRLIgAiIgAiIgAiIgAiIgAiIgAiIgAoNHQAL/4OWZYiwCIiACIiACIiACIiACIiACIiACtQQk8NcikgUREAEREAEREAEREAEREAEREAERGDwCEvgHL88UYxEQAREQAREQAREQAREQAREQARGoJSCBvxaRLIiACIiACIiACIiACIiACIiACIjA4BGQwD94eaYYi4AIiIAIiIAIiIAIiIAIiIAIiEAtAQn8tYhkQQREQAREQAREQAREQAREQAREQAQGj4AE/sHLM8VYBERABERABERABERABERABERABGoJSOCvRSQLIiACIiACIiACIiACIiACIiACIjB4BCTwD16eKcYiIAIiIAIiIAIiIAIiIAIiIAIiUEtAAn8tIlkQAREQAREQAREQAREQAREQAREQgcEjIIF/8PJMMRYBERABERABERABERABERABERCBWgIS+GsRyYIIiIAIiIAIiIAIiIAIiIAIiIAIDB4BCfyDl2eKsQiIgAiIgAiIgAiIgAiIgAiIgAjUEpDAX4tIFkRABERABERABERABERABERABERg8AhI4B+8PFOMRUAEREAEREAEREAEREAEREAERKCWgAT+WkSyIAIiIAIiIAIiIAIiIAIiIAIiIAKDR0AC/+DlmWIsAiIgAiIgAiIgAiIgAiIgAiIgArUEJPDXIpIFERABERABERABERABERABERABERg8AhL4By/PFGMREAEREAEREAEREAEREAEREAERqCUggb8WkSyIgAiIgAiIgAiIgAiIgAiIgAiIwOARkMA/eHmmGIuACIiACIiACIiACIiACIiACIhALQEJ/LWIZEEEREAEREAEREAEREAEREAEREAEBo+ABP7ByzPFWAREQAREQAREQAREQAREQAREQARqCUjgr0UkCyIgAiIgAiIgAiIgAiIgAiIgAiIweAQk8A9eninGIiACIiACIiACIiACIiACIiACIlBLQAJ/LSJZEAEREAEREAEREAEREAEREAEREIHBIyCBf/DyTDEWAREQAREQAREQAREQAREQAREQgVoCEvhrEcmCCIiACIiACIiACIiACIiACIiACAweAQn8g5dnirEIiIAIiIAIiIAIiIAIiIAIiIAI1BKQwF+LSBZEQAREQAREQAREQAREQAREQAREYPAISOAfvDxTjEVABERABERABERABERABERABESgloAE/lpEsiACIiACIiACIiACIiACIiACIiACg0dAAv/g5ZliLAIiIAIiIAIiIAIiIAIiIAIiIAK1BCTw1yKSBREQAREQAREQAREQAREQAREQAREYPAIS+AcvzxRjERABERABERABERABERABERABEaglIIG/FpEsiIAIiIAIiIAIiIAIiIAIiIAIiMDgEZDAP3h5phiLgAiIgAiIgAiIgAiIgAiIgAiIQC0BCfy1iGRBBERABERABERABERABERABERABAaPgAT+wcszxVgEREAEREAEREAEREAEREAEREAEagm8rtaGLIiACEwKAlmWpXRONdVUPaUX+73a7clDWRIBEehK4H//+196/prXvNJXb9+gfbs81DfZFaEeisCICPz3v/9N35h9Z3YckadyLAIiMCYErO7s9TuuqnMt4r36YfZH+6gR/tEmrvBEYJQImHBgwVFQcc9+dm0FHvbK52U/zK+yXX9f5yIgAs0S4Lvkh6Bvwj4h+O+Va75XBJLyfXtm930ZwDMZERCB3gi89rWvTd+gfUve1XC+K/yp8sv7q3MREIH2CNj3x/dr551Cs+cc/bnZx4/xaqaKEX5lWG+8xlDxEgERGBYBCh4vHFhBZCMUvsCq6pm0oqHq2bAiJEciIALDItDrt1i2x7eLgOLLAisHiAjlg77vYWWJHE1CAnxffC/2nRkC/035c3ve7Wh+6TvsRknPRKB9Ar1+i9SbVhYQK6tj7Z5vd7cf695DkEp/76xkUwQGigCFD40PK8QQ9O2ae/y4989//jP9/v73v4d///vf4eWXX073//Of/yQ7HM2YO7vWUQREoH0C1oAwAZ0GBr/Xve514fWvf314wxveEN7ylreEN7/5zekcezxDiOD75dw6+rhHOWB+tR97hSACE4MA3w3fHYZzftYBwPdl962u/de//hVeeumlVL9yTv3K98hzs2P1M37JiIAIjC4Bq1sJ1epMjnznb3zjG1P9+ta3vjW86U1vStfc93Wnubeywb7n0U1Fb6FJ4O+Nk2yJwMAQoMCxxgjn//jHP8ILL7wQnn322fDII4+EW2+9Ndx///3hL3/5S3j66afD3/72t1zAN3cccWs/SzzXMiIgAqNLwEb//JFzGhv2o5HCD8F/hhlmCDPPPHOYZ555wrzzzhtmm2228M53vjP9aMRYI4Xv2fwc3RQpNBEYPAJ8NyaoU0fSWf7888+nH/XpnXfeGe6+++7w6KOPhscffzw9R8j3blS3Dl6+K8YTl4Cv/zi3n9WrHK1uRfCffvrpU30655xzhvnnnz/MOuusYZpppglvf/vbU4c77q1+9X6PB4IS+MdDLigOItAAARrvNCZs9OCpp54K1113Xfjtb38bbrrppvCnP/0pCfgNBCUvREAEBojAdNNNlwT/JZdcMiy22GLhQx/6UHjXu96VGjLWsPGNE+vos4bLACVVURWBxglY3croPHUsdeuVV16Z6lXq2DvuuCM888wzjYcrD0VABMY3AToAFlpoobDIIouEZZZZJiyxxBKpbkUToKwNMNYp0Rz+sc4BhS8CPRKw0TgEegoSrs3YCAKjCYw0XHbZZeHkk08Of/7zn8Nzzz2X26VRT28lasDWa4lfqCvxM/VgjvzMYLdscCcjAiLQDgEEC75XjmY458e3z7fOOUfUhW1qDtemNsw5Pysr8O8d73hHmGOOOcLqq68e1lprraQJYKP+CPjY8fYtbB1FYKIS4H333xnfAN+C3ad+Zarbww8/HM4555xw9tlnh3vvvTf89a9/LXwr1JNMr+FI/UgdanUr97nGX44WRrlTze5PVNZKlwiMNQG+57LhW+c+R+pPq0f57vmhKctzntlz7Jjhu2Wkf8qUKWH99dcPH/3oR8N73/ve9K37tjT2MFa2WJ1r/rR5lMDfJl35LQINEqCw8UK2Nfyt0c+owwUXXBAOP/zwcPvtt+chU6BMO+20SQ1plllmCfxmmmmmpPbLfdSUrIFCYWS/qoYInvKcwsoKrjwgnYiACDRKgO+Mnxn79rj23z/X1hBhLQ6m6jDi+Nhjj6Xfgw8+mKbzPPnkkwX/UPf/8pe/HL74xS+GGWecMTVOfBmDvzIiMFkJUOfSmcZ3c/rpp4cTTzwxqe0bD75HNGWoU2ncc2QqDaN+aNUwvYZ6lPoVu5z778u+Z6tr+abt3MLQUQREoFkCvl61b9BC4BvEmB3KAO5xZD0OpsYyXeeJJ54IDz30UJq+wyAb980t7lH332KLLcJqq62Wygjr7PPfP/bK7XrutWUk8LdFVv6KQIsEKCQoqGjk08BHpXCPPfYI11xzTZqTzzME+bnmmiustNJKgflGNEQQ8G3xET/iQCGEG36+QOLaG39NgeivvT2di4AINEPABP6q7417lAEYzq1hwogE9xFWGJmgM5Afo5JXXXVV6hCk3MA+C/0tu+yyYaeddgqo/HNNGSDBo5n8ky+DR8C+I76dP/zhD+H73/9+uPrqq9O3xHeBIL/AAgukqTFzzz13atAj5HMfbRm+HxvFtyMUTPD3RPhu7VujPuVaRgREoB0CvX5fVgYQC9zQ5rZOdepXrln/Cg1a1uxAm/byyy9PdSwdA7h529veltT899xzzzDffPOl8mEs61YJ/O28U/JVBFolQGFkqkYnnHBCOOigg5IqP4Ei6DOPiJ7FhRdeOAn5NESsMYKgb4UODQxrbPgIc58f9mREQARGlwDft32XnPMt2j3fYKHRUTZ2D/vWQEHd3xbvRA35lltuCZdcckla3+PFF19MXjDCv+OOO4Z11103Le6HcGJxKIehaxGYqAT4blDVZTG+0047LQn7jOZhaMAvt9xyYZVVVklrYbBQly3WhaDPN+O/G74fvl0znNs3xZFvmfBUzxohHUVgbAnwPWLs2/Sx4Zndp56lQ512OJ3nCP9o1rFW1nnnnReuv/76pBGAe7R/ttlmm7DhhhumDnUb7fd+j8a5BP7RoKwwRKBBAhQ6FDKo7KJiuP/++6e5hDQgZp999vClL30pLL744mn1UObr0gFgjREaHNbosIZHVdQIg+fd7FS50z0REIGRE6BRYYIC5xh/bfe6hcQ3bA0U7CP8I/TTOGFUAnV/Ri/PPPPMpKZMA2bqqacOm2++efj617+e1JLHqmHSLV16JgJtEeB7oRFPw/2QQw4JRx11VNrhBoGc6S+f+9znkjbMu9/97lxbDo05L+Rz3otR3doLJdkRgdElYPUm33ynetbs8Jxz06ZD6GdHLFT8EfhPOeWUtCMWdmiLb7/99mGjjTZKdasvM0YrhRL4R4u0whGBBghQcDBax6jcrrvumgoUhH9G7T/5yU+GddZZJ6kOsQUXoxEI+jQsxqJwaSC58kIERGCEBMqNExoplCGoHTI3+YEHHginnnpquPjii/PpQJtssknYbbfdUsOEskXCyQgzQc7HPQG+E4R9OsL22WefcPzxx6cGP/XoqquuGr4c17pgpA7VfTrG7LtAMND3Me6zVxEUgcYJ+LrVOtUpQxD66VS/6667wk9+8pNw4YUXprKF9vgGG2wQ9tprr9QBYB3q1rFgnfqNR/RVD1/77Wja8lz+ioAIjJwAhQoFghUoFCRHH310WpwPYZ8Gyec///mw8cYbp1EI9uBGzZDCxQoUNUhGng/yQQQGkQCNCH6UAfw4pwOQ8oH5+pQfaAYxUsk+4jRYbrvttlTesIUf960hYsdB5KA4i4ARoC7lXeZI/YoxNf6DDz44HHfccWnUjm8Djbn11lsv2Fx9E/ZVtxpNHUVgchKgDOFndStHOgCpM5lCS/nBOlqUMczxR8MOlX+0bhdccMHUaWh+QJDzNo0E/jbpym8RaIAAhYAJ+6jjMvKw3377JdVcGuxbb7112gaEhfkYfbBFtyh4+LVdiDSQRHkhAiLQIgFrVFhZYII/o5S2vgdb9aEZhLCPaiLq/lwvuuiieTli7luMqrwWgdYJ0AC3b4CjTXdBhZ+6lU4vttjaaqut0taVU6ZMSXUr3wqCvo3qW8dB6xFWACIgAuOSgNWtRI7ywLRpqVtpi9NB+L73vS8db7zxxqRdd8MNN6TyhTW2KH9wMxp1qwT+cfkKKVIi8Mp2HRQGFCK2QMitt94atttuu7QFCL2Ia6+9dhL2Z5111lzN0IR8K4ho3FgDR1xFQAQmJwHKEYw1LDhSvvBDiKE8YSsxrhH60R665557wkILLRTe85735I0Scz85KSrVE4EA7ziGb4K6kXf9yiuvDKymzWJ9CPYssLX66qsnNX46vvg+aJhTv2JwZ3VsuqE/ERCBSU/AOgMpGzinbkX4Z5csBuzuvvvuNJ2OtvyKK66Y6lzfZm8ToAT+NunKbxEYAQFrlCDs83sgzrXdYYcdkkoQ3rKAEPt8oo5Lg4SCxRokuLWGOQ0Ta6SMIDpyKgIiMMAEEG5MQOFIGWHlBEcb7Z9tttnSHES2+kT4oYGy8sorpw5FK1PA4M8HGIuiPgkJ8C3Y94Cwf99994Vtt902TWmhrvzCF76QpsgxZ5+tbPk2uM93grHvR9/AJHx5lGQRqCBgZYINrpXrVjoMaaszv9+06Fjcjy1xWdAPY+VLhfeN3Hql9GrEK3kiAiLQFAEEfGuUcM4iWyz8cc0116QgmBe0/vrrh1lmmSXNE3SqYDcAAEAASURBVDI1Qwod3HkjYd/T0LkITE4C1gApp577dBQi1KB+yArka665ZhrZxy7qh2effXYaBbVyqeyHrkVg0AhQV1rd+vOf/zygbotBzZbO9JlmmilfWMsL+4OWTsVXBERg7AhQdljdiiYu297SfsdcffXV4aKLLkrrh9BRgGmzjpXAnxDrTwTGFwEKCWuQML/wkUceCQcddFAS/BnN32yzzcL888+fRh8Q9q13kcJCRgREQAR6JWCqyQj+LOTHOiALLLBA2j6Iecw8Z24ziw2Z3XKnYq9hyZ4IjAcCvL+8yyzUx3t97LHHpmtG8zfddNO0+C2jbnSE6V0fDzmmOIjAYBDwo/TWLqccoW5lyhztdhbYph3PIn4HHnhgePTRR9M6IpRJuG+rHS+BfzDeIcVyEhKgocGP0X1GICgUMEsttVRYbrnl0micqfFTsMiIgAiIQL8ErOywxgmqhwj6SyyxRCpn8I8Ox/PPPz/NQaRRgmmrUZI8158ItEyAupXFKc8555y8bl1++eXTe8/7z4Jb1K++Ad9ylOS9CIjABCRAGWJadHQkosZP/Yp5+OGHw7nnnpsWCrW6FfttdDRK4J+AL5eSNDEI0KBmtWC28zjrrLNSAUAvIXtkoxrEwkIUIhgrHNQ4mRh5r1SIwGgRoOxA2EeryKYGsZ0Qqv1s9znjjDOm0Yef/exn4aGHHkqjomZ/tOKocESgSQI2uv/ggw+muhUtOt5z5u5zZNusckcYbqyebTIu8ksERGBiEqAMsXKEtjmq/dSttN832mijNOpPmXLmmWeGB+IaXZQx1pHeRlkjgX9ivmdK1QQgwMdPQwSVQ1bLxiyyyCJp/g/CfnleYRsFxATAqCSIgAh0IWANEqxQ5mDoSKRhwlafzGnG0PF4/fXXpzKJsoaGicqchEZ/A0LAv6+o87M+BQtnYRZbbLH0viPs8/7zo5Funej+OxmQ5CqaIiAC44QA9SVlCOXK29/+9tSOpz2PYYHcP/7xj2mADzu+3Gky+hL4m6Qpv0SgQQI0vllB+NJLL03beKBqu9pqq6V5QJybwG+FA/Y5V8OkwUyQVyIwwQlQXliZQflh5QplDKOdq666ahrxpHw577zzUplER6TKmgn+YkzA5FmHFkemyl1wwQWp0wohf5VVVgkzzDBDvv1eOfn+Oyk/07UIiIAIdCNAfUm5QznCgB1r5XziE59I5Q1Ti2jnUyZRt7ZlJPC3RVb+isAICTAaQQHAKASGxsg888yT5hbSKPejFTznnowIiIAIjJQAjRJGImiYvP/9708jEvh55513hmeffTaVPSY8jTQsuReB0SJgdSR1J+/xXXfdlYJmdwo0WUxzzjrARiteCkcERGBiE6BMofzhh/BPJyPtedr1GNr5tPfbrFcl8E/sd0ypG1ACfPTM32exrHvvvTelYsqUKWn1YObxW6ExoMlTtEVABMYxAWuYsHDZzDPPnFYWJrpPPfVUuOWWW9IoBI0WGREYNAK2Ns7NN98cnn766RR9dqXgPUerRZorg5ajiq8IDBYB6lfKGrbnYz4/hs50FuamfGK6UXlAr4kUqsZugqL8EIGGCSDwo9rD3B778JlPy7xaE/Y1CtEwdHknAiKQCFC22IgEo57zzTdfuv/SSy+lxYUom9ociVA2iECbBGhU33///WmqHOEsuOCCuSq/6tU2yctvERABCNCOt7n8XNPOZ70uqfRDQ0YEJhkBevluvfXWXOBH5ZBeQVRt1SiZZC+DkisCo0yAkU5W7afMQSDimjVFWLwP7SMZERg0AjSq6ahCdRaBn/eZ95oRfjTnOOcnIwIiIAJtELCOdAR+1PptUVzKpttuuy3fBaeNNr5KtjZyVH6KwAgI2Og+Ar+tIIx3c889d2qUtFEQjCC6cioCIjABCVDO8KODcdppp03aRSTziSeeCH//+9+T4MRIqYwIDAoB3ld+aKo89thjKdrM359uuunSllk0wmVEQAREoE0C1KuUNXSozzHHHHlQTOGl3d+WkcDfFln5KwIjIEBvH42SZ555JvnC/p3MMTRhn0YLdmTGngD5MNp5QafQWIQ79rQVg9EkYAI/QtG73vWuFDSNElYVpgySWv9o5obCGikBKzN5fx9//PHkHcI+7zcNcCvH9V6PlLTci4AI1BGgM32WWWZJnY3YffLJJ1O7H6G/jTJIAn9djui5CIwRgRdffDGfYzjNNNOkQgF1Qxom/Ez4H6PoKdhIgEK5jYK5F7jWOO3FruyIQD8E7L22sobF+5hviHnhhRek0t8PTNkdVwQoN1Hl5z3GvPOd70yqtTS++cmIgAiIwGgQoH5lytw73vGOFBwdkbT72zIS+NsiK39FYJgEaJAwesbHj+osBoEf9R81SIYJtSVn1uliwjf51qYx/wkXocyu7Z1pM2z5PbkI8H7xntHJSKOEBUMxNEgQmOydn1xUlNqJQIA1KEzg571Gg84bzeP3NHQuAiLQFAFrs+EfAj9lDZ2OGNr7tPvbMurObIus/BWBYRKwhjQLC9GwxrC4BwWDCZjD9FrOGibAtItf/OIXaXXVj3zkI4Ffm4YKAsNKrldeeWX49a9/Hd73vveFz372s/kIbJvhy+/JQYCyhh/vGUcWNKMMwvzjH/9II/xWTk0OIkrlRCFARxYqs1a3sgsF77fq1omSw0qHCIxfAtSnCP205ahDuba6lY7INhfElcA/ft8LxWySEqAAwNCw9o0SE/YmKZZxmew999wzHHrooamQPvjgg8Npp52WhO+mI0vFQCXBu8HvwgsvDOutt17qEUbzg73R999//6aDlX+TmIA1RkBgq/VzTkekH6XgnowIDAoB3ms6sniPMWiv8H5TrvJeS4tuUHJS8RSBwSNAh6O18WnT86PTEUN7n19b9asE/sF7XxTjSUKARol9+BQINEQ0CjE08ylA2b/0nnvuSSuIM3oz/fTThxlnnDEsvfTSuSryUJevzMHnvhXAZgc/q+5zj2fkAw3Hn/70p3nDEXWss88+uxWBn/DIf4vXz3/+81z1iwrirLPOCvvss08aqUoRL/3xHo1mhxHhwbTX95V08b6b8Y3uct6YHR3bJcD7bYb8MLVnRiB8XpkdHUVgEAhYWWMjaYzuW3kzmmXkeGUFF7betCkPsJlzzjlzteN+4/3888+Hu+66K3eG+jJaad5YvdZPWV+u0yiv8KeNPCyH5eNed06cqAd7rQu9f6SJXz9cvPu6c/ymLOeIIY6E1QbDurhMlufGFubw5toEfvLCyqU2eEjgb4Oq/BSBERKggkFwtYY1jW2rNKygGEklNMLojblzuLBlIQI3wq7tDW6VF40UfqzAvOyyy4atttoqzD///En4twKXRJQrYWt42H1fEVqi7RnXrLDqt058z3veY9b6PpKfVLb4T7jWeOGcnz3D43I47373u9MolQXq3XMPt9zzcTe7TRyJO34TDsaOnPtwLY2kzadn7733DkcccUSyS2fN4YcfHpZffnmcJw7Goq34E06n78nHH3uTxdg7Q3r5lkzghxP5ARcZERhEAry/vMcYBH5G+M1w35dldn+iH+2bRkDfeeed03Qx0sy3z/XXv/71AqdeeFAfH3DAAUkLzuyvssoq4cwzzyyUt1audyqDza0/mhvuEXeMr3fSjfhX5SdlF/exX+Wm7LZsp1z2+biYWzvyjPj5dod3X35m7uzYzW+zM9zjX//61/D+978/3wru05/+dDjqqKNy7zw7Y8b7UGUsTW3GtyrcQb/Hu0UZhIG3tfnbSFd1zrURkvwUARHomYBVElaI+kLW7vXs2QSzSIF48sknJwHx+uuvr0wdnSUYFhh74IEHwmWXXRY+9alPhe9973v59mI8L1dOsPUVM2H5a3ODPX677LJL+Na3vpVGMD74wQ+Gr3zlK1jpaHwFWrbkw7FGAGFYYwb7XBPnDTbYIPz+978Pv/nNb8Lcc8+d4uAbJdjBP4sn15ybH5zz3OJjx2Shzz9z6+NJeFxbmFxjLI125B7uWaiG/d0tvmgtmH+4JW3mB276NfiF+zo/iIuFZ2EQpzp3ZneiHI295+bfLzjxzN+bKGlXOiY2Ad5Zqx9IKWWRfd/2rU/G99rSDAPWpkEYNHP66aeHddddN9Cx3KvBn4cffjigjeb9soWIfR1g/P093NvP368K3+Je9azKLeUXBv8xXFfZs3sWD8Ixt7jjmmcWf+6VDc99/KxsxR73LQyufThcd/OX5yM1hMdWcDaqTD4RP+JkZb8Pw8fV3+fcuFha7Vi2p+v/76AyFtbhCEP/ftjzpo4S+JsiKX9EoEECVvDbx28j/ARhBakdGwx2XHtFYUiF9MMf/jAceOCB+Q4GRBo1QfYJZ8VluDA/87nnnkt7LcMQYfKEE05ImgDf//73w+KLL15ZmXqmhMe1VbpWoVllyPFjH/tYWHLJJdN6C2xbxm4K3Yz3v5s9wrTwsWfu7IiK5RlnnJHULpmDOu200ybvfBzNf/yyH++VT4/5Z0dz0+vRwoMxfmMs3haOHct+Yg+GncI2d3Ysuy9fEz7xsEaJv+7FDx8Pixth4I+l0/wuhz3Rro0XTDjnZ40S0kqHDMbzTjf0JwLjnACduF7g99/9ZH6frbyEQdnceOON4Yorrghrr712+VHHa8rMc845J9x7770d7XR7gHvKHZ8/2Ld4Wlls19jrln++TLcyjSOmHEa66f7MnrGxsPpxSzwtXNxx7uNuYXDPDOFxbeFx9O6wZxw4N//Mjn/GczMWhh3tPkdjYfHhnmfHtRkLj3DMHffs3OzpWCRg+WN3LZ9g58sme97UUQJ/UyTljwg0TIBC1gpkCgQrFCwYXyDbvYl8pPI76KCDCsI+FcuHP/zhpLKPahojEGhDoJZIQ+NnP/tZOOWUU5Lwj3tWtf/qV78azjvvvMrRijJTfw1/8gRjeUFYM8wwQ8cKsZwf5p+vQIkX9+2ZubEw7Mh93gerUNm7lZ+vXDm3dwZ/Mf65hWFHnps9jj4snvVjzC3HTmny/pl9Hxf/3NLB8052vH3smJ/c99e9uscd4Xr73k+eTwbj08857xAcOIePvTOTgYXSOHEI2Lts7y/XvNf8eMe9Jt3ESXXvKYFHlYHX8ccfHz7zmc/k842r7Pl7zz77bFrTxjoH/bNezsmTclmMO8sz88Nf46aTIX+t3sWNrxdJH27tvfDPOvmHH/zqjJWX+Fl2wzMfZ577a/y2MPz9KnsWd57VxZ9wOxkLjyP2jFmVfR+Pclqq7OveKwSMMVfklZU75KHlYxusJPC3QVV+ikADBPzHX1eANxDcuPTCV0znn39+Wome3QswzM/faaed0mr1ZVXDN7/5zUmgZyR/9dVXD1/72tfC7bffngpTpgEwJ5FV9aeeeupCun/0ox8lbQBusujfxhtvnDQJfve734WLLrooPPXUU+Eb3/hGWGyxxVJFzNZ4l19+ee7H5ptvHmaaaab82k7ISyrOhx56KPzhD38IF198cXjwwQdThYp9FhdkS7+55porrRrNlIX7778/OSedrMhvo/gwYd2A4447zrwPq666amBKAYbKhEYWnR133313useiMMSbjpBrr702XHrppYkHfrGA0gILLBA+9KEPhXnmmSefq50clv58fqCuedNNN4ULLrggpYV8YU0D2NAJw5oJhMsoD/bM7LDDDkkTA7/Y0pDRo9/+9reJBXZQ76eThntmVlxxxRS/8neAH48//nhatJFpG3fccUd45plnUrhTpkxJ6wCggcG5zUE3P+2IOiNpuPnmm9MttEQ22WSTNKJN3Hj2xz/+Mey4444pXd0aQObnRDuWubfZKJlo7JSe8UOA8oKfnydbfrfHT2xHNyZw4bv2woiPAWWhTY3rZAc/MDynzrzmmmu8Fz2do/JPvYVbpqyhnceoJx3r1C3UU3TuU3dXxYPymXV9brvtthQednbddddUr+DnJZdckp5RX7EWzoILLpim+80xxxz59mikA38YNKAeYqDgkUceSYsBU1/SrlhqqaVSG6EqDj6hvF/En3WGqHtJE3U/4VO3zzfffIH67QMf+EDy37+Pdk58fFsDrb7Pf/7zqa1B3USamOLHVIzZZ589+UmbYtFFF61ctJh2AO0f4uC/BRY/3mOPPfLoo9XFlMWyIT5oUdJGIV7XXXddOscv2mLU/Wg/0p6g3VLHqOz/ZLomjy2fW093zDgZERCBcUQgVjRZLJCzY489NosjuNSg2frrr59FwSaLhWwWK+VxFNt2owIL0vvYY49lK6ywQmIBjyi8ZVE1v6fA8SNWSFmsqHP3saLNzj333CEsF1poodwO57HRkG244YYpPMKNnQBZFJazWLGlsPfaa6/cPs9jo6gyTlGITfkZK/WCfdzYLwr+WWyYZLGBk8WFjfL7sdLMYsOj4G9sTOXPcf+DH/yg8DyuXZDFNQtyO6Q3NjayNddcM4sjBfl9C5tjnCaQ7bfffhluOxnyIjbIstigymKjp6NfhBcF+yw2bLK43kAhPN5jDPmy0UYbFZ75+PjzuKhfztziFhsrWZwfmsXGUp4/3o2dwy9un5jFuYrmtHCMjaSUx2affIjCfxYF/Cw2KvP4xR0YkjsYEPfJYEgrnGMHU7bZZptlsWGSeMQ5vVlcxTuLnSWTAYPSOEEI8L7GDsEsdiim95j3OWp8ZY8++mgWO0mHlDETJNl9JYPyeeWVV87LPSsXOX75y1/OqMu8sbqQIz/KDNopvv7xfnziE5/wzvNz3MWddrKtt946i9PzKsPHn7hneRY7wLPYcZ67pTy2MjkK19laa62VuyePY4dz9qUvfSmLI6n5fR+nKKRmsUM8i1oJyR/KNtpf1IlRWB3iJi6yln30ox/Nrrrqqq7vDHF6+umns9122y2LHQpD/LE40J6hzo+DGnk68sS9ehJ34cndx6mD2UknnZRtt912Gefmjz9yn3c7djQM8fO+++6rdOPdcx4HTlLolscWp9j5kcVBlGzWWWft6A/59MlPfjKLnSVdGZmfk+1odWscOMni+hiJI+39E088MbXB7H1ukssrSyrHnJURAREYXwTih56Peo5aD+D4QpB6PuHA6Do92GYY0WbUu8pg3xvY0XvOKsPGkVHgI488stC77d1wTg82o+KMttuiNtynt9r84bqbiYV26nWPAmeIDZl8FNnc4Jf1fsdOjcD6AthDk8CbXsPzbvw5ax/EBk9aQIk4Ycp+MgJB7z4LEbLYYZVhpII1FDbddNOApoT5hV2fFvgy/SJ2VIXY4KnyqmC/0kLpJvlKePwYmdh///1D7IxJGhbl/PFOGS1iF4DY8ZBGbMrvh7fLOfkeOz5S/G1rKu57XpZn3J+Mpo7hZGSiNA8OAV9uWaz5vu0b1/ttVF4p102dHI2s8px8mMHTykTOoyBcqK/NvfmKnSjwpEsr12+44YbwhS98IRx22GGF+g/NLK+dxSj2aaedFj73uc+lke0ojHatSwiHeujUU0/N63vLZ4sPWmKHHHJI2GabbVJ9xeK+1MPUifYuWPpwgwbdr371qxA7QMKFF16Yp8X8s+P9cQQcbbF99903RCHbbicVbluZnZvUX4zSo1HIDjXUb90MWnDf+c530u4HrFWE8fHjmvusuE9d7cPmWb8GXnDgRzuMtRyIJxqLnQz5hHYc7Q7iQdtBpkgAnryf5fexaKu5K6n0N8dSPolA4wSqKpvGAxnnHlJRXBEXDLJKkIoy9mxXqs6TFJiVKz8aHFTOVDyowGFQ02OeIar7VYaGjanE85xpAthFna7sf5V77hF35j7SmECQNIPqOyr8LL5HgwVVOhpJVNKsiFxuIJm74R4Jg7Tgr6kPompHJwPhEj7ciCMNo+WWWy7EUZJCcFRMTKug88IL2CyWiJol0wIwqNWbKiZ+2/y0gmevXqy22mpJrZLGDiqgmDgyENZYY42AiqUZ/KdS5EfYcXQj7bhgKz5jDzXLJZZYIr0XdHDccsstKW3Y50enEe9NHLlJ6qHmd/lIHrDdozVIUWtE9dIaaL3mfdnfQbyuEoxIR6f7g5hGxVkEIODrDX8+2emwEO3MM8+c6gjqS8peOn3NUB5afUWZST0dtaFyoZ06jntRiyI5MbYm5OCeKWqUzUwbMIO6PfUA7vEXO9Q/UQsg5RXXCOXEh3K/m6F+w7DV6yKLLJLqcaYKUE8x3Yw4UVczDY66gmlo1IVsEcs2gqimY+688840HY4ObQyCNJ0DqM9TD3qDwMtUAnYpMANL1kFA5Z16jjTQDrHOczoevv3tb6c6kamInQxxJWzYMSWB+pE2Bar6MGQaAp0SlNNMw2Bwg8EEDNxZ5JjOfdJIx7mV58SLqQJmbKFWwoER7QXWQPL5RDvCpvDRMUO7Ca7sjoQhjUyHIz/ZKcnyPT3UX+JaxmBtj/L9EV/HTJQRAREYRwRi4ZtU+o855pgsrvyeVH2isDopVfrJlii8Ze9973tz1bHZZ599WKrEsRDNdt9999yfWHgm1XSf9V6ln+eo2sXKLIu9+FkUZJOKOirtZrqp9KMGh2q4V+WLFWhSdWSKAarz5HWsvJMqYRwxyOIcxUL8iAMq6bFytyDTsV+VfvxBPT02TpJqO+qrhB0bYmm6AKp/sVLPw46NiAJj2MUOgyzOh8/txEZetuyyy2axxz+9r6SXtDAdhXvLLLNMpcq/qfSTEPzlt/322+fhx7maWRTO82fEEztm4khQNttss+XxIF2o38cGRkoP9mOjLU2NiOscFOyi0sm0BeJppqzSDyvSFuc/Zj/+8Y+zW2+9NalFmior6Zwsxt6R2GgrqPTHTiGp9E+Wl2ACpZNyAZV+1Gb5zqPwkW255Za5Sv8ESuqwk1JW6Y9CYFJJpy6EWVxnJouCb6X/lI1RuM5Qkceulbe+Dvz4xz9eKM+pi+I88Vzdnnoozv/OKOejQJrXA9gj3Dhink8twm4UUAsq45TtXqWfeMR1WbK4bk+qE/CH+oQj9Sp1B+8B9vhZPUgdGAXXVM6RLn60RaKAXpgeiNsoNOc8zG7UDEzTD8xfODIdkHrE6jTeR1S6mXKG+rzZjesDpKkAuafxxKv0Y49wmeqJyj71OH6SJqauxQGGLK6fk/vHFAnqZKtvOWKfb8HyFT9hyX2Ln9njmrxgCoHFEU60l2KnfhY7yVOdij2mQ8T1krJPf/rTBb9jp0x21113FfLep28ynRtX2pJRSyLlI1xNpR+GsGzaSKU/UpYRAREYvwTohWbBHDMLL7xwYYswu18+xsIyH6XlWSxkU2+4jUZwr6yeyD1vVlpppbT9XWykhHnnnTfEjoc00u/tdDonHBYPoifeDCPnRx99dBplsC0EY8WdetyZpoA2gB/ZNncjPcbKOcT5+2GLLbZIIxHEjXuMWjOCwqi9jdATFtoApgnBdax80gi5X3yPkZIT4laHjK6wWwD+8WMxJRbKY+SFRZa6GXPD0Rt/n3z0zwmTRY/MoDKIemPsBEjaF/BkZIJFnuIaAWlkg8UDMbExluLMSEo3wzv2k5/8JKkusqgSecKIDMa/P938mAjPPHd/PhHSpjSIAASsfJlM33U/OY+GFtpethgtI7aMWlOWlg0M0Y6y8pWpdB+OC7h6Y2W71c9MX4sdMLl/U+ICq3FNmjQNj/rJ7DN6PPfcc4fvfve7aUQdP/GDUX9G3rsZFpCLncqpTsAf/ORInREHAdLiduYePxmJ3yOOgMcO7cB2uxjSRp3NaDqj8JxjaFeg1o8WAwZ7aADEzuI0nY97jP6j1r/CCiukeoQw+MEWrmgqrLPOOnndgkYCfnYz1FHEg7oJrUMM/qGNxlS3OC88rzfRWmOhXoyFzXm5TOfanht36lN+aMx5bQXyCc0BeKAxYG6pJ1nYkGe0n8ywKC5TQuA12Q2Mu5lyvnSz288zCfz90JJdERCBUSNghSINAgROM+UV+e1+1dEXnFTECKMm/GG/PFe+7Adz+BEc+zHElbijGsgcNjNMCWDFW+JPXMxQmVo8UR3caqut8grc7Iz0SJpptJF+jA+faypsv8cyaWCVY0sLdpizGEdPOE2GHRLYVcDiTjrw165piKDKVw7L3Pd69O6ZU//LX/4yd0pnBWsz0HjrZOLiSmmnBntO55HfFcDu25FGJnM+8Vvm/wmQvzIiMNEIWHk10dLVZHoQ7lBFx1CvobKPSrwJhxYWc7rp5MbQ6YpaunUUmB3vBvaoh/sOfVTK6XyuyhfuoUJO+YxwiyE+TAnrZhCmEeLLhjKNupGOYW9QbV8hCudW5lkdxDU/dsShM8NMHFXPOzm4BwfWJDDDiv7UQ2V/SA/+0anA+gV0nGOYDsAUN+tEMH/siJu4IF7qsPD3LH4I3Z/97GeT8M9zOmfuj+sJUH+bHY5VhjhaPO05Qjpz931HO50KTKMzY+7Mf9o5TGmwaQGETeeM7yjy74L5MxmOMKp6v9tO+ytfTNuhyH8REAER6JMAlQyFohf2+/GiqkDlnr9PhdPJUFH5Sr2TvfJ9qyyp9Nm6zgyNCLYTInzSVlXhImwyx55eet8IMj+GeyQtaChgLGzPgTjbloBoVMCFRozFlWu2EzRDI4n591VpMDu4RTOCTgZGGJowjHwwj9QM2gU0LHxa7JkdaUyhWUFDlLSx4BGjDSz6ZHlldjkyWsK8SHvG0d7FbuF4P3QuAiIwGAT0TdfnE+U8mlRoPdFJzpxztmP74he/WKgjmPtuGm3M+6eT2QRzHwr1idUdfvtV8oKO8brRbeJAHUQHMO0DtNGsXuPoDX5SnnfLZzp38c/WhGE+PB0LnYyta2DPqVf8Qrcs9ucHE/CrW6cEcaZeszoHf9Gyo66CB7z4maGOor729u0ZR9KKNiIdCLZoLqyiyn/XznHvh50TLozZ0tDYkndxt4VcmDe7/kgc0JCgwwetEAzbEhIH2jkYy7N0ob/WCUjgbx2xAhABERgOASozKhtG2Kk8rMIzdcHh+EmlbJU67ruN3lNRWcXUT1gWTyp8PyKOOiKVN6bc+MANlR9pjmsU5GqE/YTbzS7+2kiLZ+njQuOAkQEaLxjiTrxwyz1rOPAMTYRuo+rYoVFAwwT1Pir6JoztyWx+eXVG4lrmij3umUo+6cAeaaHhQSOvbMhzGqveVPnrn+tcBERABCYqAcpM6i86cOOWhqkMjeujpFF/m+pEvcyid1Z/xDncqdwt19eUpSbsw4uF4MwQDru7VHUSmB2O1E0Iw2ZYpJVwKc/LZTXXcfs4s1p5RD2fjmlrG7DAnI9j2RHheI0BBGJf19sCheaOzmav7Wf3/ZG0s+ieGdKE9gLGBG17Rgc+nQjdBGbiZ+0N3DGyXvbH/Ks7kj4/eEGbgA4H4lzm7f3iOdoaJvBT51L3dtI09G513jwBCfzNM5WPIiACDRCwyoxKix53q3DozadyNVWxfoJihNirlHVT20bNvVul3ylcqwRRx/MVLBW0xblcSXJNJYqxxkcn/4dzH/9pRFm4VOB2zpF4ciyn1+JEWkiXmW4dJWaHI36WhWf/vN9zVB2JOwa/adSQLuJP/Cy+lh7LC+wZe9ySHvOHa2/wwxok5g9hyYiACIjAZCRAOYpgz4g987ARTFnPhRXg0fTiORpgNlpPXYdGQLk+qWJHme4Ngm6/xpfPxKVs6joQiKePay/2ra4ph8W174zgmjSW08n9boa6xwxh+TRyTn3m42x27cjzbnE0e3VHwiIcH386PNCcs/q1kx+koTwF0/vTyZ3ut0NAAn87XOWrCIjACAlYBceIKyrZbFeHQdWd+WTMozM7vQRF77JXFcRfVM6aNlYJM2LuK9wH4jY1jELYAjudwkW1r6wCX9WI6eS+7j5+EUfPzp9791ah0wlBI8g6S1js0J55+/4cu6Qf9camjGdK+IwOWecPaUCI575xt3Qx4uLnQyLQ+w6AqvjVpa/Kje6JgAiIwEQjYHXaCnFeO9PS2HYNoZ+5/Gwvi7YXC85aRzKL5KERgOnUsWqM/Eg55TXq95TzdcaXz3G1+Fwbz+Jado99jNUJ/jn3Ornz9uzc/LLr8pEped4wGl4WfP3zqnPSZCP0VQyr0lHlTxP3CIsBEDN0aNBGKafTntuxqv6nM0hmbAhI4B8b7gpVBESghoBVaDQm2AvX9sZFcGdPWfZTt71vzW4nL6kw2V/ez0OnoWLuO7kbyX3UAv2UAFYSpnfbV5zWi0/8LQ0IyH4+IHGoa2D0E0/zy8LDLedUzv4e94kf9/lNiQs32a4GdF4wZaHbSD9+0Sg0N/g3UsO8RD+VgPmidKLYPcIsd2aQXvZutpEF0oLGCG6Mf6d44bafhmAnf3RfBERABAaZAOUmo/zsw86CctSpjPazyCzzw23aFsI6c/tNaMddNzN7nMJmhvKbHVf8HvSUwVXlMOHX+W3+2tHqM7se7rGu3qCeot4we+utt15a9b9beNgl/fzKppzOTvbK7pq6JjyfT8Q1blOcBmK6hcGUBBb/NUMHge/gsfs6jg6B6mUaRydshSICIiACtQSoOBH4/QJ6bDHDvDirUPHE94Jz357RWECV/7DDDsvDojHCKrPlijS30MDJ9NNPH+ilN8M8tnPPPTcfJbf4Ej8zjEKz9Y2fL8+zJoVO/OrVP+ODfbbfMQPbI444Is0xNNakh7RwtHM6WfzIurmvO5r7sj3WDvAjJVdffXW+SBR2aZj4fOceWgCs7G/aCeQ9i/3VNZp43isnwpERAREQgYlOAM26RRddNCWTUV7m8lMXsxUdhhH6FaImQDdD+W7lNNp7Vs5y7/LLLy/U5fhDWWwGO4RFHcmaLiwuS9lO3WM/s+uP+GH1mb8/nPNu/hCHKbFznC3/zLDAoXU42z1/JE108pMWS9Nw6k3v53DOjR9Hb8ifZZZZJl9bgednnnlmvl4DdstuyGPWdPDaigyy1E2X8OHqvFkCEvib5SnfREAEWiDAojs77LBDPmJOZcg+uYz6M+KPoRK2CovKnXMqHVa73XbbbdPK7BY1RhDYJsc3JOxZU0cqSba6swqORgmaCUxHQA3d4mhxIK4XXXRROProo3PhtKm4jNQf0sIiTL53/phjjgnnnXdezpl00HDhyI+GGwswca+T4Rn55BdbssagcfFuUXFk+yIzNPr23HPPfOV+3FhjDL95T370ox+luJgbGqQ0Xiyedl9HERABERCB7gRYk4Wt82xK1Iknnpim21HeUk9sttlmtYvOUkZjF8OibnTAmmFRQOoOqzesjuA5dQX1OeX3fPPNl34rxM4FhEpvz/waiyNxpL1CvKwOu+6669KUB1vYz9JmdR3rE6EVYWmiUwU3bRniaLyoe82waCHP+HlDXsGcBXjNMMWSbfYsLXbkOefEf5999smfM41uzTXXzNtD5o+Oo0dAAv/osVZIIiACIyDACsGbb755rr6NSvkWW2wRttxyy7QtD5U+vehUWqgYMrJ78MEHp4r0iiuuSCFTAbM9HZ0FLDrTpqHSpEd76aWXzoNhqz40C376058mdXcEUuJLr/6hhx4avvGNbxR6xHOH4+CEkRh+ZlhLYZtttkkjPIy4kBZ+COFs30TesPdvN2MNIkZDrGOERZtQD8VPRj1stWJrhLCdHo1EM4ze08hEi4N8Jw64I2zid8ghh5jVNCeSe23nfR6gTkRABERgAhFAWGePd6ZFYZhSZVulotHm64iqZJcFSqa4bbDBBmm6APYp7ymjzzjjjFSeoxZOZzl1O0Lk1772tTRFi/oeuywayNQ8hNKx7sQlbcSD+mX99dfPt/ZjzjvCL1pxtFtgxo+6Cs2/nXfeOaC1SJr4IfgvtthiVfgauwcr6lyvicB2tTalkOl41KekiY4J1mRg0Uars9FG2G677dKuDdT5DLzQlqHeZiBmo402CkxjNPPhD384aWpaR4/d13H0CGgO/+ixVkgiIAIjIMDo7u67754WvWPkmAqGypPFgk4++eS0TcyUqErHyANbAd11112pwvJB0hj5wQ9+kCo5q7j88ybPqSjp6d97773DuuuumxYbpOeb+eQ0cIjr/PPPn3rAEVZt6xpUznFLZTteDKyYogA7GgV0XGAYmUCwZ5QdNU/s3XLLLek5aaVxiDs6NKqM5cHCCy+c8tUadzSOWBCKhhx2vvKVryRtCfyjw+a73/1uukdDg4YTqoO/+tWvUkcADRgW6bv11ltTp4qFy/uzyy67JM0Ou6ejCIiACIhAfwQQ/hjlpz4wQ72LQMjaNXWG+s3Kfsp0VvSnDkQbC3P77bcH5r0vueSSqbxHgGbdGIRihEoM7tHSo/4xg2CK32NlrM7jSGc/WomsSYBgTx2IpiFCP3UldRv11FVXXVWoH+nM/va3v513gLSVFjixxtAiiyyS6mzCoROfAQqmzrG4MM9Z6BjW5O/2228frrnmmnDxxRendgvtAOpm2jk25ZJ8JK9sCh3+UmcfeOCBtYv8YVemPQIS+NtjK59FQAQaJsAKrzvttFOqLBm9p4KicqVyoTfZ9yj7oFlsaKWVVgoHHHBA2hvYGhveTtPn1pNNJ8N+++2X4k18qWiJMwvO8fOG0Q4qVUatbYsj/3w0z4knP8+KhgCaCOQBHSqWFtLFzxtUBenYYCSAOZ7dDGr2NCBPjOqh1mij0Wdm5ZVXttM0goK2x7777ps6gNDkIB6M6qMZYItH5Q7iCQ1GRiNYYKpulwTvjvMyg/JzXYuACIjAZCPA1Co62xnRxbC2ymc+85lcU6sbD1+nYI/6+Vvf+lYaxWduOEI99QDCJb+yQfhEUEV7iw5eK6PpPPCCZtld29eEj7Ejmmd0YtPuQBuBer9TOwU3c8wxR6pf6QBv08CfHxzRRKDTwdoiaGtYHUonubVjiA/XtLvQSGA6H1MUyCcEfH5lQ5qWWmqp1P6Z3S3OWLan69EhIJX+0eGsUERABBoigFCM6jsrBdODjkBt+6b7IKhs6C1HBZzKiYYE2+P4Cszbb/qcyt0aIszPY0XjddZZJ+1LX27w0JHBVkaowlOZ9iuUNh13/CPu/Lwh3jTqLrjggtRQqKrEyQsW+EPrgl59tvTrZggD1cLvfe97SYBH+Gc13275REOFqRHEg04F4lG2zzVqpzRMUTGkQcm7U7ZXFTefbvJRRgREQAQmM4FyOch8btZ1sbqMdXFMY62Oky9fzS5rAxx55JGBtWFQ//brxZgdBE5U3ffff/9U9iMg4xdx40dcLD7mpukj4VTF38Lxz6kLd9ttt1Svw8cvOGv2qcsYAaejHy01NAOsw8DstHWE1fLLL5+40/5gpB7GnQz26fQ/7bTTkhBP24vOmrKh/YKgj0Ym8/yx10u9W/ZH180S0Ah/szzlmwiIwCgQoMJFmNtrr72S+j6904wwo8pPjzrbxaEyh4CPiqGfs22VdVXDgJX8TWUQQRWVNnqwqayq7LMon19waM4558xTb/Y58kPlDZVFRsZRe3/wwQdTI4X4UeGboIvdulEK7LPAH2nBPpWwN1S4qBIyoo2hUUEasE+DxBoUngWjCj/+8Y/zsGFnxtvjHgI2rJjvd+ONN6bpCKjWkyfMP6QxSLqIG50zcDKD0G3xtnvYQ/Wfzg7UQhllYEoD97GLCqk1GCwuXLMnNNM7mK+PRgCjDMyBpKE1JU6ZIC6kg/w39xamHcljRv9tMUCuiYsZY2XXOoqACIjARCRAXceUMjpfEUAxVg+W02uj8nRmUybTuW5ls7dLZ/YJJ5yQ1Nq5T9laZY9n1Fv4h8BP3cK0LOp0ym7Kc7a7Y0QfQb9cnpugzX2mbjGH3EzZrt23I/UnHdS0HTCEVWdYO4gODwxCstWX1Flls+qqq6aOCtLEdnaowlNfkhbqUupK3Nv2smX35AtcbF4/HeTU18axKkzqPOpo2x2ANpFfoM/cUr+h/UhdShuKetc4dOJGHclaCizCx7Z7pAu3+ElaaAdZG6BTmspp1HX7BCTwt89YIYiACDRAgArdKjarrBBk6ZXmh7H7HK2y4hy3dk3l2UmIY3Vcs9dLlKmsvZDv3RCuCawc+VEJU2kvvvjiKa723MIknlTQqKmboQFWrjQRaJm/6NNifCwsOhjMX+xxH1NOu7ljVH3FFVfM7RlLi4cxNLY0+OikKDc8LBxzR0OQxoQZ/DE23OOaONnROi98+D7OpIV0WTphwWJR/Cy95i/X+OPDs3jYEb9JhzVY8deHbfZ0FAEREIGJTICykB/1U52hvKbu8/Uf98rlP0I8I7xmfBlt9+xo7meaaaY0Gs7oc68Gf3GPoU7iZ6auDkCbgJF1c98tjvaMTnc6lMvp9dec4ydM6ejgx2r33LP4mn8WtsXZH3FPJwc/jKXHzn2YyUL8Qyhfdtll8zqx7L/VcYSPezoE+HGf8HoxtLvohPHG/CU8/OW6Kn7ejc5Hh4AE/tHhrFBEQAQaJGCVJF5ahcLRC8B2vxysd1t+5q9xj+lWWVmY5qe3yzmLCtKjbwZhdsYZZ0yXPLcfN0wop/fftAy4j6YCjSZMOX2+YvZhW3ySo/jHdRUPC98/8+fmHnuExTN+VOb88Jdn3PPGrqsq/XLccO/TZf6YW655bmFVpdni4O2ZPzzDL+LEeZUxdxa3Tvaq3OqeCIiACAwyASuvu5V7ZTu+HCbtVoabPePBNT/85mj1htk3e1YGc41dfmbHu8N9OWzzw8pvu+73aO4tvt3cE79ucTG3lm472v3ykedlY+kv3+fa4ljljufl8CxtPMP4a/yya9LEz/y14yuuOv/jhzfkEf7IjB8CEvjHT14oJiIgAl0IUCFZBeIrIe5ZA4D79vOVpa+MrGKrCso/w19/XWXfKjXz38eLc6YasMAcq/Ri1lhjjXDSSSclFUCLs/nLNWp+zI+zVe0Jn9EW1OAx5ob7hFkOz/zy9+2exZGjT5edk15+uCUc7wdufHi4MXf4zzluzY6xwx9/3+Lij96fqvsWJ4sPYWC4tvA454ddM95f42bPyse652X7uhYBERCBiULAytG69HSzZ2UoZbCdm3+UzVYeUy9jzA5+8rNrprOhsu7DsvMqvy2MbkerK3Bv8ehmv5dw8JM4Y5dzfmVj97CDsbDLR55ZGjk3Y0zs2o4WNm6q3GGvU5zMD3/06bW4WZwtDWaf8DDkkTfkK27NPc/8ubkr++f90Hm7BLRoX7t85bsIiECDBMoVCl5bpWiVoAXX6b49rzvivpfKyeLkKzf8poJjISLUxc2wnQ1zzhHseW6NH45UsJdddlla+ZjVbzGo2bNCvaXF/CFe5fDsWdXR2++UJvyjEi+H5f3DbafnxgH7np2/7/3q9bzs3l9z7tNTvu41DNkTAREQgclKoJdy09ch3TiV64eyu/Jz/CqX4XaPeGE48qtymyw0/NdPOD7unaJh8e/0nPvY6cUv70eZrX/Wz3lVenuJsw+DtgNuZMYvgWIXzfiNp2ImAiIgAgNFwAT+r3/962nxPLbl+dvf/pZW7WXFfhayY6Ee5toxon/JJZeEM844I7z88sspnVSe6667blrxvqmE99ugsHBxN1y35oeOIiACIiACIuAJlOuVtoTGtuqwcvx92ibi+XDTO1x3E5HhWKVJAv9YkVe4IiACE5IAo/VUbozY03hhW0BU+9lRwFbfv+666wI/Fr5jQT5WxrXRfoOywgorhK233jqfx2j3dRQBERABERABERABERCBXglI/6JXUrInAiIgAj0QQD0OQR8VN4R+dhJga7ojjjgiLLnkkvkCfHjFivxsI+eFffbqRSvgrLPOStv2tDXi0UNSZEUEREAEREAEREAERGDACWiEf8AzUNEXAREYvwRsYRv26WVf4BXjtneo7vNj79oH4r7xzz//fNquD/V+tgZikT+202HPXKYF8JM63PjNY8VMBERABERABERABMYzAQn84zl3FDcREIEJQcBG6dlHd9NNNw0bb7xxLswzum9aAQj29iPh/nxCgFAiREAEREAEREAEREAERpWABP5Rxa3AREAEJjsBhHi/Ki4q/zIiIAIiIAIiIAIiIAIi0AYBzeFvg6r8FAEREAEREAEREAEREAEREAEREIExJiCBf4wzQMGLgAiIgAiIgAiIgAiIgAiIgAiIQBsEJPC3QVV+ioAIiIAIiIAIiIAIiIAIiIAIiMAYE5DAP8YZoOBFQAREQAREQAREQAREQAREQAREoA0CEvjboCo/RUAEREAEREAEREAEREAEREAERGCMCUjgH+MMUPAiIAIiIAIiIAIiIAIiIAIiIAIi0AYBCfxtUJWfIiACIiACIiACIiACIiACIiACIjDGBCTwj3EGKHgREAEREAEREAEREAEREAEREAERaIOABP42qMpPERABERABERABERABERABERABERhjAhL4xzgDFLwI9Esgy7Lwv//9r19nsi8CIiACIiACIuAIqC51MHQqAiIwYQm8bsKmTAkTgQlG4Nprrw277LJLePnll8NUU001wVKn5IiACIw3AnQu/ve//w377rvveIua4iMCjRA444wzwvnnnx9e97r/Y+9M4K4d6v8/ZYlC9mTJkyhC2WXtQSJLlrIk8Vgj+5KthFSixZJ935dIkS17lKIsiWyFlGSvyM9SXf95f+tz/nNfzrnXc85z7vv+fF+v61zbLN/5zHVm5rvMzJTprW+1DawtoDoRI2AEBkQAZeMbb7yRXnzxxQHDtiOABf52oOg0jEAXEHj11VfTE088kV5++eUu5OYsjIARMAL/ReCVV14xFEZgTCLw0ksvpeeee25Mls2FMgJGwAgIAQv8QsJnI9DjCEw33XRpkUUWSRp828rf4xVm9ozAKEcACz9E22MyAmMRgVlmmSXNNNNMYeHne3e/OhZr2WUyAr2FAG2NPOieeuqprlj5LfD31jdgboxASwSWXHLJdP3116cpppgiwuB+6MFJS7j8wggYgREigDu/XA5vvvnmEabm6Eag9xDYYIMN0r777ptmm2226E8l9Nu9v/fqyhwZgbGAAG0M7vyvv/56ev7559OBBx6YzjvvvI4XzQJ/xyF2BkagPQgg3DPPEIGfw8J+e3B1KkbACPRFgMEIgxLaG8htTV98fDc6EWgmxPNtTzXVVNGn6nundP7mR2cdm2sj0OsI0LdyQFNPPXXX1g6xwN/rX4b5MwI1BCzs1wDxrREwAm1FQIKRBiVtTdyJGYHJhEB/K/LbY24yVYqzNQLjDAEpE0vBvxsQeEnSbqDsPIyAETACRsAIGAEjYASMgBEwAkbACHQZAQv8XQbc2RkBI2AEjIARMAJGwAgYASNgBIyAEegGAhb4u4Gy8zACRsAIGAEjYASMgBEwAkbACBgBI9BlBCzwdxlwZ2cEjIARMAJGwAgYASNgBIyAETACRqAbCFjg7wbKzsMIGAEjYASMgBEwAkbACBgBI2AEjECXEbDA32XAnZ0RMAJGwAgYASNgBIyAETACRsAIGIFuIGCBvxsoOw8jYASMgBEwAkbACBgBI2AEjIARMAJdRsACf5cBd3ZGwAgYASNgBIyAETACRsAIGAEjYAS6gYAF/m6g7DyMgBEwAkbACBgBI2AEjIARMAJGwAh0GQEL/F0G3NkZASNgBIyAETACRsAIGAEjYASMgBHoBgIW+LuBsvMwAkbACBgBI2AEjIARMAJGwAgYASPQZQQs8HcZcGdnBIyAETACRsAIGAEjYASMgBEwAkagGwhY4O8Gys7DCBgBI2AEjIARMAJGwAgYASNgBIxAlxGwwN9lwJ2dETACRsAIGAEjYASMgBEwAkbACBiBbiBggb8bKDsPI2AE2oZAVVWJo5dppDy2Kl+r5+3EYqS8t5MXp2UEjIARMAJGoJMIdKNfhX/1ra3yG+h9JzFw2mMfAQv8Y7+OXUIjMOYQ+M9//tOnTOoo+zycjDcj4Yey1cunorR6rvftOJe8dyO/dvDsNIyAETACRsAIDAeB/vo53tEnDoUI3yxN9a3N3in9VnH13mcjMFwEphxuRMczAkbACHQTAXW6b3nLW9IUU0zRyJrn//73v+N+yiknX5NW8vfWtw5fl0r5OKAyTe5Jl7IqfYXjXbtIabcrPadjBIyAERguArR3tHNqC2n7JYSV/cBw03e8vgiAc71foQ54Pjn7V7jUN6Bzu/qqer9KXnUMeFan/r7DZvFLfst+nHQJr6Oej++NQDsQmHyj43Zw7zSMgBEYVwjQwWqQJy05nWjZkU4uQJoNlMQLvA6Wx/pAgXQ5FF/v+8tP+Y7k/Oqrr6a77ror/f3vf09LL710mnXWWUeSnOMaASNgBAaNAG0mbZ3aeyLS5vEcYal8PuhEHXBABMC3xLZ+P2ACHQxA/XeC1JcqfZWZ749+l+cKU+avPrl8xrX66Ppz3SstvuP77rsv/elPf0qLLbZYmnvuuQeMqzR8NgJDRWD4Zqih5uTwRsAIGIERIEAnykFnrI6Z5NR5tup8R5DlgFHJW4c6ed0PGHkQAUhT5WJwQNlVfuVHMvU8uSe8nnM9FCLeLbfckrbccsu02WabpW9961tDie6wRsAIGIERIUD7hsLxJz/5SXr99dejLSNBniOQlu3fiDJy5D4IgG3Zd+jlUPsQxWvnmTovD/WHI82DPpZ01V/qulX6CqezsCG8rgfiiTx+//vfp0mTJqXPfvaz6cADDwzl+kDx/N4IDBcBW/iHi5zjGQEj0HUE6Jhvv/329Nvf/jYE4bXXXjvNPvvsIQSXVoluMUbnrsHCM888k6655pr0xhtvpIUXXjgtt9xywRfvOYZL//jHP9LPfvazdOutt6Y//OEP6eWXX07zzjtvWnLJJdPHPvaxNGHChEiawQeDCOiee+5Jd955Z7hgrrbaammeeeaJ54P9IS3SYEACXXvttenwww8fbHSHMwJGwAiMCAHasgceeCB97nOfS7Rhn//856O9m2mmmaJdVeJq83Tv88gReOSRR9IvfvGLEF5XXnnl9P73v7+P1X/kOQwvBbzNrr/++vS3v/0tzTnnnGmttdYatIDdX47/93//11AuPfroo+m5555L7373u8Pqvsoqq6RFFlmkTx+OYP/444+HUpwxwPLLL58++MEP9gnTX376ZunPf/Ob30TQn/70p1GuGWecsb+ofmcEho2ABf5hQ+eIRmB8I4BQSMcnQZuOT9eDRYY4dH4IxPX0WqXxox/9KH3zm99Mb3vb26LDfde73jXkfFulPdBzygufKmcpzDMA2G233UJLv8cee4TAP1B6A71HibDffvulH//4xzEIKcNPPfXUaZlllgksVlhhhYawTxgEdOK94x3vSBdffPGQBX7qZKWVVkoLLLBA+stf/pI23XTTMutBXYMVNBJlR6lQGVSmDjTZEFBdUe/UuQa1/TGkNkNnha3f6/lQz2pT4Kdsq/pLR9+twuj71XPd6/1wzsZqaKjdcMMN6Ve/+lVaddVV0xe+8IU0ceLEfueTq97VTg8tt/aH7u97Hui7avZe389g/mPDKc1tt92Wdt5554QgfM4556T3ve99jT5vOOkRZzh1Qjk1PiAN+sODDz443X///Wn11VcPgV913B/GxC2pxJR4WNfpJ5944okyWJQZZcehhx6aPvWpT8U7YX/33XfHt8jUt+OPPz4E/j6RB3GDYeAjH/lIKBswXsw888yDiNW5IMOpo85x45TbjYAF/nYj6vSMwChDgM6v2SBWHag6OIpF51uGL+NxrTh1CHhOXA46FQ46auKo8yVOmV6rtEhjuERe5E0+/aUjnsRfyTt5kwbPxK/KVOeL98KP8GWZiAM144Nwr732Wtp3333TmWeemaaaaqq07LLLhsWBeFgFsOBj+d9uu+1isMLgoRlRFg7xogESYcUPaarMvIcnBiLkgzvt9NNPH0krnHDhIdfNytDsGeHJh3fl+xIjwohI29TbCKjuVFc6i2veU9d6Xt6X34DCcyYs4Uoqv9vyOdf6LrnMbrtLAABAAElEQVQmnO5JR/nqTBiI9Ms0dS+eSKMknvPsX//6V+P75b5MowzPNe/LdLkeiCfeiweF517P6nkQnnAlDcRT+V+HR7UPwkhn0tR7pVneiyeelcRznoEVpPR0LsPqmvB1rMp08XRC2cuBxX/HHXdMH/3oR/usLUL4elmU/uQ891du+FKbyLUwVR1xzzVl0zulp3qnboSVwpAWJDxKbOph/hvyv/8JpaNnnJVf+Yxr8ie8FvMTP7wrvxfuoVbp/Pdt399mfPQN0feuWdpKQ+Wt39O3HXnkkem73/1ulONDH/pQeM5NO+204V2C4gMvk1122SVNN9106eMf//iAZQADeFGefbn8753qE089LPv//Oc/UyvLPumRVlk+ykEawphU62Vrlu9Az8T7QOH8fnQiYIF/dNabuTYCbUeADuT555+PRWSefvrpNNdcc4Ur32yzzRadCR1K2cGUHdorr7wSHSMu4FjcF1100YTrJVTGIw8E2QcffDDeERbXuZdeeim09mjY6QQXWmihNMMMM0QYfojHgSv/U089Fc+5f+ihh0IY5sF8882X3vnOd8Y7fui8yBs3QNzTKdsHPvCB9N73vrchwCqcOmjSoyxvf/vbgw+eY7lH8IUfXPvgtyw7aeAG+PDDDzcG3lgisABA4IBLPdixQA8Wc6znDCrKTjwCFz+4VV533XXxhOkBZ599dsNSD8577713WP4ZkGABQ+BnOgFlKDGCN7kNwgdWBMpI+hD1i3vkCy+8EEoEcMSqQZ1QdnCknghDuRkk8RzLBniDJ3VK2UjzPe95T3gGyFohbCOz2g95wBuLFpEHA65ZZpkl0qMc1DH3pGnqTQT0X9C55JL/H8/L77xsQ8qw1DWksEpP97wjPYWrp0N43peDVqVB3JLKMHpeT0/PCcs7pc81+ZR8iSfilM8JR3je81z86Kw8OBOW5+W7VjwpP+WlOLpXeqQpHsq8CM/zEgelUYbjmrxKPghX3pfhm2HF+zJtwui+zm+JFdcKV+bBNe3dr3/967D44+o/MVv88fgSbyo3vPNMRz2dbt2rHPCF4oK2jTactpe+jj4FAhsJz+JNZaKNpS3Huo3nFou8sZBqiaHqk3ITjjPK2vnnnz+s9eRLGz3HHHNEvuRfEpjTx9K+Exf64x//GP0n1/BJXBG8USb6WPKjHaePwb0dAVllIYz4pI+nL+YdHmR4qhHv3nvvjXqij8ajgDj6HsiPfpO+jn4Hou9QHwseE/LUNtICI/oi+syBFpqln0SBRF70Y+edd17gAq+49R900EHphBNOiP708ssvT7j3kwc4lhhRJvHCFENwoi7gF6UXYwD4g+c77rgjhHum5FEWvgP6bfpLLdoH9qRPeMrGmAjiGTiRHhjTZ1IH8EsZVGfcc8AD3w11Di98C3w38Efe1C1n8tC0DdJRWuBvGkMI5Io1GQEj0EMI5Ea6ynPUqlNOOaXKDTSmk2rSpEnVX//61yo3zlVu1NvKbXbbq/K8+GqNNdaocmdW5Ua+yp1FnMk/u1BWubOo4Iu8cwcW5yz4VVnIrbL2u8qde594pPOJT3yiyvMAg2fiiLKwH2Fzh19l63T1ne98p8rCdJ/4ueOrsua9ygOJiEa+YAJvuYMLTMCFex2XXnqpsqgo089//vMqu7pX2TreSJs8s6Bd5Y68euyxx6IcpC1MCU96iy++eJU7/yoL+BVxhEfuGKstttgi8Ghkli822mijiAdPHPAovjbffPMqd9zVlVdeWeVOPZ6TRolJmRbX8HPBBRc06h8sIOoA4n227ld5Qb1qgw02qPIUh3jONwJ28CtexDv8nHHGGRE3DxqCD7DZZ599quy2WWXhvcqD5vjuSCzPlazy4C7CgZcoD+yqLJjH8+yGWJ144olVFsjjXnmB09e+9rXqz3/+c5UHM4oaZ+7zACm+G74v+FK8bOWovvzlL1d5LYQGVtmS1ye+b7qHAN8Z/yXqi3ZA39W5555bZcGlog0gDN+l2gVxx3MdelY/6z+guIQviec6eK706uG4L9NQOPFVpql2rJ6GwvC+POrhlCbfsd4pP90rrf54KsO2iq90OJOWzgofD/73I5wUTmHKfAjKfX98KU3CCSs9q59LnJqF1fvhYEVetEtqx1qdaT+ye3f1wx/+sMqCZLDYrIy84HslTPaainT5nrPrepUFvwa+kUCbfyh/FqSrbbfdNtrYss3LyuXqk5/8ZJWnLPThgTJwPPnkk1VeNDXa57Ivou3OQmOVp29V2UIcHCsO9+prspBanX/++VVW2Pbpy3ifp31F+vpmSCQLpo3/OZirbYbn7Nre+OYZi2Qht8rTvd40bqAf2XLLLavf/e530f6rPkh/++23jzY/Kxuij11zzTWDL9LnYOxAv5LXrCF4EPGzK3+813dQ9rETJ06MviYrgaosuEY4sAF3SN9h3BQ/jBHAhTQZiyi8gsD/VlttVa2//vpVnqYXbSHvllhiiZYYgSnY0BdnwTp4oX6pp6xUiPu99torsmD8lJUx8YwxAeME6iIbXOKbBo/saVedfvrpVVbo96k/xjHwTBqUDxLOnLPRofr2t78d30H53TBWI6+sNKuy8B95ZwNExNcP8TlMnUMAfLPhpcrKriqvUxLfIGMw2ia+A9VpOzmwhT//001GYLwikBudsJbsvvvusSBcblzCUoIGGQ03GuYs0KXc8aXcEDUszIRDy50HMGEVzp1UQJg7ltBo58YqFrAjzGGHHZY23njj0DbnDizC8R667LLLUh6MhEvbNNNME9poeMqCYjrggANCe73TTjs1LAV58BHpROT8QzpKU8+In4X/lAXH9Nhjj8VjNNgcWN7hFZ5uuumm0O5TVhHpcaARB5Nnn302eMClHss2rndY2lk06KSTTgoLDRp2iHxF4CPSNRiCJ+njcZAHF2/iXXFIk7Iq7Uez1aIknjNvnwMiTRHx6rwoHcLoWmVlocEswIWVhvoTwbfC6BlnnoMh71hAEZdEFhKkHkib5+D01a9+NSwjRx11VBk96iQrGRIWE/EJvsQD1yOOOCLdeOONkSbPFKZPIr7pGQSoc76J8n/IPfVWfsPNGFYcnetheE46pAfp262H43k9DeLwHB5EfE9Q+UzvdO7vXRmX/4DyaMVXnSfiE6d8zn0vYgVPlKtV2UosuG5GwpK0RK3SKzFR2MGcqVM8obCcrprn+O+www5pYrb4Y4kFWw7xMZj0OhEG7y9WYsfyrLrGOoulG28r2kKst/QpTKWCwIn2MAtnKQumDcs25aLM9B9M6+L9F7/4xXA7B0OVlTAchMGLCg8u2lmI59zT1tJ2Z6V745skPpj1R5QBD4ssvIe3HvfwpXEDVmXm/mONzkrm8PhT/RKW/F988cVEP4DlHlIfy7usHA88rrjiioZ3F3gQV9SMR8YNpEcalJk+mz5NmChumY74YqxQTxPviyxsN+pM8esYkZ7SKb83+ODAa4JpARqPKB/OCkMaSkdl5R2Webz5qC+eCyfWVzjttNPiOWsI4FnAe/jgu2E64IUXXhieHfDNc95T39QNPIGX8lfZOBPONAYRyB+cyQgYgR5CIDfAXbPwY4FdcMEF6d3DmpvnsoV2Gc1jFtarT3/606EB5j2WajTguVOqsjKgyvPZIh6aZrT2uYMNzSQa5/3337/K7nTxHusv1g3iQVj4SU9HXgU4tPm5k6pyZx0W/+zGHe+ze2CVB3IRj/hYLnLnF++wBGRhM57xXNr53KlWufOLMO/NGvXskhd8USY09nlA2NDO77rrrg3rCJmgTRdfeUBWnXzyyaGpz4OTsHij2ed97nSrrDRoWDjR6N98883hqcB7rEbwxCGvDPLOq+qHpv7YY49t4BGFa/KDVwXaf9JDKw+meZuqsKwKS0Xjm4F4TjmzsB3xsB7h+SBehBEWfpWT87zzzlthSceTAD6hPIiusMLwPi9qFM/4yYPWKrsTNuKDSV7wqAKjPCgJDwFwJ14eGIUlQZGzkFRlF9yGBwQWhqz0CWsEVo2LLroovAfygKORPuFNkwcBvqdmFv7sclvlBSPj/8J/Bi+Pkvgv8x/gnQ6sUVi9SsLyqPecs6DWx7LHd833mBfM6hMOS2NJWG6xrJVp4f2SFWVlsPgWyzBcX3XVVX3CZMEr2royHBY5/scQmHBkYalPfuutt160c2Viv/zlL6s837xPuKw4LYNEW8p/r8yPe9rYkvLgvk8Y2hI8qERgxf8aa2KZFtbhkqhPylOGweKHF0dJeCSVYfJK5NEGlmGyO3JYeMtwWdBoWKqF1SGHHNInLeqT9q0kPJbynPw+4bKQ3GgHyvaqv2vaZvqm7Kod1nzaHPjgnAXRrlj4yU9tMvW4zjrrRDnoK/Fgeiz3UbTTWGHxnMnK7niPZxn1A+FBw3+IstIe4kVGf4fXG1Z/+mq1s1jUs5I0yklc2nushcKJPl54ZCV2hYeO4uJVRfsNzxB8ZQGywRPfnfoP/meE439MnZM+ngJf//rX4xnhspt4/Bfx2uM9dUF7IMLLQXxlBUGVFfthnae8ec58xf+I95SZcUUWUCMqdUf/l4XweJ+VOw2+wAy8ZS2lvFjkVSblrTPPORj/8P9UfrRRfIf0Za3ikgb50Xap3rJSu8ELfBIXjDQOIX2uGUPRblBOKBsWGvXAOzCA+C7EF3EZQzEWoY8ES9os+k4w4jj66KMjHj9858ccc0zjXZ42EWMgvFgoF/9r6oR4pM3Bf9vUXQT4Rviv6ZulHjpt4UejZTICRqCHEKDjolHvtEs/HQNu17h70dgwiFZnBQ8cDLbzXLgqz+ePc95GJgTrbIkI13ji4Y6EC1JJpJO3cYt0s2Y5BjUKUwr8E7L7INMJyAt+IOLiZk480j/11FPLpEPw5TmDHOIqHoFIh8Es7zlwiy/fE4YBBC6gvKcjVefLOw1iUCbgJi8BmcaZAyEYRQBxmbKgMhGXwb0GWQw2mhEDNQa6Eh6ahdEzcGAgpY6ZMwoAlDBMg0CxorJR7pLgHR5xra8LNIQrBX6EenCqp9FK4MelH/dC0ocnFB1gI4In6gxhnzAoaETkywCT53muZrixEpe8lcZNN91U5XUEIgzhGPTVeVN6PncWAeqEwW3dpZ96KQ+EGEjfI0IOrsRlGNoRBjcl8R2XYfhe844UEYQ6Jz3+VxJOFHZSnuIE8Z7/KP8VCQoKwzfKt0o6+n6yxatPfoTNHjuRln5on5iyonQ4I7BJECM/8uW7LMOgnEQAJy+F4b8nwUdhv/GNb0RWwgol54orrtgnLZSgdeWIlHhKh/8RU18gYYUbNG21wnBGoISEFW1W3s6sTxiEB7kGCyvciMt0+D9///vfj7T0gyJXApjCMsVIZQMHDoQZveeMwgj36xIrFH8IxGU4KZXLZ4O9pi1GsfCTn/wkvg/yQmDthkt/2abRtqKwhW/c32n7hTE4InTSpvP9cKA4h8r2l35JCiDS5gBXpjGo/6Y/QpiHSoEf5fkll1zSJ0/CML6gn4Ov7CEQGPEcQshXXaAcKIm8S4UAymApAigXB/+VvGNNpM20LRQKIgn8fE8o38s+lDAo6fg+4Au3fMYcIowQ6nvow5sRSme+SykKmoXRMzBEIS4M6c9ww0dpdlCexpY98QJnhS/PlEkCP3jUqRT4addwr6/3+3WBX1iUAj88HXfccX3qD4wR3KWQZ1qECPzUfoE9bQT1A+l/SRj+8/ovWeAXet078z/qtsD//33dcs2bjIARGD8I5M6l4Y7PYjFbbrllw+0rdzLh1pU15bHvbR4Eh9tktgSHS1gejISrWNbuhzthHtD0AQ63M1wNl1566XAZy/PFUu4A+4ThBpf03IH3cdXD9SwPXsJFjTBZSOTUlHKj2cf9LGuwo0wEZpE50mdhnixox5EFl3CjZP9eyshzFs3JzXyf9PPAK1aChhfeCQ8WlWOxHQhXuzxg6BOv1Q1pcOB2x0JF4DMQEYZpBbjfUY48wA9e8+At3PXgAzdRXBdzRz5Qci3fs88yeOcBWMswrV7wfcAb+Ii4Zhs/pmhAWWkUrpVcZ+VKTGvgmqka2Tsgvg/iqA6y8NP4FgkHlen/94l/exEBvqE8GO3zfx4un9Q56fVX97znP9ofEZ+D/4i+sf7CD/SO/Pr7r5DXQGHIQ1i1gyfyHCxWhG1FvONoJ1b91Q95DQarVvz295yF5H7wgx+kTTbZJLZVy0qh/oK39R3loj7Ake0EcaNm8VEWGMyK6sCYvguin2KaGC7WtJUsxgbh1s6UMqai7bnnno0t21RHhFl33XWj7eY6W7+b9pUsgPfRvJtBnWj36Ysgpt5lIb0epOk94ZgmkIXX4IlpFCzyS1+KOz1HVk6kvCZQYEDZ4U3lVaKUC/45i2g7WFCOuFBWEIbLOv+Rgf4npM9BPwmGZbpKX2eF5dvLwn1M7WNMkAXoGKcwxYKt+OjbsidNbP/L9zMQD0q/fqYOGF8x7WGoxFgkK74CS8Xl2wJ3xmMQ4zPqhXLxDVEX0Gc+85nYvpBpDZD+28RjmkB93BaB/DNmEfj/EzbHbBFdMCNgBJohkN3HGvPnsgUtOkg6QDpdSANIVqwvKVsPYnVXnk2YMKExECnD0DHSmbDyKwMeOm7yqxOr6GZLQjymM4LggedZOx3COgJ7K4JHDhFz9BlsQFl7mrL3QXSCSpsznSKKAa4pKwI/zyB16OTNAK1O2WrUWPmXvIRVPVyze6XNu/K6WViFYXBIp82AjTmTHMxvZ8CFwiZb3GK9AQaMKE6GQ8wlZXBEWcB+KET9C1vFo2zwjXLj8TwvlQEf3wyDHeayCjO2GdQ3JvxJg8FJtj5EGtQh6dfzUF4+9xYC1NNQv6FWJVCd69wsnN7p3F+YdvPVLC+e9cdLGYdw8DSYtqCM1+xaeeo80jC9hlWz8gzmGbuqZDftEOroZwaroB1M2oMJo/6FsLSHCJQ8K/ss6gzeONQGc0aIg4iDgNasbvl2UPxmr5jo05op1enL6LcISzurvOmfSRtCsTBYbMr+HyE4T6VpKsiiEIBn8kTRTn8FHyIU2uwEVJaL747wGCAglDb0ASXfit/qTNgyzVbh9Jw8UXhnK3fK3kSx2j59bPbWiX6LNWomTZoU6ysg/A+HWNsARcRwiP65PgZDkUQ/ibIIoh4Y0xCWefkaa+VpV/G+xEPCPzs3MMahfzaNDwQs8I+PenYpjcCbEKCToBOGGBTQ8dUHI7qnwygHpnSqiqcBRDz43w/PSE8L4mWXsui0yzCkSRhIaZAfz8t3yquMW15rIENaDEYYIEB0eizkBJW8x4P8I227NPfkKaJT5H35jHfkMRjrvNIpz2WZyuetruGZOJwZGHFk1+IYYOFd8JWvfCUWXMR6wj7Cp556amAsTFulWz4nfQYiQ4lTxkew1wALPklHdVkfpFC3DOBEeIdA8KA45bvh8qQ0fO4cAlid2KZS9cZAsyT+IygRpXzjHVYuDTYVFsUeW3iKEHpoiyC1BTxjq67SGiWBgG9O7QNCUZkWA1q+T5G+9TIM7+oDcf73WD5JW1QKXBps838s02K7MniF1G7CM4q4clAtIUtpkx9bYZb/De7rWCEwlvmBkzARVvzn8LrRf4s8JBQIK3CYkBV1ZVqUV+0hcQhDGmUY6roU2AgHvih1S17zNCleBQkr6qtMi+9HHkDCivIgoCMoiup1o+f9neHpwx/+cJqUhbQ87z36oMnVlvBtsjAfxLcBb+AIvhx14pnw0HdNvHpbSjyVSX0sWKsvK9OlXqkf6r/8pomvvkx5lfFaXVM/+lbpa1mAtllZiE/6HPBWzwMcwIPyqizE4VrfBveQMPvvXfNfwlC+VtiWsUqchQs44lmANT1PRwhjCAvP4iXyWF7QL0/FCYt/s7oo0252TdqUqxVOzeLoGfVH2UoSXnWcSJ+2Brwh/sOUD+xJo0yH/1s9fpmHr8ceAhb4x16dukRGYFAIMFhkEIkLGC55aPjVkZBAs86TZ3R4DOCwMhNPwnzZmRCfwQfaZoiBYjmgjIdNfpS/zk2CvOkRnZzCI0DQyeU5arH3MEIxBN+tiJV467wTlk5SGChumc5QO2/iNstHadfPKlP5nIEb9bbUUkulvBhXWK4YjLBaPvw2i1PGr19TBh31d4O9h6cSC2FUPiMteJuQBQ0wgFd2QkAo5J6w5cDv8ewZMFiL02D5dLj2IYCLMdYuhBHqFeFfg0pyYTCZ158I4U3PGdzz/ywpz7tPuBaL+A4UhmsOBPc837gxiCWs3HV5T/58Q+zqkdfOUFIhaNS9dJguot0h9F+sh0GQz4teNaahkCDllHCkeHlufExbUob8D8S7/odYX1kpGwxEtIXChGcIA3nNjcYOJaQPVnVhF9d0uToTj3DKT1gh7J+RV0XnvySiLiBhRdq0i6ULN21zqSQgfF40LDxtSl7rygoUIXl+cZ//KlgJI535XnBnF4GV0hJWWCPzvOg+bTU7iODFNFhCYbDNNtukvI5Aw915sHHbGY42ENwoGxixyj5CMsIYz6kLsCnbPOUvPFDC5K3cYsV1rLd1Ig2IdhQCd/6Heh4P//czmL5H+Zbxml3zPdH/47mHMomV9uvfTj0eGOg/W3+nfIVFK/6bPS/TooxKo3ze6pp862lSN3yb8Ar+7OaDd8Itt9wS0xIY0wxH4Cefel6t+Gr2vPw/817fVpkm13xTTImAR4wffBvCt54uYzd5AtTf+X5sImCBf2zWq0tlBAZEgIEnAtfNN98c7oN5cZzGAFKR0RTnVWtjoMJAkUGZOkM6GOKg4S+tOsSlg+IdbnEQAzENTuPB/37KDqt8PphrOngOSGcsjbJo0aGhrdfAsgyHazmdN4N4rE3woSMSzD/NeNMAVmHEQz2s+NEARGnznGu9r8dTupxZJ+F73/teCE158anYAonnSguLKQMtBH7N32vWuZc8cs1goVOk8rVKH8sbPMJDXpE/IYChwCjj5QUrU15oK+qnVTp+PnkR4D/FIB4LEf8h6q8k6hiLt563+s5pgziakf5r5CGLfrNwPCP9upcBz5U/1xDfmr437pvxhfCrNoQwdRJftGfN2rQyPAPvettY5wkBg0G6njfjiTRRANSVAMpLPIEV7Vl/RNjBYIVgxwFfrXgCKxQkrUh88b2U7XCz8PQrdaGQuhqI6JfwHmDNmLz4XSixm7WDA6XT7veUnbql7wM/lN/0lbSBELgShj4272cf09d4nhfoizIQjvdMHaMPZj658CQcbSgeNCgFIOqh7pnCc9Uf4bluhQ3vOOpUPqcc1BFKOK5RRKDUgreS6Pc0jQ+e4W0ghT/pEa/kgWc6eFdSGU7PyYvwA5HywtjBXH36HMY2eaG+PlExiOj/i2dDnQcFpg55J2zBmqNO4nkwPJZxy3rnOfd1rBQe7yCUiAj8bE/M1smMEwhPvsRFmX799dfHt6X0FN/nsYtAXz+RsVtOl8wIGIEaAlgEsBjRgdM54BZeuuDSOTGY2HjjjROWOPZ1xZpPx008OhE6DqxTaJLVmXFmcJN3AAgPAAahG264YdMB31A7PoqgQSEdan3OImVi0AdhUWGf4VKLDW/Mg8cCtPbaa8eieJS5GR88a/Y8Ei9+VG74UsfMwkXwpwEAwRkU5FWVU96SLwZ3ilckFZfE4x2CFHMKEfzzljwNbwkCEQarPvlADCplgeQeSw9Enig+lBflKXmKQP/7IU0OiPCtBjf/C/6mUzkAaYUbA0MGixCWVvYRhkfxx/VZZ50V7/SMs/h6U6Z+0BMItPqvtHreLaZbfYeTk69Webd63gtYdYuHoeaDoI+rNW7XLAKKkgkc1XYMNb12hS/rkjYPBRIK5rx9WrTj8CceEfZRVtDHsl6LpjSwxgkCPO0qfQbh1A7yjH6LPpY1aCD6M6ZXKN2yLDyjb2rV9hNWPJFH6aXBAnDKl3D0MyjS6f9x6cfTjDUASoInBE14YmHZvFVf+bpxTbpKW5jVeeQ973iOckf9HH1fvY8ibN6pIuVt8sJzsZFRiwvSROinj81bi8YaM2VQPAVZTBFiWhH5Q+SDMkr9PRjBo4jneqdnOpf1o7LrXasz4TjKuMKrHocpRHgAQnwzeXeAUMxQVngCM40phN9g+ajn5fvRhYAt/KOrvsytEWgbAnQYDDLy/rxhbUUbzAJ5CPh05rixsVIwcxCx9Oyyyy5h0aLTYRE5OvS8rVbMk2du+frrrx8DFCzOeYulWPmXDoZ3hFVHXS8A6dHx1Dv6ejjdy2KCcIjbMKv4I2yz2i7CJPM2KQsCJa65CPh5W6jgnc6bBe5QUKCIgLeBLGLKt9kZDNWJYglA0MbqwaI/eXvAsGywYjDuzyyslPfXDkUEFpvzzjuvWZKNgUPekzks4NQPliGUJpQNayCrKiMYo/DAcsZgFwJLOm/yxLrEIPPII48Mt0TqMG9l1FgFWpmr0y8HLLxrNWBRvPpZWGhQonMZju8KK0rejilwwg2b7wy3buqTBZJuuummiEJ6SqPOW5mmr42AERg/CCB0IdQgJNNX0f7R1vUi0YayGBzTGQ4++ODYUYWV6WnHEebZYYVpDAjICNn0seqPKOOXvvSl6DsRblFSs7gcFnX6ZPo4+j7aSJ6xeB59bL2tVLssfNSm6l5neOXgPf2o3MJRNiPY07ehvEARMXHixEb/f8UVVwRfTDlB4YBwf+aZZ0bZqBf6WPoj+qV6nwJvJb/ltfgqn1HXKHUg+vCdd9451gYBM1bZz9twBl+P5ylheVvJcMNv9W2Q7oQJE2KnANbEAVP6WL4ppsaAOWngDUjfSd8td37iUn/UGdicf/75UTamB7EzUTOPB3gmXlme8pr3rQjcyrBKp1ldwmPeJjW8K1H2Y8hhvMF3B79ML0Hgx8jD91JOnSM91RPnwY7JWvHt572FQG+2kr2FkbkxAmMWAYReBiIQVhK04xwl0dFj3cf6oE6HjoCFbejs6BTpfNH0l8TAjDgIdeooy/dck95QOxXcwHG/w8LNPEIOaELuvBmokC+WDzTweQ/hdHOessBREh04QieKiKHmX6aja9Igv0l5oSiUEFhfsDJAm222WQjuDIRwHaSDZRDBuVnedLrggqszaaFAoE60Sr/y5IzLIfW30korxWPhyfaBeR/06NhRcshKwcJ+5eJZRIKHusKFdDiGQ+K/2WCE9Bi0Uq68f3NsuYTXA4cI922sQli1GJSMhBel6bMRMAKjH4HSdR8Fa7O2YbjtVifQgReENdZ7QIBEMETI5yiJMNtvv30oiSVo0S4jfNJXIHTjIs+5Tija6Z8RNgdT9lbtstIlDXBGSX3BBRfEejgsXgdxRuBHiKb/p32m/2c9H46S8ASkHUfB28qdH17UX4j3On/lPeOIrbfeOhTqeBtilYfo/5ZbbrnwNMBowTtw49xK4CceAjCKEsJi3ODM2KEkwrA9LmMZ9dfwOiGPNzAyoNygbpjvD7HdHbyUpHjlM65V5vrzZvfgIIUJ13wnJTaKQ170/yj6GRtQpvq4jrEK4x+UNfIQIT78iFedla7Pox+BKUd/EVwCI2AERoIAWnkGEghiWOaZe49bIVZzOn6sE1ibUQ6og6HjQdg8/PDDQ4PPXvFsI8SiRMQjTQYrWJTpMEuBknSwSNC5MLdPnVfZwRAGCwdpMVe9JKzELISFhRzrMAIxaWh+K+liUTj++ONj4amrr746eMPaTXq45tGBU7ayTMRDs4+lmYX8GCiQLs8hlX1C7uhxmaNc5WCCcCwaRt6XXHJJuG4i1L83r5NAOKwHWLCxPjAoaOXxUOYHjliAWLyKMjNoZBBDWcGQvX3Jrz6g4j2LdzHAxGKO9YIBguYcwztloB6pA84qH/lzjVKE7fHAF5dU4kOqG9Io66YcjBAOfIV3WbcokNgqi0EJ3w0DRb4bBnNYRxgc871oMKd0SdNkBIzA+EKAto02ji1WN91002jDmlmyexUV2lP6LLzhsNIjIOMqzlQzlNP0OXig4TVHm1sS77HW0nfQn+F+/sILL0TfQd/A1DrekX7Zb9Bm0nbTrmKJLkntKX0SadC+09+VbTRtPAprvBOY640nGW0y3mUiLO30/4wb6IsRLNn1h7jMI2fxRDy36Ccg9aWs/UHfRR/FO/GtdDmzxgT9E3VPf6HxA2nglcg4hcUcyZN+nT6dfFFG8J0wLsCLQnmr7yIv5SccUKwztYwdfRgHsUgfigzqgj6KKYIoFJQW/MEHeGHkwJqP4AxGjB1QWJMH+LIOA/gyBqAM5Kn8SYfvmH4SZQ1heEc41Q3TEvk+mn3vpAXO4ET8cjzBNeVfYokl4rthJx+MEOJpq622Ck8SPBGhkqd44J8xicBb8of75lU6xmRRXSgjMDoQoHOi40TQY3VjridlyzFz5ekk6QQ70UCTL50InQyDEYTDspMDPcKQd7P8sfYzGGHBGOKpQ22Gen/pNAvf6pmar2b8KA5hwBDrOi6B8KayEqYVL/Xn9Xul3+xMnhx1DFCksMAeg4z6O6WjfIhfxxqMGYyAMZ13O4n8IPKEB/FXPh9OfgPFpzx8N2CieZEoRnAFZcCKhejgbKkwdR8B6o4BNXN0aX9QwvBt4DmDdYtBdjnQ7D6HznEsI4Bl8rbbbgvrqhZPG0l5UcDSFzC9ij6VNg4FI67z9A2l0DuSfFrF5f+k/xSL8SGo14X8VnF5Dv+4aRMHQbhZv6e2W3mpHe8v3Xa8o29CqGSMAm91El8857ret9XDN7unTBBxW5UPoZsxDDyUbVOr8PV8aO+Ir7FW/T33ZVmavdezMtxwy0xaA/Fe5qO8yzNGAr43xj6MHfgm7rvvvsRiwChNUEQxRcTUPQSoU8aDGGPwgsX4wRiIdT6oFwwg7f7vtnfE2D2snJMRMAJtRkCNC40ORzNSmGbvaKA4BkP9pTOY+ArTbMCjdzoThs6/HISU+ZfXisO5/rx+X4atX7cazCAgcfRHyqdZ2YaCcX95NHtX5iceCFc+bxZvoGdlfAasuInS0WEJkQeIVkUnXwYvTEFgkAJhfTIZASMw/hBgxXrco9ut3JxcSNIWciB4YekeKiHADrRjhdpu5TXUPIYbnr6pP6WM+CL98noo+ZV9Savy8a1g8a5Tq/D1cHhV4L3YHw2W/zJced1f2s3eDcS70kaIxEPgqquuCo8DFOh4gDDmKL8bwuFlgrAJ4UED8RyiD+608isy8k9XEbDA31W4nZkRMAJGYPwiwICVqQY35zUVGICcdNJJseIzgzQGGQxWWPSRqQiauoBbpckIGIHxgwBtAVRaaMdP6V1SIzA8BBDY6UvZXem4444LxRJKdhZUxDNUAj1eLvTDCPwoapgWICKMhX2hMbbOFvjHVn26NEbACBiBnkaAOZYsQMhWRiyayFzPVVddNeb7s/sAiw2x+jSDfRYWYp6iyQgYgfGDQGnJpdQoAi2EjJ/6d0mHhwDCOgdrXeBJx1Q5dgtilX7WVGIKCWs0nZkXGmRtBv5nLPrIQsjQQJ4Ew+PKsXoFAQv8vVIT5sMIGAEjMA4QYBEkVlJmNWSduWawIQsELoqs8Mz8Wlv5xsFH4SIagQIB2gJZ+bm2sF+A40sj0AIB/if8b1j89ogjjoi54czdZ3cejrKPJSwLRbJ+RbMpEC2y8ONRjIAF/lFceWbdCBgBIzDaEGDBKXYzYOcHBiF33313LAyHFY+5rawEzR7buCFikZASYLSV0/waASMwfAQQTkxGwAgMDQGU5axDwM4P7ACAaz8LX7I4Ln0s8/lZowkvALzt6nP7pWgjVyvahoZ9r4e2wN/rNWT+jIARMAJjCAEG8swbXGuttWJbKbYzwgrB7gUMPljAr1ykywP/MVT5LooRGCQC/t8PEigHMwJNEEDox9KPUp1dB9jSl7n79K8cvK8T/zkL+XVUxs69Bf6xU5cuiREwAkZgVCHA4IL9nDmw5HPvgf6oqkIzawSMgBEwAj2IAH2pdi1gm2URfa3XxRAa4+f81vFTVJfUCBgBI2AEeg0BbSlkYb/Xasb8GAEjYASMwGhFAPd8KdBLV31Z8hH8y+ejtZzme3AIWOAfHE4OZQSMgBEwAm1GACuD5+i3GVQnZwSMgBEwAuMeAQn7AFFel8C0el6G8fXYQMAu/WOjHl0KI2AEjMCoQ8DzBUddlZlhI2AEjIAR6HEEsNxrmhysci3hXlZ93ZfverxYZm8ECFjgHwF4jmoEjIARMAJGwAgYASNgBIyAEegVBCTMi5/yvrzWe5/HPgIW+Md+HbuERsAIGAEjYASMgBEwAkbACIwDBBDqJdjrrGLX7/Xc57GNgOfwj+36demMgBEwAkbACBgBI2AEjIARMAJGYJwiYIF/nFa8i20EjIARMAJGwAgYASNgBIyAETACYxsBC/xju35dOiNgBIyAETACRsAIGAEjYASMgBEYpwhY4B+nFe9iGwEjYASMgBEwAkbACBgBI2AEjMDYRsAC/9iuX5fOCBgBI2AEjIARMAJGwAgYASNgBMYpAhb4x2nFu9hGwAgYASNgBIyAETACRsAIGAEjMLYRsMA/tuvXpTMCRsAIGAEjYASMgBEwAkbACBiBcYqABf5xWvEuthEwAkbACBgBI2AEjIARMAJGwAiMbQSmHNvFc+mMwNhAoKqq9O9//7txvOUtbxkbBXMpjIAR6FkEynbnP//5T8/yacaMwHAQ4Pvmu1bfOpw0HMcIGAEjMFQEyr6V626QBf5uoOw8jMAIEbjvvvvSzjvvnKaaaqpkYX+EYDq6ETACg0YAgei1115LDz/88KDjOKARGA0IMNC+7rrr0pNPPpmmmWaa0cCyeTQCRmCMIED7Q9967733dqVEFvi7ArMzMQIjQ+CZZ55Jd911V+qWJnBk3Dq2ETACYw2Bt73tbWOtSC6PEUiPPPJIHIbCCBgBIzCWEbDAP5Zr12UbMwi8/e1vT/PNN19661vfagv/mKlVF8QI9D4CKBn/9a9/pZdffjk9//zzvc+wOTQCLRCg/6zTjDPOmGaeeeY05ZQeDtex8b0RMAKdQ0B963PPPZdeeumlzmX0v5TdwnUcYmdgBEaOwKKLLpp23HHHNP3008fAxG79I8fUKRgBI9A/AgxI3njjjfTCCy+kM888M1188cX9R/BbI9DDCNTXoaAfXXPNNdM222wTQn8zhUAPF8esGQEjMEoRkLD/4osvpmOOOSZdeeWVHS+JBf6OQ+wMjMDIEZhuuunSwgsvnLBGTD311LbyjxxSp2AEjMAACDAoYY7hs88+m2aZZZYBQvu1ERhdCCDwzzrrrGmRRRZJs802W5piiilGVwHMrREwAqMSAfrWV199Nbzm8DDqBr3Zv6kbuToPI2AEjIARMAJGwAgYASNgBIyAETACRqCjCFjg7yi8TtwIGAEjYASMgBEwAkbACBgBI2AEjMDkQcAC/+TB3bkaASNgBIyAETACRsAIGAEjYASMgBHoKAIW+DsKrxM3AkbACBgBI2AEjIARMAJGwAgYASMweRCwwD95cHeuRsAIGAEjYASMgBEwAkbACBgBI2AEOoqABf6OwuvEjYARMAJGwAgYASNgBIyAETACRsAITB4ELPBPHtydqxEwAkbACBgBI2AEjIARMAJGwAgYgY4iYIG/o/A6cSNgBIyAETACRsAIGAEjYASMgBEwApMHAQv8kwd352oEjIARMAJGwAgYASNgBIyAETACRqCjCFjg7yi8TtwIGAEjYASMgBEwAkbACBgBI2AEjMDkQcAC/+TB3bkaASNgBIyAETACRsAIGAEjYASMgBHoKAJTdjR1J24EjIARMALjCoGqqvqU9y1veUufe98YASNgBIyAETACRsAIdA8BW/i7h7VzMgJGwAiMSQT+/e9/Jwn6nHU9JgvrQhkBI2AEjIARMAJGYBQhYAv/KKoss2oEjIAR6EUEsOIj5P/nP/9Jb33rW5Ot+r1YS+bJCBgBI2AEjIARGI8IWOAfj7XuMhsBI2AE2oyAhfw2A+rkjIARMAJGwAgYASPQBgQs8LcBRCdhBIyAERiPCPzrX/9KJ510Urr11lvTNNNMk7bbbrs066yzpiOPPDL97W9/SwsttFDaa6+90nTTTTce4XGZjYARMAJGwAgYASMw2RGwwD/Zq8AMGAEjMJYQwK0d9/YpppgiisU91u+xZgFH2P/hD3+Y9t577/Tqq6+mLbfcMr3//e9P0047bZp99tnTySefHOVH2N9pp51CITCW6tllMQJGwAgYASNgBIzAaEDAi/aNhloyj0bACAwZgW4sHEceZT5avI557BDvOinok5+o5EXXJW8KN5Kzyke61113Xdp3333Ta6+9lpZddtl0xBFHpNlmmy2s+fvss0/aaKONQulx2GGHpXPOOSeVvI6EB8c1AkbACBgBI2AEjIARGDwCFvgHj5VDGgEjMIoQwLLeaZJgXeaFgK/70rrPdbsFcHkRUE7xwrXyEh88awehyCBNhPz99tsvPfbYY+l973tfuPAj7CtfrPoI+ssss0x6/vnn04EHHpiefPLJdrDgNIyAETACRsAIGAEjYASGgIAF/iGA5aBGwAiMDgQQPDtpWSd9WawRtMmLMwKx7kGqFMjFTymYtwtNeCF98aFzmX878lIeP/jBD9Jvf/vbSHLzzTdPSy21VCN/HsLPPPPME678U001VXr66afTqaeempgGYDICRsAIGAEjYASMgBHoHgIW+LuHtXMyAkagSwggkDOv/JVXXumIkIlgjzD93HPPpXvvvTfc23/+85+nP/3pTw3Bv15UBP3/+7//S//85z+Dt/r7kd6TPgK10geDTtBTTz0VC/WR37ve9a70hS98ISHUQ1IIgA3PPvWpT6XFF1883l100UXpd7/7XcP7IR76xwgYASNgBIyAETACRqCjCFjg7yi8TtwIjA8EOmG1FnKkPVRifvlyyy2XPvKRj6SrrrqqT3TxOpx0ldBf/vKX9J3vfCd97GMfS+utt17Cyr3JJpukNdZYI+2yyy7p4Ycfbgi2WLvJizjrrrtuWn755dMBBxygpNpyRgHBgVBN+qusskq65ZZbIl+VVxnV7/Wc80CY8P4Xv/hFuvPOO0O433777WNV/jKN8nrKKadMO++8cyzY94c//CFdc801DVzKcL42AkbACBgBI2AEjIAR6AwCXqW/M7g6VSMw6hHAQowQqXOzAvFO7uOcm1F/8ZuFl0BK3hDxsRjXnytus/T//ve/h8s5cdgeTsQ9ArjSbsWzwjc7v/jii2mbbbYJ4ZX3b3vb29I73vGO9MILL4RQ/+CDD6bbbrstnX322elDH/pQw63/jTfeSA888EDCQr7AAgtEuWQRL/MRps14a4WBwjJfHld7+AEDwosURs90r/fCBiG9TsKYMCgS8Jx497vfnT7+8Y9H/dfDc696Y0G/D3zgA+k3v/lNuv7660Mh0iyPZmn4mREwAkbACBgBI2AEjMDIELCFf2T4ObYRGPUIIABDCHO4hL/88sshJDdzh5e1GmEOl3kdUgz84x//iGekxVESab/00ksJgZm0y7S41r14IQ8IwZTwCO4IsQjOEOnjIg8PLCJHePLg+vXXX2/kzzXhOHiP8oA0JfSTFmHEGy7x4kXlUFl4fuKJJ4bgShqf/vSnQ/C/6aab0hVXXJE++tGPRrr33XdfeACQltKHzzIdYQdfKivvJYiTF+UGL3iDd4gwxCWeyqlnJTZcg4WwIQwH5SYPrkkTTMmD9PScdyUG4gk+KSvEYn0cA9Hcc8+dFlxwwQh2xx13RJkGiuP3RsAIGAEjYASMgBEwAu1B4M2mnPak61SMgBEYJQggzCH44QaPZRp3dOamzzHHHLGvOm7oslQjLEN//OMf07HHHhvCIkIuruznnXdeuvnmm9Omm26aNt5444bgiuCJG/itt96aHnroofTXv/41FnRjz3YsxIsuumiaeuqpGwImAqks+r///e/DJf+ee+6JPKeffvq0yCKLhPs8wub+++8fAuRiiy0WVncEYQTya6+9toH+ueeem26//fa4X3vttdM666zTx+r+61//Osr+6KOPpj//+c9huV544YXTiiuuGNMCiCjlAMIxZQGvOeecMx111FGBE+/BiIXqUAKAIdZsrP6sWM9+9RwoRCCs3bvttltcIwxvt912aYYZZmhY/fESQIHAnPcnnngizTjjjGnppZdOG2ywQXr729+ejjvuuEibVfDxNiDdb37zm2F9J1GE/FNOOSV44P6zn/1sWnnllUPIV31TV7/85S+jTlhUb955503zzTdf4APGpZCvesc74f777yfJmJvPHP5WhNIAmmaaadJKK62ULrnkkvhewJvvxWQEjIARMAJGwAgYASPQeQQs8HceY+dgBHoWAYSyZ599Nh1zzDHptNNOi9XUEfQQYLHwckaQ33333dPWW28d7usUBtfx888/P9zTsbz/9Kc/jb3WETQR7ohH2gi8xx9/fBwI+pDSJp8zzjgjXLy33XbbEAwlZJI3ruN77bVXwlouyzXxL7/88nTllVfGtnBnnnlmCLvrr79+mjRpUli+EZRZQE8EbxwQbugI/BAWbebhs3o8CgwIwVblRqBn6znm5yOMQ3g/UHZopplmCuGba/imvLjqI9iCCc9mmWUWXics28yvFz3++OORL/errbZa2mKLLeIVioSrr746HXLIIbEYoCz/vPzxj3+cWB2fegB7lBOUAWUBio7vf//7sU0eYSnDDTfcwGXQkksumSZOnBgKBfinTk444YT0zDPPxPuyTkibefcoElDESNgnIAobCfIoIIjXikosyV/3KDEs8LdCzc+NgBEwAkbACBgBI9BeBCzwtxdPp2YERhUCCJgHHXRQrLqO8IaVGkswllus6yyy9sgjj4Tgi5UZ672EWxUUARXX9ZlnnjnNP//8Sfux427OXuxYwckHqznCLYIyAjYWZtL+4he/GIIlAiZzuxEosTwjwGPdhi8s2XgCYN3Gen7jjTemrbbaKlzaxQdnrMkbbbRRCOjwBeFFsNBCC8U1C/mRHgqEb3/721F28oM3PBVQCLBfPHHhEd4o25577hm8vfOd7wxsSIz5+ITbcMMNQ5glHVamJ606kTZu8wj9uOnjnSDFA0oCBGsIJQcCPWERkPEyoE4gFB/gAk9gW9K0004beOBVQBrguOaaazZc7sUT5f7qV78aAj/8Ysln4UHqFg8HcEUgZ+FByspChBLqqXcpbcgbV/2BSMqCueaaq5EO3gQmI2AEjIARMAJGwAgYgS4hkAd9JiNgBHoIgWydrbKFuMou2VV2YccvusrCb5WFrSpbcqts9W0Lt6ST3firbIWOPLJQWmVX8yoLk5FHtmZXRx99dJUFvyoLblW23FfZdTze/epXv6qycBzxeJdXqq+yFb3KFuAqC6sRJgunVVYCRJiJEydW2ZW7yoJ/vMuW6Sq7+FdZ2I33WfCssgAd5coCdpWF9ioLmpHvDjvsUD322GNV9h6ossAaOHz961+vsuIg4oJPtvBX8CtsLrjggioLqPH+rLPOauDFe46f/exn1Xvf+954/+EPf7jKC91FuQlI+fM89SpbsOM95cwrzEc86iZ7Q1R5ob54N+usswav2V2/yqvwV1mYrwgjoryiLFA3MMtKAj0OTMiTOs/Cd6SbFRfV3nvv3afc2aJfZWG9ysJ8hKHc2VW/kQ4XWbkS7/KifRU8iYQL5dY3tfrqq1d333138Mt7eM+eEVUWziMNyk99CjPSOvLIIxt5g9lgiTrNypqImxU7g43mcJMZAeqe/2pWvFV5+8X4T/Ld5Wky0Rbw3ZqMwGhBgO81ezhV2TMs2iL6mOzNVOWpStEOj5ZymE8jYARGNwIac+WtnKvPfe5z0R4x1qZtyms29RlHtqukrf0xc69uMgJGYOwigBs47vq4eGMhxo0ciy9W6tzAxLPPf/7z6Vvf+lZYwpk/zhx2LL0cove85z3pu9/9bngGMC8fazHvTz/99HDp5/7LX/5ykls377DEs33cPvvsE/lgvZYbPnvZ4xafG8SUFQURd8KECcEXcbOQnfbYY4+02WabiYXGueSr8bC4wNWd49JLLw33d3ij3FjAtZc8Z/LFks4189Yvu+yywARrN5hkJUTwwVoHF198ccytBzu8Es7M0wx4DsnCXbDwpkvCkA+Weea3Q1kYTwcffHACW6z/WOyxkjPvHw+GgcpZz0ThWd+ABQDxlMhKk/AeoEyqb7Yx/NKXvhT5ZaVO4iCu4ms6A/d4cgyWyI+1DCCwoW7J02QEjIARMAJGwAgYASPQWQTs0t9ZfJ26EehZBBD8EGYhFmvD7R1BDkGMA0GQLeeYI65nOpeFwj2dBd94J8EQF35c3iGEWdzkEYwlXCp9npMHc9FxJYeIx3sE4VVXXTUWxYsX+UfpIwR/5jOficXr9I44CJL9kQRw5cUigMynR8EAKX3SwvVc94TnmueU59BDDw2X/HPOOSfmyrNWAfP2mUfPGgI/+tGPYjrDBz/4wUYa/fFFukwhwN0fYpoAW+uV5SEM/DL/nXUMmGowFCK81ipAwcOUDcoOkTZ1A2VPhVDC8H0Ip3iRf6griPAojAZLhM/WtQhO3iYjYASMgBEwAkbACBiB7iBggb87ODsXI9BzCLCyOwu/QbIkI5hxSNBF4OSaQ9eE13uuEfbLe54hALMYIMR5yy23jOv+fpibD5WKAvZvl5AuPuAPQkHBOyz2EPxJaI0HTX7EJ4vPQXgTsCDhQMT8dvIRDwjezH2fmD0BUFYwt55dDhD24Z8F9rSQHl4EAxFz6x977LGGUKw592V5VG6UMywiOFSBHwUGawNAWOqbeUjU+WSNBUjfBWsciLSyv+7rZ/ELZnwPUhDMPvvsA9ZTPS3fGwEjYASMgBEwAkbACAwPAQv8w8PNsYzAqEcAYVkWW1bXR0BDOJOQqXsVVII39xLmuMbiLUFacUgXN3SIc54v3ydOvCh+iD8hu+1DWhEfAb4/oVY8R6T8U/KnZ/UzaUJYzyGmFiDENosLDgoPb8KFM8I/cThwVUf4X2WVVdKnPvWpmG7A1n15HYDwbBiMwE+auL2DAxiyGwBnKTHKesFSLiVHFGKQP2WdcM0WggMRiiDygj/4YcFFEQv4iT89a3VGwUB8iMUdIWErXOOhf4yAETACRsAIGAEjYATaioAF/rbC6cSMwOhBgFXYEfruuuuulBelC+G6FOgoCUIaAqaEM80nr5dSgirhuSZthHzm5mPRzQv0NVa3V1zCctQFvryIXgTB6n3nnXfGzgBaxZ4XpM+BVV18Kc2BzsqLPOBtQhbkWTlfK+EPFB+X+7ywYcyDR1mw7LLLhsKDdFFscI/Qz9x3pjU8+OCDTVftr+dDXHY4wN2dPPLierFrgHDlDCF833///bGWgtIAA2GiZ83O1AO7L0AI3ZQDJQNEGsKGeykUSkUI1ygARHhJfPKTn9RtQ6AXrzoTgLBKE8yhMr944B8jYASMQJcRUD9EG1i2d11mw9kZASNgBDqKwH8nbXY0CyduBIxALyKAWzpCJoIZrv3s214XoHEB33777UOw23bbbRtzwEthjQETwpyETu6hpZZaKs7Mbb/qqqsaAp8EP1y8zz777LTvvvumAw44IIRCIrAmAIoH0rnyyitjP3qlyZkDd3IWBRwMoTgQKf7iiy8e/DKHncXy4KksO7yxHz287bfffo11BZgGccQRR6S8On4c5Tx/8iAdzVXnngUGIdJWGbhHGVDe84zpC/JuYC0AudMLa8Kz5gILLeLdICoF6zIseZSEJ8Ziiy0Wj3CxB1v4VX3wAt7z7hBp//33j+37NM1C6Sy44IKNxfdQaoATZSuxU1ideYfCR/zou9B7n42AETACkxMB9V2TkwfnbQSMgBHoJAIW+DuJrtM2Aj2MAAJg3morBGyEPlbSz9tthfCPylbeugAAQABJREFUQMiK8XlruBB8UQZg/cBqD5XCKoMlWUb0HCEvb7+WllhiibBYf+UrX0mnnnpqzJnHgs3icccdd1xCiYAAfdtttzXc7BGSWSEft3M8D7bYYouUt5iLfeJZ5I/V/Il39dVXt0QXN3oJz4RDeCZPFBjwuPHGG6eJef49AivlRojmPa705JG3I4yV+OGN+fhzzDFHxMtbGAZe4IOShN0CEHxZeZ7F7liY8LTTTgvhFuGYA0IQZ+qAFqzLW9ol3P5ROKA0AP9lllkmbb755hEeK/6kvOI/eect0eK4/vrr09Zbb53uuOOOCKMf8JfALQs85WJNATwMKBcL8EG77rprYicFFAYoM87MOwrgmk+dwAu7LaDgYWeG22+/PRYJVD6c4Z+pCxAeEiz8R9k4Wg2aWcMBTw2IvPUNxQP/GAEjYAQmIwL0Bxy0oWpHJyM7ztoIGIExjoDanFbF7FQ7ZJf+Voj7uREYBwggfOV9iEP4Q4BlATuEMgQ7FrTjQBhlyznelRZkwUPjRRgJftwj/OE+jkBMPNJGeXDGGWeEEMn2fixuRzyEaIRPhGoI93ZW4L/22mvTzTffHOHYKWBCdgXHtR8rN0Is9wirCLclkT+CL9MVyIeF9BBMUXCgKGBbvTnnnDP4YVoAYcCAcuPqjnCMMIvwD08oK1AeqHwIxKSJmzrb9eEaz5Z5eBJgEWe+OlMaKHs5RQJM8SxgAUBwRZGBYoJpAGyRxzVKEgT7e+65J6YskBflpEzE0UJ5KBjK9Q2kcGFXAMqAQuLCCy8MpQKKE7wUmGogZQoKFRYJ3HPPPUMRg7cHcbSYIXWC1wXTAEqiXpdbbrmGIoLyssAgz0XqrPQMRYLSJa6+IYX32QgYASPQTQTcBnUTbedlBIxAfwgwDoY0ZtK5vzjDeWcL/3BQcxwjMEYQoGHZaaedwr175ZVXDgsHFmQEbQRThFDc1xEeEVZFAzVICKgQK8Hjzs9WcgieWI0RaLGKI6Suu+666dJLL433CPoQaU/IQi5W/V122SV2AUAoZ60BBHQEcizhbH1HmnVC4ETwRYhmrj5h7r333vBYwAoPkfdaa60V7vwIwigD7r777rCKkwfvV1tttfBu2GSTTRoeDMRFMcA2fpOyBR6lxuNZoGVaABZ7Gu7ll18+nXXWWWGNL9ceIO43vvGNtPbaaweuxMPyjTAsd3c8Aq655prwvMAjAMGe+sDbAtpqq63S8ccf35gqEA+LHxQ4Rx11VKxJAC8oLoiLogCCH7wEqBO2PKTc1AneAPBCudkSkG3/+B64L4m6IR75oHDAI0C8K5wUI9QD3wFTL/Ca4Ftab731Ik+F9dkIGAEj0G0EJPDTPklBCQ963m1+nJ8RMALjBwHGUc3G0Hre7F070LGFvx0oOg0jMIoRQNBGuEWIw4Ueazhu2Gy3h+CNoI8FmIERQiSDIt6dfPLJYV1nm7hyoKRGS8+Ys43Qh3s5Qi7CH5Zz0sDlH4u0FAQljAiICO0I97jkY5HGYo7AvfTSS8dccgRrLPxY8yX8S0hFoGdePIoLXNbJg638SoK3E088MRQC8EUeWLUpEwv5aZG7Mg7XeDwce+yxYYlHiUBcMJp77rkjDyz+4qOMu8ACCwQW7G+PRR08yUOL5xGW+8MOOyyhaIAfvBlmm222UGJQF9QDQj9l0ir6YA7e8o6gXMRly0DKXVfW4FXA+gkoGwgH/3g9gCNTC+SZAH/1ciy66KJpYp4OQTyUIxwrrbRSWcy4hie8ElCOQPCw4oorNq3rCOAfI2AEjEAXECjbtGZ9TxdYcBZGwAgYgUCAcRaksXPcdODHAn8HQHWSRmA0IoCQy7H66qs3Zb8cJOHyvc466zQNV3+IIIowyTFUQohGAOVoRliMWxHCLwI/R3+EmztW66ESW/utsMIKQ4pGg45Coe4qX0+EKQRY2DmaEcqMVkS5UWzUlRsKr04FpQRHf1TWOeGIi3KCKRh4faBQOPTQQ9M555zTKBNhIN6huECxwTfA9AEUF+rcIpB/jIARMAJdRIA2jTYSQthXe8Q1ylQpqrvIkrMyAkZgHCMgLyONzToFhV36O4Ws0zUCRsAIjBEEyoExnRM7KTC9gMExiyiyUGHdUsYuALLuo6DQYn91JcIYgcjFMAJGYJQgULZBGmzTftXbsFFSHLNpBIzAKEUAhaOmRSLwd1LhaIF/lH4kZtsIGAEj0E0E1BHRKTFgPvjgg2ONBqYWsLAhOwoweGbQzLoBO+ywQyxgiKDPXP9pppkmrGkeVHez1pyXETACdQRYu0REm6UBt9o4vfPZCBgBI9BJBBgPaeto2p+ybWp3vnbpbzeiTs8IGAEjMMYQkJs+nRMDZDompnXgzv/666/HNn8sqsgUBHYjYAFD5usTjh0CWB8CQlEgpYAH12PsI3FxjMAoQIB2h4O2COsag23aJJMRMAJGYHIgwDbJEG1SJ8dFFvgnR+06TyNgBIzAKEVAHRLC/4S8qOO5557bKInmxu64445h4ecFnRhUKg2URrzwjxEwAkagSwhIYYklDYGfwbYs/F1iwdkYASMwjhFg7MQhksDP+EljKL1r59kCfzvRdFpGwAgYgTGMgIR2iihBXi5oDKT1vr9OS/HGMEwumhEwAj2KgKz77OrCDi8ccqntUZbNlhEwAmMEAZSMpcGDexY4hhhLaTzVieJ6Dn8nUHWaRsAIjGsEaMTrWtyxDkjZicltX1ps3QsD4aN7n42AETACnUYAhSTt1NRTTx1Tj8iPNUgQ+NVW8Yz2ymQEjIARaDcCtD8yjNDOMBb6xz/+EdmwzlG5RXO787aFv92IOj0jYATGNQI04jTqDCDLhh1QeDZeLNwaQAsDfRR0cOMFA5XZZyNgBHoDAbXBGli//PLL4dZvIb836sdcGIGxjIDGQ7RDdYEfryOOTo2PLPCP5S/LZTMCRqDrCNCg05Cr0UbAffjhh2NQibsWC9h1slHveoFrGdKRqVPTq+effz49+eSTofCYffbZ01xzzaVXPhsBI2AEuoIA7RLKWCxpM8wwQ+SJdQ23fkhKSsKYjIARMAKdQIDxodoa1g954YUXIpvpppuu0S51Il+3ap1A1WkaASMwbhFgUClhn4b9pptuSptssklab7310pFHHhkLROn9WAYJHCT4I/BvueWWaf3110+77757+tOf/jSWi+6yGQEj0IMI0B7TJiHws8sI9OKLL8YcWt5pII6S1mQEjIAR6AQCcuunnXnuuefCGEQ+M844Y0dd+i3wd6I2naYRMAJGICPwy1/+Mu26667pvvvuiwHmF7/4xTT99NOPaWxKQV8Fff/735/22GOPhPvspZdemvbaa6+GVlthfDYCRsAIdBoB2ifaYHkZoYz829/+FopYKQRs4e90LTh9IzC+EcDCj3X/kUceaQAx99xzx/oinTIIWeBvQO0LI2AEjED7EHj66adjD/oHHnggzTPPPOlb3/pWWmCBBRpW75HkNNosUAygN95444TCg+tLLrkkHXfccd4OayQfgeMaASMwJARkWWPRvne/+92xBRaDbqZcqU1F6DcZASNgBDqNAIuFMj6EUETON9980SbRTnG0m9qfYrs5dHpGwAiMKwTQfGrwNVoLziDy9NNPDws/Dfd+++2XJk6c2FjMjzJqDtdQyki6wkbnocQfbNjh8tdf+qxbgJX/ox/9aJT9tNNOS7/4xS+GhUN/+fidETACRqAZArTFWM8Q+FlL5R3veEcEu+uuuxoL9xGGwbfJCBgBI9AJBFAqIuyzHd/9998fWdDufOhDH/K2fJ0A3GkaASPQmwgw2OqUS1O3Svz444+niy66KBr1RRZZJObvUyYaeg6E9eEI/BqwqhydskbBm3hVXiM9U36E/p122im9853vTE888US68MILvQf2SIF1fCNgBIaEwJRTTpk+8IEPNKZX/fa3v01///vfh90uDylzBzYCRmDcIqCxFWNA1jJiHAS9613vCk/QTo59beEft5+dC24EegMBGkAJwAiZv/71r9P111+ffvrTn/YGg8Pg4oc//GFiEMnWTzvssENiZXpIliPOwxH4WQsAbH7+85+nf/7zn430hsFiRKnzgAfBDTfckG688cb0u9/9brjJ9hsPC//HP/7xKP+5556b/vCHP/Qb3i+NgBEwAu1AgHZXCuU555wzzT///JHsM888k+6+++7GPP56u9iOvJ2GETACRkAIvP7667G2E7sXQUsttVSadtppbeEXQD4bASMw9hDQAIyS4ea05557ptVXXz1tuOGGo7KwCM0XXHBBWMgnTJgQ1n0sSlBZVq6HSqwDADbMh6ejGE4aZZ71gS3bU62xxhqRxze+8Y3G9IEyzkivWYl2s802C7datsS64oorAit4QeFT52mk+Tm+ETACRkAIYEFje1SUsSuuuGI8fumll0LBzFnKZ4X32QgYASPQTgTkzo9Ri4WMaY8+8pGPhMDfySlFtvC3sxadlhEYhQggYA1GyGIgJBpsHMIr7TK+npfpILzS2LUipaP3iqvnOuu9zuVzxdG7ZucyDAKoBoBlOvV4ZRxWXZWbFo04i0PViUGnyqr062G4b5VnmV953SyNMp162JEqDFrlpzzr+fGcck+cOLHhTnvzzTcntN3NwvaXvt8ZASNgBIaDAO0eAv8KK6yQWBmbdh6vpkcffTSUzmWb7HZpOAg7jhEwAs0QoG1hvPPHP/4xXXXVVRGExfoWW2yxmPJYjg2bxR/Js/+anUaSguMaASMwahFg0RCEUwY8s846a2wdh9WVhUQYCM0777yNsmluEVsYMTBiOyPCvOc972ksfkRgDZAk0HKPFpN57X/5y19Ci0kDN8ccc4SFmvdYwLGu0Ai+8sorkScN44MPPhjXaEARnBmkiYgHvfDCC+n3v/99zMFkFXxcNdlnWUQ4Cba4bhKe/BTuz3/+c/C10EILxdzyMjw8EIf0wYj04VsWe55BisM9W/Hhbg997GMfa+QdD5r80Pg/9thjYbEnXTAHU66VLmHAnHmmEF4E3IMxYYhTYkMYeP/rX/+aHnroobhmazzqCyyeeuqpRD1DuLWSDvvBgoXKxHviwgd4TsjeCnWCD3jnG5puuuliIazZZputUa+EF/ZlXKz8yy+/fPrxj38c8UkD/JV3GdbXRsAIGIF2IkBfxsJ9tJsrrbRSrCXC1CK8jWiH1L7TLtJ+NWvD2smP0zICRmBsI8B4jHaEM+PDc845pzFOZCzEOIxxLm1Tp9obC/xj+xtz6YxAvwgwT/tzn/tcCJLbb799CGH7779/CHC4j2+55ZYhUNJIIWCyldrVV18dwjlCKILgTDPNlLbZZpv0mc98JoRhMlTDhkLhsssuS8ccc0wsUILLOA0aqyOvvfbasR+7lAqs2L7VVluF4EkaCJyrrbYalyGcs6o7q5jCC4ImlvSvfe1r6Y477oiGk2cIvQiT++67b7imw5sUFaRz6qmnpuOPPz7m1H/nO9+J+fC43yPE847F5BjkoXQg3a985SuBhQR40kdZcdBBB6Vll122oVggDnxxsOIz5ZxhhhnS0ksvTbZvIoR03LquvfbadOSRR4ZigzjgxjyulVdeOe29995p0UUXDfwRqMHixRdfjLRQuoC5BqaXX355WmKJJRrY3HPPPenggw+OLV/EO5gzfx7Mvv71r8fglmc/+9nP0swzz5xOPPHEOOANuummmwJDrhdeeOHglWuEchQ4F198cTrppJNCWaJ6BR/cZHfZZZfgR9iTptIFK4ipCQj8KB+oSxQSCh8B/GMEjIAR6AACtEG0nbR7n/jEJ6KtQzl6/vnnpzXXXDPm00qBSrulNqsDrDhJI2AExjgCMmQwPmSsxBpMjH0gxqubbLJJjD0R+DtJFvg7ia7TNgI9jgBCJwIXAuRPfvKTdPbZZ4dgD9sI9BCNFQ3UXnvtle688854xmrrDIiIi9We/dVvvfXWdNRRR4V1mkA0bmxN9+UvfzkUBAywEMCx5GNNRvBG0DvllFPC0gIvDLrUODLQ4h6iIeS9iH3cDznkkIjPMwZkCMtY77FSo7xg4IYQT4MqjSlKBPhFYP32t78dZSY/FBecpag4/PDDgz/4hBDeKQ/3CN94QFDmXXfdNXgjDMIqwrXizDPPPBGPdyWRDwdCOnwixMM/g08UDXhOMPAkD5QRWJxQZpTYEF/5wDPvwYvnYPOlL30p+FS+4Ee6LJLHyrBcgwNWefED708//bSixJYxr732WtyjEBGR7ze/+c30ve99L/KFd+qVbwhvCDw5+BZQ8qDU0WBZZ/KDWCWbZ9QF9WYyAkbACHQDAdpM2kSUq8sss0woU88777zoz1Bi4mE111xzhVLASshu1IjzMAJjFwHGOYzRGFMzfjrhhBPCo5O25dOf/nRY9xlPa5zaKSRaT5jtVI5O1wgYgZ5EAIs2ghcWDyy0sqazOBzCNcL+9NNPH4L/7bffHq7r1113XVp//fVDcENjefTRRzdc8mnYEOoR8LEQs3L9bbfdFhZlGjkUAFiRiYcwjVWblZKxVEMI2ax0z0E+H/zgB+M5buYI2ygLmIbAIn8oJLCsI+AzgMOzgPy++93vxnVELH7gCQUHblQsgIe1HFd0hFFWwSce/LOl3plnnpkoL/hgBUcAf/bZZ9Ohhx4az9VIUwYEZLnKzzLLLIELgjjvRIQHZzwWEPaZqsBgkzJwsG0dCpV77703whDvvXnPaHBYZ511IhnSxnOCZ4SjruhUcEuVsE8HAs5gR91deumlYbHHk0J7v5IY/FAXu+22W+KdBHO+A+qD9Nk+TwoF8KBeIbAGR+KBEYoSFBdMzTg4exjAHySMdM09/KFwoCMEszJMRPKPETACRqCNCNTbYtz68eradNNN0/ve976GIvb73/9+9Fu02/QJ9XhtZMlJGQEjMIYRUNtBW4JR5Iwzzki33HJLlFhbNjPWZQzG0dFxUGbGZASMQA8hkBuGKjcMVbZ8V1nAxr+6mjRpUpUtvFV2B6ryAKRt3GZBrcoW8MgjW2mrrHmMPOBBlF3fq9wIVdkKXmXBv8rCdLyCD8Jlq2613nrrRRqklQW/eP/www9X2YoSz7MlO9JVmlngrLJAWeWFSqrsARCPSStrQKs8pzLiZMFRwRvnLKhXeYX3eJ8bx+qss85q8Cues4W/ysqBCJO3w6uy23wj/j777BPPwTQ3tlVWGjTeET97LFR5y7hG3CwoN97rIs/Rr7JyIMKstdZaVZ5Xr1cVeWeX9niXFSHxTnw1AuWLLJhX2YU9wq277rpVVgA0XmdFQ/XJT34ysKHey/ibb755xMl7tlZ5OkYjDhdZcK6y4iLeg01WilRZodAnTLbsV1kJEGHAIAvcVbb0N8KAb9Y6x/s8CI76IF0IPrJ3QJWVDfF+ueWWq6jj+vfId5s7sPhmsjKmyp4ZjfTLi7z9YpWtaJFWnjrRMlwZx9fdRYC65f+evVqqL3zhC1VWBkV9ZU+RKitp4vvoLkfOzQi0DwH6G9q8vEZLlac5NfrbrEiu8hzbiraYPrdVG9Y+TpySETACYxEBxk/ZEBRtSfaKrGhbGHtl76IqG06qPFW2yl6OXelLbeHPyJuMgBH47zztLFDGYkay8uYGOCzenNlLHhdtrNgsHodVFks5rpFZ8I15+Wgwf/Ob3wScWHBxjYSwAmNhZgoA1nfma2Phxq0dt3gIzWZ/2s0scMacdKzJUBY4Y+4T+ZdxsZjjAYC7Ji7mrDlQJ8q3ww47xHx8vSMN3N21/zxzzOGfspYHvGPZhljMjzgirNWaCsH8ePIBOw745wyBDQvoQcyhx3UfF3tc+nGPx630Rz/6UWJrvP4wiQT+94Obfhai447pBKwBgAW9JNLeY489YgpF+by/a7m0UhbWBiAfKCt5wiuC76DEh50JwIiyUrZyKgbxwAGi3phKAfFNCBu9jxf+MQJGwAh0CAHaNqz8tIt4NOFBxTO8u/BQujnvIMJUJ9r1sv0WO2qzdO+zETAC4xsBtQmcObLSPMbKtCV4hdK20Oaw5hVerUw5ZSykMXcn0fMc/k6i67SNwChCACGtLiAigGYrbpQCYZ7F3miYaMR05iVCIIMiCBdwCHd75qh/9atfDRdvFgdk6xFWJGVhNw4EU9KCBhJsGYgxPx93egiBn4ZSDauEfvjC7T5bwWM+Oa7+dWJqAovvlY0s8ZnDrnnsuKPDP8/JoyyvMMElH56YsgDBD4I+hBCM8C9MJTjzDmwmTZoUrvakgdLj2GOPjRWjWQyQxfXem934IfIeCBvC4UZPWtCHP/zhUNDUhWfSgVd2KCD8UEku+sRjSxnc+OtEnkwDgR544IGGgK9vRmVh8RotKIhbrZ6XONXT9r0RMAJGoF0I0KbT3qAcZp0SlMC0/+yPzfQolKaHHXZY7LZCn0FY4qjfoE1ze9Wu2nA6RqD3EdB4U21AeU97wMFYhucYOxhDX3TRRbHuEQYo3jENlgWqmUaK0YM2ROOfTiJggb+T6DptIzCKEGDudZ0ktPIcS65WFq2H0z1zkFAMQMxD33HHHUPwZE48lnAsxMwnz674MWcSSzyWYizeEI1kK0KQRICWYgGhlUayWUPJnCgJ2ngh1IkBnvIs36F9lUWaee6y9pdhdE1Z4QmhFb7hgzIrX9Kql4fOgGfE3WijjUI5wG4BbD/ImgQIyCysh7C/3XbbRadAWQZD1BVCNISXA/moUyrjU24Gr8MhvBBErDfQDHu9p4zwIzwVVmc6QtUNWu5mvCotn42AETACnUCAdoe2CqUjSmA8oOhnWG/m8bwAKYvV7r777jHPH08A2niI9rXevneCP6dpBIxAbyHA/56xnMYsjGnKtoAxKgfKQ4R9drzCGEM7g8GLcfGEvM0xxiGE/W4pDS3w99Z3ZG6MwGRDQI1XyQCWaAmwuPSzmB9WbARdGjkONXzEp9HDuiwtJ4LlpGzJ3nDDDWNhN1Zvx+2cwRQLwtHwkRZTCQYiGkV4QDhkxXpWy5fwSFzSUcPJonhSPLDAXZ3UQMNvmQaCMgM6pi2wyv8KK6zQeK8yleHRzrJgHu/Im3sGjhACv5QTyr/EmLDgwnSIX/3qV7GQCxZzsEHZgHUJPvK6A4re7xmPBuoKLTLKA3VAJb8kgGJA2PSbYJOXdFIiFjqUF4KelWcwoYPT9yM+dEaBhLIEvMGsxKZMx9dGwAgYgU4gQBvJQTsF0bewFSo7yzBIZ3EtlJwshIqyGiXs4osvHi65tPcctHNuuzpRO07TCPQeAoxfNM6EO+5pA2hHJOgzRRFvSHaCYhFoFIi0EXltpvT5z38+FotGeYhrf5lWp0trgb/TCDt9I9CjCEggrLPHcw1iaJDYPg3LM1ZxVn3nXkRjh6DN1moIp9zLPRvrLoI3zxD68mJ44RqJIHzjjTeGQMtgCmv/Zz/72YZgrbQ5i0fS4BqrPkoIBH6UB+Qpi4saTnjHi0DuU0svvXSZZOOaNEuiHLhYIfQ/ni07XLMDAOmLD8LTqCMw8wzlRymsEpbtnGjccZmHBwTxOtEByAMALS/TG1AuoAVmSgQDS1xK2SYxL5bWEJqVDnnr4BllYU0AOhHovvvui+0VWXkaKvlnjQWmIYjKdMpw5XOFZTAsYtcEFED1wS71juWe+HJX0/ekuJxR+EDgB0bKu14vEcg/kx0B1c9kZ8QMGIE2IkB7wyGhHwUxbRuKVvoa1plhAI+lDoXspKzAZi0b2nm8pegjiU87qLawVD4P1J7pfzVQuDYW2UkZASPwPwQG+/9TuBI4xjU6GBcyDmZMmxf8jF2UHnvssRjX4KWZF2eOKaIYSRinMXakzenm/96L9pW152sjMI4QoAGjsaoTz2mE1BBtsMEGIbjRkLEdG5bZ8j3WZLa2Q2BlbhKNHO+x5C+44IKhIMirsMegCaEc4Q5NJ/P3IQRj8cGACSERYtCEUKx3PCMO+UDMzYcfzQPnGXEQJNknHqF6QrZIM2WgGZVl4D28EZ5F56Af/OAHoVRQg054GnUGfsyxh4+DDjooXNbFI2FY0I+BIK7sKDZKgj/Cstgfc/VRniDcI+hTdgabLOTCWgcQgjNKE5Gs5fCh56RHndGJ4C0A4UqGVUpz6XlGGOqGdRioSxE88071LgUKuDLQVdl4j/JESgQWXUSxwnPxAF+s2YACg3LQ8fFeA2HlSfgrr7wyblHi8J0QjsPUmwjoO+hN7syVERg6AmUfwDUDcNo/2lKUm/vuu2/ab7/9os2j7UYJe+CBB4ZnFnP7r7nmmlCe0icyRYn2EiU07SD9D3F8GAN/A737DdCvDaZ+CMd/mv83Rg3+6wj4/PcZV7GmEeNcxsBHHnlkGFxokRZYYIEYJzI1iPEeU2dREnZb2IcXW/hBwWQExiECCGF1QQwY6s8QIjnY1/70008P6/qWW24ZK9g/9NBDsdgcro8IzLjBY/mAEAwnZAEaazOCHwMpFAM0nKzYj9cAtMQSSzTyJG8aSPaOR+A8+OCDQ7hmagCL9OFyScOJsIiVmlVPsVgj1OOBAB/aDYAGlbmXEp4jsxY/EmYY6LGuQN7KLwRq3K9YbBDvBPhnt4ETTzwx1iPAMo/igucSVOF/qaWWCoGfzuCmm24KC70adw0wEeyZ+kAnwbH//vtHPigKbrjhhlA0wCoKDjwOIDql+eefP65xy89bvMS0BhQkKCDAZuutt47V/XEnu+yyy2JXBCxS7DbANAGUFShiqCvSE6nOeU69EZ9pBkcddVRir1jSXnXVVcMazwCYOiC9LbbYIvBiWgMDXuoFvugMGTBTZ0pbeXGm7vh2IBaLRAkkbOKhf3oOgWb12HNMmiEjMAIEJPSTBN87Vri8PWkM1Gk7ac9pex/PHmC0c+eff354VrFILApcFkSlLWNAT79AeyoPALVvOotN/a/Uh/BezxTGZyNgBNqHAOM9/d9Ilf8cpHEg78oDBZ6UAgj8jG9YPBqjEx6ZTPfBm5NnxOP/i3GGcSkHY1A8GXnGO9qFyfEff0tmziaVqGr/GIHeQIBGB8vuxRdfHC7lXE/KQhtWawQvDSDawW3eUz62I8JFHRfGww8/vGmyCHcHHHBAbHGnRdjKgAxuNtlkk8TifJozTzkQ3HH7xgugGSEUnnHGGWnJJZdsvGYOO+5PsmDzAoGVbeqYP0m6LB6IsI+FuRmx4jLbnoAZeImw2BxxxBGxIvOFF14YgrLecVaDzzQDwrGYXjPCKn3IIYeEwFumr7AoPlAOzDvvvOEpoPJJyKaxp5PYdttto9NQvPKM4gQr+hprrNF4DD9gg4dASWxViGcC/ONVgHX/jjvuKIPENfnijsr2iAj+dEDsOFAqFRDy0VQjwIvosPCcoLvgezzllFMCWzww6kTnidLgzDPPbHhjlGHoPI877riY0sE1SiQUSKRNR2jqHQSoEwY4DGTwDKHe+cZYWBJlF8omhCKTERhLCPDd0zbp+6fNo62jTaUfot9hWlkzQmnMWjP0g1yjrOZ/wkFfwaFBP+1d2eZJ8CBfkxEwAp1BgP8Zh8Z7nPnPcS6FewR7WfNpA1D20Q7gIYlBp06kybgN70/GWRh/cOenDWCMLMMPeZX/+3o6nbq3hb9TyDpdIzBCBGg8pAXs1ACABggXIxofrMtQKZTCA8ScxhNOOCH2i7/kkktCgKdhJB4WebYzooGTsA+/xMUqjBUE13us5moksY4jFO+2226xhR55qgHEJR5hEWEXoZg4KDqEBemyZzJWlaOPPjrdnPc3pQEmTwZYWKSxQJMO5SvTpozwSJklqAjbEm8WEaSxZtEVhGlpbomPNX3nnXcOJQVpkD68CSvwQoDFGoRLPYobeKLBJ4zCIURTTpQLeE+g4IAXwpEHW/XV1x/Awo+ATF0gsKOooZOinBB8gDnpYoFC+NfAlEEoShnqCoEeNzTqQfwQnzpgMT7wPvnkk4N/OjzuIfKi80KJA/7wzmr91BHpoEDYbLPNwiqGMofwZZlJg90awITvZ0L2AFl99dXfFIZwpt5FQP9V/Sd7l1NzZgSGh4C+bQ3U8SCjHcSbCe8khH8OlLC4+qIIpy9gehaHyQgYgbGNAP0gY0DGhRg5mMaIxyrjZcaZjIfUfjTrM8uxZzeQsoW/Gyg7DyMwBAQQktAmIlgjuKJVxK2cVYMZcGAhKIW0ISTdb1AJxuQPacCjSDROHOQNf8wTx30RoVGNmcI2E/QYECEAkwZa0GaWccXXWbwQp56HwvAOoZZBFwvXNcOmLAvlVBieNxPYla/i4YJOODwHaOD1XDzUz1jQEfrxcCAObvp0AsJY4eFdB3HAiPBYg+CxVfh6/vVwSp/nYE558EoYDOaKy7m/dFUf4E4eDIhZ5ArexB/xIYXl+phjjomtr3iGlwa7EVBWHYQx9QYCfJuy8H/ta18LCz/P8I5hmo8t/L1RT+Zi5Ag067Nov2iX+OZ5zz0KUKab4QHFmX6Q6WkcKJ6xAKIA5cBCWCoDiE86HGr3R865UzACRqAdCGjcojEMYxSMKRyMnRjjMN5lHI5xCQ9ODF4YNzAi8Q4hnzNxGCuSBumpDSnHQrQDkPJtRxn6S8MW/v7Q8TsjMBkQoGGASgFIglMn2VFD1KrxKfnBTam//eGbpUHjRwOpsg2mLM3SqceDL7mk1981u1c59a5+z/N6vigShkIoQpj7yfQElBF4OOAtgLaX+oVnqMRUeaj+eV/nrQzPe1E9XPmc6RDDpf7SVZp0hKw8K1Inxj3xdU+5UAwce+yx8QwPAbxCWuWh9HzuDQTK77L+/+gNDs2FERg+AmqTyxTKtolvXgeKLubkIszT1rMYFx5rCPjabhSlOMoBPJkIRx+OQrcU9vlPca82sszb172LgL4VPPNY6wbCuou3Gt8I78v2sndLMn45K+tI/2vVq+qQsQ1tQCnwY83XfHwUALQFUnwzvmOcSzrE40xakJ6ViOtd+ayT1xb4O4mu0zYCw0BAHQUNBAc0VgYEKs8wYBlVUWjI2WqQwQCu8WdmF/v55psv7bTTTo0OoVWBRjtG9U5M9yg+mArBeg5MC2CVa6Y6mEYHAhJU4FZ1Otq/1dGBvLnsBgIDfcu8ZxDPgfCOEMBAX1Z7+m2Eew79VziX77nnKIn3ptGHwBNPPBFKfHH+6KOPplVWWSU89PhW6vWscD73BgL0Yaoj6kt9Gtxxr4PnXPO/55qD/77aAt5xz7mMy3WZZryczD8W+CdzBTh7I1BHQI2EGhfe0zB5YFBHqrfv0Q6zECKL4t16662x4j2r1nOMRzrppJNiTQHc3RD8y8UIxyMeo6nMElrEM22TBkt65rMRGE8IMMhHyFd/zf9Bz0ocpMDXs/r/Rv06AgNpKbwECMXzuXcQYJrTqaeeGtMtxRXT/ljvZ/vtt4/vQM997j0E+A+qD+N/pv+k/oOc6/+/8l7vOev/z7XS0bNeK7kF/l6rEfNjBP6HgBoVbnEF1ECARgXtoqm3EaC+JkyYELsQsKozAzssQuOV2KmABQex7i+//PJDXk9gvOLWK+XGciniOy6FEz332QiMBwTU/9JHq19G2JcgIQxo8xWWZ/X3ZTilo2c+9x4C1Df1yXoNLDwrZY04ZaFh9mFncV3qmsPUewhI2FcfVv5H+R9y1IV26lpCPe/q76lr0ql/E71Uegv8vVQb5sUIFAhowQ8eMQdQRKNj6n0E1CEwh17z6OkMOHg33uqR7QTpFCn3eCt773+t/XNYDl6pOwY2+r77j+m3RmDsIIAgoIE9pZJwUAoMtO+65z9S3gsJ4pVtoMLrvc+9iwB1x9aM7HJTJ9z6L7/88thhBwWQ28g6Qr1z31/dqL+jDkWEr49d+G/zPZThFL4Xz/9dTaAXOTNPRmAcI0DDQiOigQAuZBpc8I4GiXvT/2PvPuDlqMrGjx+aQKghoURakNA7qCBKVykCAgLSRYqKUtRQfEVFioI0QUERBOkgvfcmCoQmVaRDqEIIhF5l//M77/vsf7Lcm9ybO/dm9t7f+Xw2szs7c+bMd+5u9jlt2kuA68mj/GOvvc6gZ6WN/zR7lot796UA3zX8sKGXEYnvJf5+/f7py6vgseogwN99/J9MeVpf8/02sffZj8+Uqf4CHV0nAn1ui9vR9x8NM8cee2zzVrj1P0NL2CrAZ5r/41qD+Phb4H0eJD7rsV1UIJQ//615T+7XBvyT+wp4fAU6EODLgxZ+HiRm/+ULp6P/ZDrY3VUKKKDAJAuUv2d4TrAfvYz4TuL7KX7gTPJB3FGBASpQ56BggF6SLp02w5pOPfXUNG7cuE63p5WfHgDR+tvphr7RVgL94TNrwN9Wf3IWdiAJ8MM6ag+53y//gUTix3bUMsY6lwoooEAVAtGaEXkR8PMdROJWRExIaVJAAQX6s0BUalLpyeOBBx5Ip59++ni/xTo6f1r5n3766WZPjtbv0472cZ0CvS1gwN/bwuavwCQKxD0+2f2tt96a6H8yk3gYd1NAAQXGE6AysVzBSMsWvYxITNjXH1o7xjthXyiggAITEbj44osTLfgTS3T7v+yyy5rfoVQWlL9PJ7a/7yvQGwIG/L2hap4K9FCAmmVuXzZo0KCc09ixY+3S30NTd1dAga4JEPCXW7cI9t9444288yyzzNIcatS13NxKAQUUaE+BCNRHjx6dfv/733dpWCVzLh1zzDHppZdeytsT8JNi2Z4SlrrdBQz42/0KWv5+KcAP7hlnnLEZ8PNj+7333su1xHYP65eX3JNSoDYCfP/woGWfH7x898S41cGDB+dW/qgQqE2hLYgCCihQsQC9mfgOPOWUU5rfgV05xOOPP54uvfTSHOSTR3yndmVft1GgNwQM+HtD1TwVqECA1v1hw4blnPgPhzFh1BBbS1wBrlkooMBEBfiu4bvn9ddfT6+88krenu8kKiMN+CfK5wYKKNAPBB588MF0xhlnNMfkd/WUGMtPzwCCfb8vu6rmdr0lYMDfW7Lmq0APBPjPgQn7IuAnqyeeeCK3uPUgW3dVQAEFuiVAj6IxY8akd955J+83xxxz5In7qAzwR2y3KN1YAQXaUICx+7TYdzfxm+2SSy7xd1t34dy+VwQM+HuF1UwVmHSBqA1mJuwll1yyORv/Pffckxgbxg9wu/VPuq97KqDAxAVo2edBd/57770370CvowUXXDDP0k83VQP+iTu6hQIKtK/AM888k8fjT0rPSn6vHXfccenFF19sXwBL3m8EDPj7zaX0RPqLQIz1ooV/scUWS9NOO20+NWqYX331VYP9/nKhPQ8FaizA9xBj+An4uR0ViYlEF1hggdz7KL6nanwKFk0BBRSYZAG+/xi7z++uSU0PP/xwnrF/Uvd3PwWqEpi6qozMRwEFqhWYZppp0qyzzpoWXXTR3MJGTfOjjz6ahg8f3hzLz49ukwIKKFClAK1Z9CL68MMP8xjU6M46++yz5+8jb8tXpbZ5KaBAHQX4zTVq1Kj8m6u1fEykHPOaxHtzzjlnrhSN17G8/PLL0+abb56GDBkSq1wq0OcCBvx9Tu4BFZi4QIzhpwvtZz/72Rzwc4sXWtpWX3313MJGl/9yim7+drMtq/hcAQW6KxCT9dHCdddddzVvybfsssummWeeudnCz3ZWOnZX1+0VUKAdBKjgPPDAAzvsVXn++eenww8/fLzx+SNHjkxrrLHGJ06NxpvoqfmJN12hQB8JGPD3EbSHUaCrAuXAnS60K620UrroootybfJ5552XttlmmzyGlv9Eyj+2y8+7eiy3U0ABBVoF+A764IMP8tjTa6+9Nnfr5/tm3XXXzT9c+a7x+6ZVzdcKKNCfBGaaaaa0/PLLd3hKVIS2Nq6MGDEiN9B0uIMrFZjMAo7hn8wXwMMr0CrAfyI86DbLj+yllloqj+VnO24Pc/vtt+cf41ExEPv7IzwkXCqgwKQK8L0SY/f5vrnjjjtyVksssURaZJFFcsDPd9OkTGI1qWVyPwUUUEABBRSYdAED/km3c08FelWAH9V022dc2EYbbZQrAPiR/cc//jE9++yzOejnh7k/vHv1Mpi5AgNGgGCfmfkZuz927Nh00kknpTfffDMH+RtssEGae+65cyVkVErayj9g/jQ8UQUUUECBNhYw4G/ji2fR+7cAP6aZqX/GGWdMa665ZqKFjURXsksvvTTfF7sc7PND3aSAAgpMqgABP4+33347XXPNNXnCKvJaeOGFc3d+hhjxnWRSQAEFFFBAgfYRMOBvn2tlSQeYQHTRn3766ROTx2y//fZ51v533303HXXUUXkiv3feeSd3vyXwbx1PNsC4PF0FFOiBAN8hVBrynUKl4rHHHpufM9nUjjvumGeqnm666XJPI1v2ewDtrgoooIACCvSxgAF/H4N7OAW6KkBLG0E84/hp5V9llVXS2muvnSfL4nYwhx56aHrqqady91t+qPODnX1MCiigQFcEolcQ3xsMD3r//ffTCy+8kP7whz/kW4AS2H/5y19Oq6++er7dFN9HfM/wMCmggAIKKKBAewgY8LfHdbKUA1AgWvg5dcbyf/rTn07f/e53c/da1t14443pgAMOSM8//3z+oc6Pd1vekDEpoEBXBPi+4HuDYJ9Z+Z977rlckXjdddfl3Zmk7wc/+EH+7uE7iHlF/I7piqzbKKCAAgooUB8BA/76XAtLosB4AhHws2TcLPe/XnDBBdPuu++ef4DzI53b9R1xxBFp9OjR+Qc7P9552NI/HqUvFFCgRYDviOjGT8v+iy++mI4++uh09tln515DQ4YMyd81Sy65ZG7d5zuo/J3Ukp0vFVBAAQUUUKCmAs6+U9MLY7EUCAFa1Uj8OB88eHCewO+9995LBx54YBo3blz6y1/+kn+s77fffrlCoDzO1ta4UHSpwMAWiG74fCfwPLrx813y8MMPp9/97nfpggsuyBWHEex/9atfzd85BPu27g/svx/PXgEFFFCgfQUM+Nv32lnyASIQQXv5Nn1f+9rX0muvvZb+9Kc/pTFjxqRLLrkkvfrqq2mPPfZIa6yxRmKiv/iRzrjbyGOAkHmaCijQIkCQz/cAgT633aMn0FtvvZVn4j/ssMPSLbfckisC6En0ve99L22xxRaJwJ85RAz2WzB9qYACCiigQBsJGPC30cWyqANbgB/d/GiPWfs333zzNHTo0PSb3/wm/ec//8k/2Gmp22GHHdLGG2+cx/rT2k/gT9DP/pHKFQDllr94v7yM1kArDsoqPleg7wW68lnt6LNNSQn0o1Wf2+4988wz6a9//Ws688wz80R95D3PPPOkXXbZJW2yySZpjjnmaFYc8tk3KaCAAgoooEB7Chjwt+d1s9QDUIAf6wTvJO6HPffcc6f11lsvDRo0KHfrHzVqVGL2/sMPPzy3+NNCx6z+Cy20UJ70j5Y6EnmUgwLynVgLHtsTEJT3y5n5jwIK1EKAzzGt9uXgnM9szOvBku77Tz/9dLrsssvyd8T999+fKwHYZ5lllkm77rpr7iE022yz5WCf9eWKwlqcqIVQQAEFFFBAgW4JGPB3i8uNFZh8Avx4j+CcUhDo82P8K1/5Sh67f+qpp6Yrr7wyd/Gnpf/ggw9OJ554Yr6dH938mXxrlllmyY/o8k8Az4Mf9jwmFNAb8E++a++RFehMgM9lBPYsIxHg05L/5ptv5orAxx57LDH7/m233da8swefd+YFWX/99dM222yTFltssfz9MO20036iYjDydamAAgoooIAC7SVgwN9e18vSDmCBaGmLVrwYo896AviRI0emtdZaK51xxhm5ez/jc5999tncZZduu3TRXWCBBXKLP7f4m3322RMteVQCUHnAg3xizG4MBYiKAJYmBRSYPAJU9hHQR0s+3wNxOz1m2af1ngD/9ddfz/N70NuHz/9TTz2VHnnkkRz0l0s+44wz5srATTfdNH3hC1/I4/XpOcTt9/is873CMUwKKKCAAgoo0N4CBvztff0s/QARiJY7fuxHq3xUAEDAD3QCdIL3ESNGpH/961/p4osvTvfcc0/+8f/uu++ml19+OT9uv/32vD2tePy4Lwf45BkBfhwnWv1jOUDIPU0FaifA90D5EZUABOZRAcCEfB988EGiEoD3I/H5pUKPQH/VVVdN66yzTlpqqaXyLT4J9Jnvg++E+NyTX1TyxXO/A0LTpQIKKKCAAu0jYMDfPtfKkg5gAX64R6sbDPwAJxGgR5DOMn7QM75/xRVXzLfru/POO9NDDz2UnnjiidyVl5Y/WgOpBOBhUkCB/ilAhR49eZiMj949BPjLLbdcmm+++XLlIME/20RvoQj20eD7JBLfPVQ0GPCHiEsFFFBAAQXaR8CAv32ulSUdwALlH98wlF9HKxw/xlnPg9Y6bq8155xz5vH9BPjcvm/s2LFp3LhxuaWfmf0J/t94443cFZjgn5ZBWgjpKkwlA8+jdwHrTAoo0PcCfKYj2ObzznOW0UOHJUNyCOB5cPeOYcOG5c8/vX64vR7reI/t4u4dMWynnH9HZ8fx4vgdve86BRRQQAEFFKivgAF/fa+NJVOgWwIEAK3BAD0BZpppphzAM24/uvuyjGCeQJ7toqvwhAJ73osf/rHsViHdWAEFuizAZzI+09HLp7xzvMcyKvt4HoF8VAjwmqE7sZ5tSLz2c1wW9bkCCiiggAL9T8CAv/9dU89ogAgQAPBobZ3jdfygZ8k2/NgnqOfHPa95zpLU2oIfr1sZWc9+5GmQ0KrjawWqFyh/zvj8lV/H0eLzyHvxued5fC/wvPwob8P6cuI7gUfsW37P5woooIACCijQngIG/O153Sy1AvnHffx4b+Xgh3wE7rTikVjHD3mCdioATAoo0H8EogIvvhPiO4DPfOt7vO6oAoF9Y//+I+OZKKCAAgooMLAFDPgH9vX37Pu5QLkFjx/+pFj281P39BQYUAIRqJc/8wEQ73X2Ota7VEABBRRQQIH+J2DA3/+uqWekQBbo6Ie/NAoo0D8F/Lz3z+vqWSmggAIKKNBTgf+duaenubi/AgoooIACCiiggAIKKKCAAgrUSsCAv1aXw8IooIACCiiggAIKKKCAAgooUI2AAX81juaigAIKKKCAAgoooIACCiigQK0EDPhrdTksjAIKKKCAAgoooIACCiiggALVCBjwV+NoLgoooIACCiiggAIKKKCAAgrUSsCAv1aXw8IooIACCiiggAIKKKCAAgooUI2AAX81juaigAIKKKCAAgoooIACCiigQK0EDPhrdTksjAIKKKCAAgoooIACCiiggALVCBjwV+NoLgoooIACCiiggAIKKKCAAgrUSsCAv1aXw8IooIACCiiggAIKKKCAAgooUI2AAX81juaigAIKKKCAAgoooIACCiigQK0EDPhrdTksjAIKKKCAAgoooIACCiiggALVCBjwV+NoLgoooIACCiiggAIKKKCAAgrUSsCAv1aXw8IooIACCiiggAIKKKCAAgooUI2AAX81juaigAIKKKCAAgoooIACCiigQK0EDPhrdTksjAIKKKCAAgoooIACCiiggALVCBjwV+NoLgoooIACCiiggAIKKKCAAgrUSsCAv1aXw8IooIACCiiggAIKKKCAAgooUI2AAX81juaigAIKKKCAAgoooIACCiigQK0EDPhrdTksjAIKKKCAAgoooIACCiiggALVCBjwV+NoLgoooIACCiiggAIKKKCAAgrUSsCAv1aXw8IooIACCiiggAIKKKCAAgooUI2AAX81juaigAIKKKCAAgoooIACCiigQK0EDPhrdTksjAIKKKCAAgoooIACCiiggALVCBjwV+NoLgoooIACCiiggAIKKKCAAgrUSsCAv1aXw8IooIACCiiggAIKKKCAAgooUI2AAX81juaigAIKKKCAAgoooIACCiigQK0EDPhrdTksjAIKKKCAAgoooIACCiiggALVCBjwV+NoLgoooIACCiiggAIKKKCAAgrUSsCAv1aXw8IooIACCiiggAIKKKCAAgooUI2AAX81juaigAIKKKCAAgoooIACCiigQK0EDPhrdTksjAIKKKCAAgoooIACCiiggALVCBjwV+NoLgoooIACCiiggAIKKKCAAgrUSsCAv1aXw8IooIACCiiggAIKKKCAAgooUI2AAX81juaigAIKKKCAAgoooIACCiigQK0EDPhrdTksjAIKKKCAAgoooIACCiiggALVCBjwV+NoLgoooIACCiiggAIKKKCAAgrUSsCAv1aXw8IooIACCiiggAIKKKCAAgooUI2AAX81juaigAIKKKCAAgoooIACCiigQK0EDPhrdTksjAIKKKCAAgoooIACCiiggALVCBjwV+NoLgoooIACCiiggAIKKKCAAgrUSsCAv1aXw8IooIACCiiggAIKKKCAAgooUI2AAX81juaigAIKKKCAAgoooIACCiigQK0EDPhrdTksjAIKKKCAAgoooIACCiiggALVCBjwV+NoLgoooIACCiiggAIKKKCAAgrUSsCAv1aXw8IooIACCiiggAIKKKCAAgooUI2AAX81juaigAIKKKCAAgoooIACCiigQK0EDPhrdTksjAIKKKCAAgoooIACCiiggALVCBjwV+NoLgoooIACCiiggAIKKKCAAgrUSsCAv1aXw8IooIACCiiggAIKKKCAAgooUI2AAX81juaigAIKKKCAAgoooIACCiigQK0EDPhrdTksjAIKKKCAAgoooIACCiiggALVCBjwV+NoLgoooIACCiiggAIKKKCAAgrUSsCAv1aXw8IooIACCiiggAIKKKCAAgooUI2AAX81juaigAIKKKCAAgoooIACCiigQK0EDPhrdTksjAIKKKCAAgoooIACCiiggALVCBjwV+NoLgoooIACCiiggAIKKKCAAgrUSsCAv1aXw8IooIACCiiggAIKKKCAAgooUI2AAX81juaigAIKKKCAAgoooIACCiigQK0EDPhrdTksjAIKKKCAAgoooIACCiiggALVCBjwV+NoLgoooIACCiiggAIKKKCAAgrUSsCAv1aXw8IooIACCiiggAIKKKCAAgooUI2AAX81juaigAIKKKCAAgoooIACCiigQK0EDPhrdTksjAIKKKCAAgoooIACCiiggALVCBjwV+NoLgoooIACCiiggAIKKKCAAgrUSsCAv1aXw8IooIACCiiggAIKKKCAAgooUI2AAX81juaigAIKKKCAAgoooIACCiigQK0EDPhrdTksjAIKKKCAAgoooIACCiiggALVCBjwV+NoLgoooIACCiiggAIKKKCAAgrUSsCAv1aXw8IooIACCiiggAIKKKCAAgooUI2AAX81juaigAIKKKCAAgoooIACCiigQK0EDPhrdTksjAIKKKCAAgoooIACCiiggALVCBjwV+NoLgoooIACCiiggAIKKKCAAgrUSsCAv1aXw8IooIACCiiggAIKKKCAAgooUI2AAX81juaigAIKKKCAAgoooIACCiigQK0EDPhrdTksjAIKKKCAAgoooIACCiiggALVCBjwV+NoLgoooIACCiiggAIKKKCAAgrUSsCAv1aXw8IooIACCiiggAIKKKCAAgooUI2AAX81juaigAIKKKCAAgoooIACCiigQK0EDPhrdTksjAIKKKCAAgoooIACCiiggALVCBjwV+NoLgoooIACCiiggAIKKKCAAgrUSsCAv1aXw8IooIACCiiggAIKKKCAAgooUI2AAX81juaigAIKKKCAAgoooIACCiigQK0EDPhrdTksjAIKKKCAAgoooIACCiiggALVCBjwV+NoLgoooIACCiiggAIKKKCAAgrUSsCAv1aXw8IooIACCiiggAIKKKCAAgooUI2AAX81juaigAIKKKCAAgoooIACCiigQK0EDPhrdTksjAIKKKCAAgoooIACCiiggALVCBjwV+NoLgoooIACCiiggEPIoQ8AAEAASURBVAIKKKCAAgrUSsCAv1aXw8IooIACCiiggAIKKKCAAgooUI2AAX81juaigAIKKKCAAgoooIACCiigQK0EDPhrdTksjAIKKKCAAgoooIACCiiggALVCExdTTbmooACCiiggAIKKKCAAgr0P4GPP/64eVLvvPNOKr/mjXj90UcfpSmnnDI/mjv4RIHJLGAL/2S+AB5eAQUUUEABBRRQQAEF6iswxRRTJB4PP/xwOv/88xOBfTn98Y9/TKNHj05TTTVV3q78ns8VmNwCBvyT+wp4fAUUUEABBRRQQAEFFKitAMH+mDFj0o9+9KN02223faKcN998cxo5cmQaN26cAf8ndFwxuQUM+Cf3FfD4CiiggAIKKKCAAgooUFsBWva32WabdO2116ZGo/GJcn744YfpggsuSDvssEN65plnmtuwbUfbfyIDVyjQiwJTFH+En/yr7cUDmrUCCiiggAIKKKCAAgoo0A4CtOxvt9126eqrr55o8D7NNNOkjTbaKB133HFp1llnbZ4e4/pNCkwuAf/6Jpe8x1VAAQUUUEABBRRQQIFaCvz3v//NY/a7GuxzErT0M8Z/5513Ts8991yezM9gv5aXd0AVyhb+AXW5PVkFFFBAAQUUUEABBRSYmEB3WvZb84qWfibzGzJkSOvbvlagTwVs4e9Tbg+mgAIKKKCAAgoooIACdRZ48cUX03e+850udePv6DyipX+33XZLb7zxRkebuE6BPhMw4O8zag+kgAIKKKCAAgoooIAC7SDwqU99qkfF/Pjjj9MMM8zwiVv49ShTd1ZgEgTs0j8JaO6igAIKKKCAAgoooIAC/VOAOc1fffXVtNNOO6XLL788j83vzplOO+20adttt02HHHKIXfq7A+e2vSJgC3+vsJqpAgoooIACCiiggAIKtKPAFFNMkQP13/72t2nDDTdMvO5O2nLLLdNBBx1ksN8dNLftNQFb+HuN1owVUEABBRRQQAEFFFCgXQVo6R87dmxu6b/iiism2tLPMICtttoqHXrooWno0KH5tLtbWdCuVpa7vgK28Nf32lgyBRRQQAEFFFBAAQUUmAwC3JaPROB+1FFHpQ022CBN7BZ7W2+9dfrVr36V96GygIdJgcktYAv/5L4CHl8BBRRQQAEFFFBAAQVqJUCwzsR7U001VZ54L8b0X3nllZ+YiI+WfbrxH3bYYWn22WfP+7E/+5oUmNwCtvBP7ivg8RVQQAEFFFBAAQUUUKBWAnTFj4B96qmnTnPMMUf63e9+l8f0t7b007LPBH0E+yTej31rdVIWZkAK2MI/IC+7J62AAgoooIACCijQUwFacTsao93Z+gkdj31IHeU3of18r/cF4tpwpJdffjmP6b/qqqtyYL/pppsmJvejQsBUb4G4jh19xujNwftU1kTPjvLZxPvtWJFjwF++kj5XQAEFFFBAAQUUUKALAq0BAK9JETCUW4EJJHg/Ao0IPNg+AgjWMW6c1mRTvQTiesX1e/LJJ9PIkSPT4MGD85j9OeecMxe4fM3rdQaWBoH4DHId+ayx5MH15RHXl23jc9z6nNekuNbkE5/h/32nfv8a8NfvmlgiBRRQQAEFFFBAgZoLRIAeAQPFjcCw9XnNT8XidVOA68zs/dNMM02aZZZZurm3m7eTQLkSIJ4T7POcB5UIvOZvgud1DP6tQmynvzjLqoACCiiggAIKKDDZBfhhzw98HrTwlZ/z3gcffJDefvvt9N5776X3338/v/7oo49yQMD25f3LJxPry+t8roAC1QgQjMdntRy0E7jTs4YH21CRM9100+XHjDPO2FwfQT5L9mdbPrOkeF1NSavNxYC/Wk9zU0ABBRRQQAEFFGhTAYIBEj/oSfGa5/ywj4D83XffTa+99lpi5na6dz/22GPp0UcfTS+88EIaM2ZMeuedd/JM7gT3rQF+5BlL8o7U0bp4z6UCCvRMoPy5juflZbkSgGCeB5UABP3cnnGeeeZJI0aMSEsuuWR+Pttss+UeHtNPP33+zojhOJFnz0pb3d4G/NVZmpMCCiiggAIKKKBAmwgQvPPDvPXHOUF3eV204NNCTzB/0003pbvvvjvdeeed6ZFHHslBf5ucssVUQIGKBIYMGZKWWmqptMwyy6SVV145rbjiinnixqgo4DBUIJDK3ye8joq91vW81xvJMfy9oWqeCiiggAIKKKCAArUWiB/dUcjyj2/ei5Z5uuU/++yz6eKLL07nnXdeeuKJJ9Kbb7453o92ugBzL/Zyt2Ba/QYNGpTXR0thORiI1sA4vksFFOh7ASrySNEbh9cMyfnwww8TPXkYksM6HqyLR3x/8L0x66yzpvnmmy9ts802ad11103zzz9/8/uA99mWCkY+87Efxyx/5/C6t5IBf2/Jmq8CCiiggAIKKKBA7QXKLf08J7Hkhz4t+meddVY65ZRTcmt+nAw/1JmZnS6+/Life+6501xzzZVnbaflb4YZZmh2B2bbcktf+Uc+6wkAWMcytovjuFRAgWoE+HzFozVH1pPi/fgeIMjn+RtvvJHGjRuXXnrppXxbxueeey49//zz6emnn86TN8b+5LHYYoulXXbZJW2wwQb5O4LKwHLlHtuSJ5V/fZUM+PtK2uMooIACCiiggAIK1FqAH+L8yKdl77bbbkuHHnpoGjVqVH5NMM5YXsbvrrLKKnksL+N6edCSP+200+Yf8fzA58c82xPI82O/HOSXASLQLy/L7/tcAQWqFSgH553lHL17eD9a91lHJSDLt956K1cAMGcHPX6uv/769Pjjj+f15E+FH138f/WrX+UKAL4f+E7gc97Zd0FnZalivQF/FYrmoYACCiiggAIKKNDWAgT7dNelJe+0005Lhx12WG7N46QI9FddddX05S9/OS2//PJp5plnTjPNNFNzJm9+zBPYR5DfUUt9tOh19F5bw1l4BdpcgM9+JAL6cooWedaxHe/T5Z/gn4pBhvcweeeDDz6YLr300nTHHXfkO3SwPd38d99997TDDjvkSsH4nuC9vkwG/H2p7bEUUEABBRRQQAEFaiEQLX20uPFDnh/xdOH/7W9/m0488cTcjZcf6EsssUTadNNN00orrZS77TMzN7fsokU/gnxOqNxtd0InaMA/IR3fU6DvBfguiO+DCR2dYD+25TuD1v+4BSfd/pnrgwk9qTCk5Z/tqRwcOXJkDvrnmGOO8Xr/TOhYVb5nwF+lpnkpoIACCiiggAIKtIUAP9ijKz0/2umee9BBB6WTTz45/6inVX+dddZJ2267bR6nT9d9frwzOR9BewTu5BHP2+LELaQCCvRYIHoCsIzAn6Cf1n5u03n22Wenyy67LFcIUDnI9wjfL/QMigk+e1yILmbgbfm6COVmCiiggAIKKKCAAv1HgCCdH+r8YOdH+u9///s8QR8tePwo33777dOGG26Yhg8fnmfhZhwurfjRks/+bBuVBixNCigwMATKQ3T4LuB7gfk7GL/PHTroCUSl4QUXXJDH9tPqTxf/nXfeOb8XFY598b0x1S+LNDAui2epgAIKKKCAAgoooMD/CvCDm2CfcbjHHXdcHrNPSz8/1L///e+nzTffPC2wwAKJWfcj2OeHPT/02Zfn8WM9XmurgAL9WyAC9TjL+A5gGUE/3xc8Flpoodwr6J577knc3vOuu+7Kr5kHJL4/WPZ26v0j9PYZmL8CCiiggAIKKKCAAt0U4Ic7Af5NN92Ujj/++NzaT+sc99Lmllrccm/w4MHNsfr8mI8f59G6F4dsfR3rXSqgQP8XiOCd7wG+J+jCz3fHvPPOm77+9a/nOUCY94MJ/pgj5IEHHsiT/vWVjC38fSXtcRRQQAEFFFBAAQUmuwCBPonu/E8++WSeUOvhhx/OLfff/OY304477pi73s4666zNFjt+yNOCF615k/0kLIACCkwWgc6+A2J9fE9QCcBYfQL94cWwoNdffz099NBDeQb/Z555Jn3xi1/MQ4WisqA3T8YW/t7UNW8FFFBAAQUUUECBWggw3j4m2iLYf+edd9L555+f/vnPf+byLbfccrklbtiwYc2JtRiTG636tTgJC6GAArUX4DuDln6C/VlmmSVXIDJp34gRI3LZ//GPf6Qrrrgi9zDiu4jvJhLLeJ5XVPSPAX9FkGajgAIKKKCAAgooUF8BfkjT+hazatOt9qSTTsrj8Rm3z2RaiyyySG51o2WObQ3263s9LZkCdRaIFn++S/h+WWyxxdJOO+2Uv18Yz3/UUUel559/Pn344YfNikgD/jpfUcumgAIKKKCAAgooUGuBctdZxtJefPHF+VZ8FHrVVVdNn/3sZ/MPc8bflsfr1/qkLJwCCtRKgKC93GrPcCCCflr6V1555bTiiivm8hLsX3TRRbmVPwJ9vqN6o5LRFv5a/YlYGAUUUEABBRRQQIHeFODH+OjRo3N3fp7PNddceUb+OeecM99SK8bgRgtdb5bFvBVQoH8J8L0RFYYsI+DnFn3clu9b3/pW7upPkH/eeefl76JyBUFvaBjw94aqeSqggAIKKKCAAgrUSoAf2HTnpwvt3XffnZ599tlcvhVWWCGPrWWG/phluzda2WqFYWEUUKDPBKISYKaZZkoLL7xwWnbZZfOx//3vf6d77703fy/F91NvFMqAvzdUzVMBBRRQQAEFFFCgVgLMzk/Az/jZyy+/PI/dp9XtK1/5SqJ1nwm2aJGzZb9Wl83CKND2AnynUIk4/fTTpyFDhqSvfe1r+fvm7bffTtddd13+TqKVnwrH3kgG/L2hap4KKKCAAgoooIACtRLgBzetaGPHjk2PPPJILhstbssss0waNGhQr4ydrRWAhVFAgckmwPcPgT89iZitf/bZZ89lobcRlZBUSPL91BvJgL83VM1TAQUUUEABBRRQoFYC/KCmO/99992Xg34Kt+SSSyZuw8dEfbbs1+pyWRgF+pUA3y9M3kdPIu4GMnz48Hx+VD4ygR+9j3j0RjLg7w1V81RAAQUUUEABBRSojUD8kGb51FNPJbrSkrhVVnTlpzutY/drc8ksiAL9UoDvGYYSLbjggvn8aNV/6KGHcmVkb52wAX9vyZqvAgoooIACCiigQC0Eojv/u+++m5588sn0/vvv5+B+6aWXzq37vG+wX4tLZSEU6LcCtPJPM800eQgRQ4lIBPwPPPBAvpVfb524AX9vyZqvAgoooIACCiigQC0EorssAf9LL72UyzTzzDOn2WabLXez5Yc4Xf5NCnQmwN9Qb42x7uyYru9fAnzPRND/mc98pnlyL7zwQq9+/xjwN6l9ooACCiiggAIKKNAfBQjUCOjpyv/iiy/mUxw6dGgi6KdlP36I98dzn9A54dIaxMbkYa3rY1uWrfcNj/cmdKx2f29CPUAm9/nH8a20ao+/Mu4GMvfcc+fKRkpMJeSbb76Zu/X3xjWcuj1YLKUCCiiggAIKKKCAApMuQFBEC//rr7+eM5llllnyjNn8+B6ot+PDhMqO1hTrCT7KgW68xott4jXPefTWbcVayzc5XnfkRMVHpKg4itd9sXzuuefSbbfd1qy0WXHFFdP888/fF4f2GJMgwOeFB58TuvbzHTRmzJhcEfnWW29NQo5d28WAv2tObqWAAgoooIACCijQpgIRrH3wwQe5JY3TYOKsmJ2/HLzGtm16ql0udjn4KO/EehIVI6+88koiEOHuBtzCkACFXhE8xyysCHZ5PRASXfvjvON8ec0jDFrfj+2qXo4aNSptvfXWzWxPO+00A/6mRv2e8HcRlYssZ5111hzwv/POO/lzFn8/VZfcgL9qUfNTQAEFFFBAAQUUqJ0AgSyBK/e8Jg0aNKgZ8PdVgFYnFIL01tZ7yvfYY4+lCy64IBFMPvPMM2ncuHG5Cz/BPsMg5pxzzrTOOuukjTbaKA0ZMqR5SgPFkNZZArNLLrkkXXzxxbnFlsqjnXbaKTERG+/1lQXH4m86Um8FjJG/y54JxN8FSz57M8wwQ86Qiki+l3rr+hnw9+y6ubcCCiiggAIKKKBAzQX4Ic0jflhT3Omnnz63tkXQy5JKgfhRXvNTqrR4tFoT6P/pT39Kp556am7dZ105MbFYJALdX/3qV2nnnXdOO+64Y5pjjjnirYkuMQ7ziW5cbNDd7ct5RgDVek3jOpfXd7SunFf5Ofvdd9992QonKj6oBFl22WXzZhy3nHd534H2vCfXr79a8bdBC38E/Nw1xIC/v15tz0sBBRRQQAEFFFCgTwQIPHhEi+inPvWp/KO7Tw5e44Ngctddd6WRI0emW265pUslxfCpp55K++23X3riiSfSwQcfnGafffbx9iUQrnJM/8Tym9j75cJ1FJDjEOXlOamzignej23K+fI8KhlYdrZ/7MM28SAIjEesYxk9Cng+sfwi39Zl5NfV/dk+zq/VJMrUeoyOXnNNWlN3rlPrvu38unzemBLwU+lIYi6I+F7qjXO0hb83VM1TAQUUUEABBRRQoHYCBDERhDB+n4mzSKzjB3hXA6LanVgPCvSPf/wjt9Q/+uijzVzotr/++uunddddNy266KK5JfL5559P9957bzrvvPNyBUGM7T/55JMT7x133HFpvvnma7ZsRwt3OXjEN4xZT2K71udcJ7ZjfeQT+7EP68vvsU3r+1zTWBd5tAax5TwisGUdqVyuWMcytos888bFP7zHI8rNeo4X6+KcyvmyTeQT68uveT/yjfWsm1DivNk2zr28LXlF6iy/2Kb8fuu6eE1e5e0i73if93hw7h0tO9o38uhvy7ge8f3D+VHpSGJdeQLIvLLCfwz4K8Q0KwUUUEABBRRQQIH6CpRb0QjwIyAZSIFH+erQTf8nP/lJKgf7K620Uvqf//mftPbaazd7QBDkDh8+PH3xi19MW265ZTrhhBNyqz4T+xGsXHXVVenPf/5z+uUvf5kDzbInz9mf7Qj8mBeAmeWZYZ51n/70p9NSSy2VllhiiTynAts8+OCDecJAnlMps8oqqzQDbfZ57bXX8jYESeS/4IILpnnnnTefGudy880350qKbbbZpny64z1nbgJ6NIwePTqNHTs2H3ueeebJ3fIXXnjh5nlwPMof5/Twww+nZ599Nj355JPNVnCGitDFn3khSAS8eHGvdfblPMKAJeVmf+ZJ4BoQDA4bNiwfe8kll2wGx7fffntiQjfyGzx4cHaKSqoIIMc7qeIF+ZM4ZiRuRfnQQw81z4H8qNRZfPHF8zXmdZSRfTife+65JxszizzvM2xhscUWS5///OezVeTNEiPKgxHPH3jggWxKnkzwyDlhw7lcd911+dyZA4LrNlBS/P1wfeJ7iO8gEmbl61W5SXEBTQoooIACCiiggAIK9FuBIoBpFAFe45xzzqGJMz+KSdYaReDWKG7V1yh+cPfbc+/sxDjvIrBvFAFI9igCkkbRqp9N8CgCkOzCsjUVY44bRx11VKPoJdH0LAL3xq233pr3a92+CHAad955Z2OLLbZoFOP9G0VX5kYRuDaKgKcx3XTTNYrZyhurrbZa48orr2wU9yRvbLbZZo0iUMyP4n7ljbfffjtnSbl4XH755Y0iwM/vF5MJNg4//PBGEeg3Nt1000YRmOZyrbHGGq3FaBSBdqMItBs//vGPG8Xt6xrFZHuNopU1G1AWylUE1o0iGM1lKcZV5/MpG+y55575uOwXf0ss2TfKzPKAAw5ocN7lhPnf/va3xte//vV8HM6d42LBc8q+3nrrNW644YZG0YOi8bnPfa6Z51e/+tVGEbiPV57y3zNlOOuss5qHo8w8nnrqqcaXv/zlZj6UbZFFFmkUPTua14pyYlNUfDROPPHERhHUN3CN8lFGrnVxh4bG0ksv3fj973+ft41jxJKDc45bbbVV83hFBVKjqAzJ+RYVDI1i3Ho+3+uvv755/GahB8ATrIqKj3xdvvGNb+S/Ia77GWec0XjzzTd75bvIFv7i02FSQAEFFFBAAQUU6P8CxY/tfJK0ttHSFq2h0frW/wX+/xkWgWAqAsbcushaWnyLQDgVAXZuqS1ir7xx2PCaBy25dEWm9Zxu/TGZH+tpKcc4XMmA1kwm+fvpT3+aJwbMmZb+obWbCcuKQDi3Qu+yyy6pCBqbt08st2THc8rBsYsAKZeHCQd32223dPXVVzdzLioG8rmVy8Ix9t1339yy3tyw9ISycOyLLrool4ceC0xKGJOrcW7lspV2zevLr2klj783yoLjKaeckoqKgKZZeXuccLjiiivS/fffn3tL0AuBcyRxXM47rkd5346esx1G+++/f7rpppuaXca508Jee+2Ve2vEfhjR4+LXv/517r1BeVsTNkwuR9l23333VFTgpF/84hdpeNGToWzMfpxHlJtlURGRikqCfL/5yJf8unM+sV9/WfK3XFSk5NPh7yT+Vnrj/Az4e0PVPBVQQAEFFFBAAQVqJUBwQZARKYLHrgZQsV9/WRIE0q080re//e3cdT48WMbz2Kb8erbZZkt77713s8KAbQj8whVvUtGSm773ve/lyoC8oviH29jRlZ/gk0CXigICTrqP/+Y3v2mObY7tJ7QkUCpaR8cLuJmfoWidHq8sdGmnkoLu7ZHowk8FB0Hrf/7znzwXAUMOCNYZNvDzn/88B7k/+tGPcnDG+bMt3dqZt4AHicCN7vvcVz0S+YYFZTz77LNzZQPnGolbHeLAfgTTr776anbAouhJMF6AHPt0dUkFQdELI9vE3z3HO+SQQ7JDOZ833ngjT9p44YUXNq9n0Zqfil4QaYEFFsiB+dNPP52HYzCMg2uLOWZUGpFvZ4khFkcffXTz+vA3wvXBrPz31Nn+/WU9lSjlihH+NuLvg3M04O8vV9rzUEABBRRQQAEFFOhzAQILflBHEMrrCDb40c36eN3nheujA0ZAEUEG4+7DgwBs2223bbY4dlSkVh9eM548xpS37kPeBIS0aJeDXAJm5g0oupnncfcEo8z0z2SABIYElAS/3Um0ZJMY67/mmmsmAvnyBIIcn9boCPYJvJij4Gc/+1keN8/5U156Cpx77rm50qEYRpAIhLkDwde+9rU83p1zphfEHnvskW9LeNBBB+UAmYD3sMMOy5Mcsk08sMb96SJYpvW87MCcBQT1lHeuuebKlQwEx9wWkfkQaN2f1IQp5/Hb3/62OV6cGeG5E8N2222XA89oxceCFnj84++BIJ/rVgwjyLdcZH0x1CIVQw3yeVN5wv7XXHNNOumkk3KLP2UtB7RRdip0eFC5s8kmm2RH5iNgMkicBkrqyCY+i+Xvpt7wsIW/N1TNUwEFFFBAAQUUUKA2AhHIRJBTLhjvxQ9vnvfXIITzisCC82RitUgEXwRkVSXyJ+g8//zz8+RvkS+TxBHMFmPT8ypaeakwYD0TBVKOH/7wh+nll1+OXbq0JJiiFwHd12ktLwdXlIXeDEwWF4nKhmOOOSYNLyofcKGs7MPx6bVAmciLrum09FMRceyxx+YKEf5W2Cf+ZiJPXpMH7/Eg4c2DrvyPPPJIbJo++9nPptNPPz2NGDGimQ/DJJZbbrk8MR6T3DFEgeN3N3G+TEa4zz775B4D7E9vB7rxYxvdyKOMDO0oxu03g316HND9njs0kBcPUjH3QirmYMg9Enbeeef0+OOP5/WnnXZarjzBrqPPFxsxXOSSSy7Jkw5ynnHsnMEA/qf1byisqyaZsuoMzU8BBRRQQAEFFFBAgboJtAYZ8WO7vL63fnDXxYJz5UErOi3YkQjIOmupj226uiTow5FWd4LsCFppYWbsN8FuBMdRAUGgTCs7M7dzF4DuJmaP//73v59nki8H+5HPZZddllvr4zWVC7Rix7Uv74MDZVhhhRVi8zzmn272kWK/eB1L1sffEOdGYngAcwLEeuYDYB6BYuK87MD6eI/9cSomH0wbbrhhs3yRf1eW//73v3PPAXpXkDg3WvWpACgm7BvvWLx/9913J+48QOL4G2+8cVprrbWaFRH5jf/7h+tGL4piUsXmao7HXRXYl0dr4vjMy7D88svnige2ic9e67YD/XX8HVTtYAt/1aLmp4ACCiiggAIKKFA7gQn9mOa9/h6IlAMybo8WASkXimC7qiAs8qFCgWAy0uyzz55biKNiAXMesT3lI9glOKT1vbPW4sivvKR7PAF8nFPkyTYcgxb+SJSD8fXcWq+zxLHpZh+J4Jnu/sOLHgETShw/Kg84HxIBcQTfvKbC40tf+hJPm0Fy67kyRIDWdLrMd6drP8eh58A///nPnD8O3/rWt3JvBa4x5cMjjs1xuf1eDImg7ATm5BPnwbbsw77kx5LW/EhU6JAHlRRl93if7vtf+MIXcn7si0vkFdsM9CW+8egNCwP+3lA1TwUUUEABBRRQQIHaCxB8EKREcFb7AldUwNZu77T40629KykCk46Cu9ifbZg0rhzocs/18uRumJeDytiXruME5Eye19VEN3QqC0gcm0A28mb8eDm4pyKi3ELd2THi7gO8T0BM1/6JpThm+fhM7EcrfyRa9mPW/1gX+8VrbBZaaKHcIt+dgP+EE07IdzqIfNZZZ508BwGm5RRGlLNsw+viFoe5S395+9bn0Wsj1nOOnQXx/K0xXKSz6x15uOx4DoQqXAz4q1A0DwUUUEABBRRQQAEF2kRg0KBBOQhjIjbS6NGjc9d7Ar6oACEoJIhrDUbZPipI2J7nbBvb8ZoHQTLvR2IW+4klticfWuu7GvBzLFrty6lcGUGAz3lEonfDvffeGy+7tKRcVBx0NYUJ23NburIDlRmMY59QwpMeBlGJMaFty+8xmV4k5kVgUsHiHu/jBeOUhfJhxHGo7InEa3okdDdRuUOeHSXOobWCo6PtBvI67Drzq8LFgL8KRfNQQAEFFFBAAQUUUKBNBAjs6Fb+r3/9K5eY4Jpx3ASZ5SC/oyAk1pFHOVCJFt5YUqlQTuXW/vL68nPyo6fBK6+8Ul49wWCIfaKygZ2ifJEBXdnLiWCbngat25W3aX3ObQRpqe5qwobEMQh2yxUQzNQfkwR2lh/7U1HQnUoG8mJCvuipQSUOQwKWWWaZ8Y5ftmKf1koFbrcYE/vxflcSd0WIc27dHoPuWLfu7+ueCxjw99zQHBRQQAEFFFBAAQUUqLVAtDITfPKguzezsxMgEqxxCzfGb5cD2wkFagT23Dee1l0S2zIpHPdvJxFIEjyyDYlZ6ukKTgDeWb6sp0We2/SVU2fBZHmbeB7bxjFay8Ht+pgxvjXwjf3LS8zYDq8Y08+6cgBf3j6es0+0pNP7IOYt4H3mAqCXQWtFROzLkrI/+eSTzbH15fcm9HzHHXdMF1xwQRozZkx2PPTQQ3NPjq233jpPmNe6L+WM8+I9yvmHP/wh36owKn5aPeN1vM95cp0n5BnXovX4vu4bAQP+vnH2KAoooIACCiiggAIKTDaB1oCMyeOYTO3vf/97LhMT25199tlpp512yi28EwvSCFyZGT/GutNyzj3qt91225wfreK0Lt944435ddzHnXu7d9aCzDGvvvrq5sz+k4oVwSj7kyfnefnll+fsuA0dlRrDhg2bpOxbHTvLJPzoWs/xYg6Au+66K9/SLm5N2NH+jPm/+eabuzVhH/nQa2PFFVfMs/RT0cLjpz/9aa5c2GabbXLFDgF7VFhwLksvvXQeYsAxCd4Z088EfBM7zwj8y/l1dC6si207e9/1vSvgbfl619fcFVBAAQUUUEABBRSonQABL8E9rfIkxtwfdthh6aqrrsqt9p0FaQTTtCAzPpxgnpZ7HgSRa6+9dl6yLy39q6++ejO4p4s6vQg6G5tPvoyt5x7wPUkE2hGskidl4Z7y0cpOUEs5aGXvKLE9lQ5f+9rXEpUTPH7961/n7vW8x4MUQTPPWcexSOTP6wj4Cfa5zV0k7MiPyfgir3iPJfkwyz4T8E1Kl35m999zzz2b8wS8/PLLidsQXnvttc1eB3E8ykilzPzzz59XcWx6CDz++OMdlo3y0vNg5513ztea681z1nHepnoKGPDX87pYKgUUUEABBRRQQAEFek2AoPib3/xmvkd7BK8EbltttVX62c9+lrvVRxAbhaD7/g033JBv9UZvgEiM16clOVrNCQxpxf/GN76RhpduZce+e+21V7rvvvvGCxAZVkCL9m677ZYeeOCByHa8ZWtZxnuzkxecF4/11lsvd1OPzf785z+nI444Io+TZx3l5UHQSgv8j370o3TFFVfkIPn6669PK6ywQq4wiO3Yh8n3oqdCDENgf1wpK9sSUPPYYYcdUnmmfCpV9thjj/Too4+SVTPRys5xf/CDH6QXX3yxub47TxjCQN7f/va3m0H/c889l/PEmHJFioB/ww03jFXptttuy9eSspW3ZQN6DPz85z9Pf/nLX7INlQjTTTddtohKlmZGPqmNgF36a3MpLIgCCiiggAIKKKCAAn0nwDjyffbZJ0+Sd+GFF+bbx9ESTys7XeCXWmqpxG3kCOiZdI9Z4HnwPIJBxm/TokyLOCmCXN7n1nIEn7z//vvv50D4oosuSvfff39aaaWV8j3pGdd/5513pjvuuCN3J2d/WuNbW7dZP6lp3nnnzUEslRlUWtC9/pBDDsnDGWh9p9s96wmIOe+nn346H4qAfqONNspd5VkRFSM85zaDDGPgvHj85je/yZMgUunBdqusskpaY401cgUArejf/e53E2Pq2ZZzPuOMM3Llwsorr5yd6WGBwa233pp7UGBABUJrRUdUKlCGzhJB/y9+8YvEMIqLL744XyuGYOy6667pnHPOyecb14lz3H333fMEfw8++GDelmvE9vRu+PznP5+Deq47NlQIUAYS50olDQ5c755co87OxfU9FzDg77mhOSiggAIKKKCAAgoo0JYC3MP++OOPT8OLlni6kdOKS7AdXfUndFLMzk7Xfsbtl4Ph2IdgkpZmWpiPOeaYPJEcASxdxnmcfvrpsWlekgdBJi3mMbdAbDCxYJJ8OyoD+0fgvv/+++dhC3Srp0s/LdQ8Okv0UGCYQ0e3lWMMPkE9LfIkgmsmQYxEL4nVVlstB8FUmFDpQav9qaeemitWCJqjAiX2iSUVMbgRYDOmnkRAzaOrLelMxkfFDZUzo0aNynlwyz0m9uM6L7HEEs28uI7HHXdc7tlApQOW9LTorLcFmVGZc+yxx+blxMo2sWuXC+c/vSZgl/5eozVjBRRQQAEFFFBAAQXqL8B4e7pqn3vuuWmDDTZIgwcPbnYHL5eegJou3ASIP/zhD/N47y233LLDQJugkUCPYJcx5LSAM0M+rcGtiYCc2ez33nvvdPTRR+fb5rVu05XX0fLc2bZ0lac7Oi3uBPEdBaKUhTHtDD048sgj87mW8+MYBLi0oh944IFp9WKeAvKiRb6j/FjH9mzzq1/9Kre8U8kScwqU82Ydreb77bdffsQdD8rbkNfEEsfkWnEchi7QgyESvSlolWdsfwTqbE+Pi1NOOSVtttlmnc66T57c0pDeHGeeeWY+d64ziYqIrpQtyuGy7wRs4e87a4+kgAIKKKCAAgoooECtBKLFmIB0zTXXzK3WtO7fVMzaT4sw3d8ZW04lAK3GI0aMyNsxhr2zFnVOMPIlCGTG/l122SWPpb/ssstyizM9CQiehwwZkpZccskcRDJjPL0L1l9//bTAAgtkJyoYCMLLaXjRG4HJ4uiGT7DK7QQ5ThyzvG35OZUPBKvMZs+Eg9ddd116/vnn81h+3iNAJthn4rs4fnl/npePwXEZj8+DMe+0psdQBAJofCgXZWQ/xvHvu+++eRZ8bg1499135x4VbDd06NC03HLL5QoXhgsQSDMEgTxJn/nMZ3KlQeTHOq4FwXskWt3LKQJ5Wu//+te/5rc4FusJ/JnbgOckysf+BPJMGsh1olv/2LFj83lQETHnnHPmCRC56wEVN1y/yI88KDP5kC9/HyRMqSQwTT6BKYo/molXE02+8nlkBRRQQAEFFFBAAQV6JEAQxtj0Sy+9NG2//fY5SOGWcgRftCyXg7geHaif7UxAR1DNkhbtjlrnu3vKhB50p6fbPs+paCDYJnDs68TfBWPnGVfPuXHHAioXIgjuzfJw7hwbC45HpQiVG73hUA73yucW68vr4pwJ3uM68T69DRhq0NG2sY/LiQtgzhwOVKQw0eVpp52WK0To2cIQkt74LIxfXTbxMrqFAgoooIACCiiggAIKDAABKkIIRKtMBIwE+Twmd6ILPT0XJkfCgQqGuC1ib5ahsyC9s/WUhYoHrn3V1783z9O8Oxbo+6q0jsvhWgUUUEABBRRQQAEFFFBAAQUUqFDAgL9CTLNSQAEFFFBAAQUUUEABBRRQoC4CBvx1uRKWQwEFFFBAAQUUUEABBRRQQIEKBQz4K8Q0KwUUUEABBRRQQAEFFFBAAQXqImDAX5crYTkUUEABBRRQQAEFFFBAAQUUqFDAgL9CTLNSQAEFFFBAAQUUUEABBRRQoC4CBvx1uRKWQwEFFFBAAQUUUEABBRRQQIEKBQz4K8Q0KwUUUEABBRRQQAEFFFBAAQXqImDAX5crYTkUUEABBRRQQAEFFFBAAQUUqFDAgL9CTLNSQAEFFFBAAQUUUEABBRRQoC4CBvx1uRKWQwEFFFBAAQUUUEABBRRQQIEKBQz4K8Q0KwUUUEABBRRQQAEFFFBAAQXqImDAX5crYTkUUEABBRRQQAEFFFBAAQUUqFDAgL9CTLNSQAEFFFBAAQUUUEABBRRQoC4CBvx1uRKWQwEFFFBAAQUUUEABBRRQQIEKBQz4K8Q0KwUUUEABBRRQQAEFFFBAAQXqImDAX5crYTkUUEABBRRQQAEFFFBAAQUUqFDAgL9CTLNSQAEFFFBAAQUUUEABBRRQoC4CBvx1uRKWQwEFFFBAAQUUUEABBRRQQIEKBQz4K8Q0KwUUUEABBRRQQIH2E2g0Gu1XaEusgAIKdEHAgL8LSG6igAIKKKCAAgoo0H8FDPj777X1zBQY6AJTD3QAz18BBRRQQAEFFFBgYAr8/e9/T3vttVeaYoopBiaAZ62AAn0uMGjQoHTAAQf02XEN+PuM2gMpoIACCiiggAIK1EngvffeS6NHj65TkSyLAgr0c4EZZ5wx8d3TV8mAv6+kPY4CCiiggAIKKKBArQRmmmmmtPzyy9eqTBZGAQX6t8D000+fCPr7Khnw95W0x1FAAQUUUEABBRSolcDnPve5RLd+0lRTTVWrslkYBRTofwLMF/LBBx+kcePGpfPPP79PTtCAv0+YPYgCCiiggAIKKKBA3QQI8qeddto05ZRTOo6/bhfH8ijQDwUI+HnwndNXqe+O1Fdn5HEUUEABBRRQQAEFFOiGgJP2dQPLTRVQoK0EDPjb6nJZWAUUUEABBRRQQAEFFFBAAQW6JmDA3zUnt1JAAQUUUEABBRRQQAEFFFCgrQQM+NvqcllYBRRQQAEFFFBAAQUUUEABBbomYMDfNSe3UkABBRRQQAEFFFBAAQUUUKCtBAz42+pyWVgFFFBAAQUUUEABBRRQQAEFuiZgwN81J7dSQAEFFFBAAQUUUEABBRRQoK0EDPjb6nJZWAUUUEABBRRQQAEFFFBAAQW6JmDA3zUnt1JAAQUUUEABBRRQQAEFFFCgrQQM+NvqcllYBRRQQAEFFFBAAQUUUEABBbomYMDfNSe3UkABBRRQQAEFFFBAAQUUUKCtBAz42+pyWVgFFFBAAQUUUEABBRRQQAEFuiZgwN81J7dSQAEFFFBAAQUUUEABBRRQoK0EDPjb6nJZWAUUUEABBRRQQAEFFFBAAQW6JmDA3zUnt1JAAQUUUEABBRRQQAEFFFCgrQQM+NvqcllYBRRQQAEFFFBAAQW6L/Dxxx+n//73v/nB3o1Go5kJ68uvm2/U7AlljEdnRYvz4JxIE9t+QvlEXrFNGLauj/ddKlBHAQP+Ol4Vy6SAAgoooIACCigwIAUiQCW4rDJNOeWUaaqppkpTTDFFzracf3l9lcesOq+u2MR5cU6RYl287sqyo304Pvl29F5X8nQbBSaHgAH/5FD3mAoooIACCiiggAIKTEQgAtyJbNatt8nzo48+SlQAkAheo4U/lt3KcDJtHC34rYcnIA83tqGCoxz8t27f2Wv2icoRvCLIJ8+w62xf1ytQJ4Gp61QYy6KAAgoooIACCiigwEAWiCCTZW8ElwTDBKxxHJ4TzPKYlMC4L69VVwNt3B588MH01FNPpWWWWSZ95jOf6VExW13awapHJ+zO/UrAgL9fXU5PRgEFFFBAAQUUUKCdBQjII7UGmrG+imUch8C/q4F0FcftSR6UOVray5UWrXk+/PDDadddd0333ntvWmmlldK1117brOBo3baz12Wf8nO2x4x1UWnSWR6uV6AOAgb8dbgKlkEBBRRQQAEFFFBgwAvQdfzPf/5zdqBV+qtf/WrlJg888EC6/fbb06c+9am0+uqr97j1u6sFJEDmMaHKBYJ5gujOAmnKfdZZZ+V8dtxxx9x639Hxadm/77770ttvv53+9re/pbfeeivNNNNMHW2a10UlQhybctJLICpczj777PTGG2+k2WefPa233npp2mmnzft1Vs5OD+QbCkwGAQP+yYDuIRVQQAEFFFBAAQUGjgDBI4lgl2AynucnxT8RXL7//vtpl112yas322yzCQb85EPAGcFqBNKxPvJuXd54441p5MiRadZZZ00nnnhirwf8lIcyTqhFnjJiEOfQWuZ4/dBDD6Xf//732XCNNdboNOBfeuml08orr5w418033zzNMMMMkUXzOBML1gn2Y5v9998/Pfroo2nFFVfMlSTTTz99Mz+fKFB3AQP+ul8hy6eAAgoooIACCijQdgIEujxIEehH4Nt6MtGS3Lp+Qq/Ji4A0gtII/OMY5fcmlE9H70Ve5fc4hzgm59VZcB77cny2Y8n58bxcttgujjEpBrFv63L++edPV1xxRbNlv1xWyhPnEWVkf57ziOf5if8o0A8EDPj7wUX0FBRQQAEFFFBAAQXqK/Diiy8mutK//PLL6dOf/nRaZJFF0jzzzNMsMMHwc889l5555pnmutdeey3dfffd+TUt1AsvvHAOsqM3AAEyXdYZp/7000/n7uZMUDdkyJD0wQcfJMaxsy2vhw8fnt5999305JNP5uOQKcMHnnjiieYxCJKHDh2aj1cOhF999dU8Ad5LL72U81lsscU67B7PsSK9+eab+fiPP/543naJJZZI8847b5p66vFDD8p022235W2WX375NM0000QWPVq+9957ecK+d955J80888xpoYUWGi8/vOmif//996fRo0dnI64JwyjKlQNjx47NtuRHwpuhArPMMks+l8UXX7yyMo9XQF8oUKVA8QdvUkABBRRQQAEFFFCg3woUAXCjCN4aJ598Mk3ujSKoaxSTujWKQLxRBL6Vn3cR/OY8i27gjS222KIxaNCgfFyOzaMIbBu77757owjA83ZFi3Pjhz/84XjbxLYsP//5zzc+/PDD5rZF5UBjjz32aMw444zj7VNUDDR+8YtfNEaNGtUoAt383nbbbdcsy5JLLjne9uVjHH/88Xk7/sHr5ptvbqyzzjqNomJhvH04l+9973uNf//73w3KzQNDlq+88krjoIMOaswxxxzj7YN3MR9BLhd5k4pgv/HjH/84X4tiTHzjjDPOyHnkNzv5pxiC0CgqI3LeF1xwQSdbNRpFZUejqPzI23HcuMaUsah0ydazzTbbeGUk32IYRaOoZGmWI/5eyk7xvKgcyefbaSF8Q4EOBPgbLCqiGs8++2xj2223zX+DRQVS/m4qKsoa8d3Rwa6TvGr8arbiL9ikgAIKKKCAAgoooIACPROgNX/fffdN5557bs6IVnrGzf/nP/9JRfCejj322ETreRFU5lZlWtVptS+3lEc3d5ZFoJBb5ekJsNdee6Ui4M3ryJz32Z8W6MMPPzwVAX9u0W89g9iuiBzyW+xTbtFmJce56qqr0p577pnHrbNuuummyy3lY8aMSbSaF5UD6ZFHHkl//OMfc28F8qUV/A9/+EM6+OCD87FprS8C/3yOtORfc8016fXXX09FYJ8WXHDB3AuhqDTIx2Pugn/961/NIQAcsyeJc+LcIlE+EmU/8sgj01FHHZVfM3EhZeS8KAPX6oUXXkiXXnppGjx4cN6GfTu7JnkD/1Gg5gJT1rx8Fk8BBRRQQAEFFFBAgbYSINgsWsjTlVdemcvNjPLPP/987kJPYMtM7wSRZ555ZrrrrrvyNr/5zW9y4Bkn+o1vfCMHqASpzDRPAE0ge8QRR6Tzzjsvb8bkdBdddFGiuz0VDJdddlladNFF03XXXZcrFSIvliNGjEh33nlnOuSQQ/JquqUz+zz589hhhx3y+sceeyz9/Oc/z8H+sGHDcsUE+Rctkrl7+2677ZaYtO6mm25KBxxwQA7i2ZGKjBNOOCEH+0yYxxCGp4rZ8jnvH/3oR3lme2bZ/+tf/5qPQwVI0cKZVlhhhbTKKqukjTba6BOVD3nDSfiHSgserQl7Zvknrbrqqvl8GOZAOYteC7mS4JZbbsmBP5Ui22yzTbaJIQGf+9znsgNeDL8oegm0HsLXCtROwBb+2l0SC6SAAgoooIACCijQzgIEm4z/psWdRHBJgM16xorTQh/vFd3g83pakmlxjkRwX35NAMqY+9NPPz1vwnhzWti/8IUv5ECVvNddd90chBK8M4a/nKiEoNIgxtHzmuflY7D9Oeeck8e2F133czmprGA/tp9vvvlykD9u3Lhcjosvvjj94Ac/yDPi00JOpQOpGDqQmBOA/WgpZxtazqN3A9twvptuumkqhivkyoC55pqL1b2amFuAsfskjjvnnHPmSgZa+ffee+9EZQdzGxDQk6JnAOdOimvSapbf9B8FaipgwF/TC2OxFFBAAQUUUEABBdpTgMCQbuvct50g+Je//GUOapdddtk0vJhAjxZtZpFnu2i5j6CyszPm/TvuuKMZsH73u99NK620Ut683EWfVmgC/p/+9Kc5eO0sv87W33DDDblrPcEwLfUE6SQqFKKy4Itf/GK68MIL8yz4TCzIdrTY07uASe3oGk/lwPrrr5/Pl8qJk4uhC5wD50yizDxfYIEF8vMIrvObvfQPEyYyWSITInJLwuHFtfjSl76UrxUVFPSQoIw8KF+5vL1UJLNVoNcFDPh7ndgDKKCAAgoooIACCgwkAQJFAm9asBnXTpfx7bffPs+0Txf21VZbLXdhn2mmmZoBcFd8GDcfwT2z2hMwx+vYn8CZigUqEmit7moioGcc/tPFjP8kKiqKSfWa5YvjcG6MxY+Z6x988MFcGUAFwS677JJbygmoi8kDc5BPaz89HDbccMMc3OfMi3/Ih7IytIHnfZGoeKDHAkMMKGMxUWIuE5ZUWnC9qBQop74qW/mYPlegSgHH8FepaV4KKKCAAgoooIACChQCdOE/9NBD00knnZTWWmutPGEfY8j/8pe/pJ133jl3xWcCOwLtriaGCUTgze32YjI5glKCf5Y8eK+7LebsR5d3bulHolv7Pffck2/bRyv+P//5z/zgObfbo0KBsfxsz768JphmwjvG4w8vWs8Z988cA3SXX3HFFRPzFESX+jjnKHe87s1lcTeAPLzgkksuSRtssEEO7qngYF6BkSNH5jIyx0FUZvRmWcxbgb4SsIW/r6Q9jgIKKKCAAgoooMCAEqCb+7e//e208cYb58CZgJ9g89Zbb03MUE+QudRSS+UW+a7ALLzwwjmwp5KA1v7i1nMd7kaPgu607pNJVBRQWcB4+3nnnTcdeOCBnxjj33pAhi6wL4ku/7Tm07vhoYceSvfee2+e3O/yyy/PcxoUt+zLFR/0BIgU+8br3l5SRoYarLnmmnn4AdeEyRWvv/76xB0Q9t9//8QkfUyaaFKgPwgY8PeHq+g5KKCAAgoooIACCkx2AVrfo4s6s78z/p0Ac7HFFktrrLFGWn311fP4egLgLbbYIs/Kf/7553cY8JNX5EcrOA9m5WdJwM/kesU95nMAXT5xWtDJn0n0JpQi//I2lJVjMMM+58EEg0xux/HiuKyn5Z4u8QTrbENe9D6gEoN1jIdn6AJd5bfeeuscWG+11VYJk1NPPTXPiB/H7cuA/8UXX8y9Ezgmdy1gDgQelJGhCfTEoJfDaaedlnsAtE7O15FZnIdLBeoqYJf+ul4Zy6WAAgoooIACCijQVgIEkgTNJCa1IyBfe+21c3DOOt6fccYZ83jxCHQJnCMRYNI1nkTgyYPtItD87Gc/m5ZYYon8/rXXXptn6SewJyDnQff6U045JXejZ5+OEvMGkOi2TpBOTwCC+Nie3gjM0E9lxTHHHJNeffXVvD35U5b7778/V1bQbZ/Z9xnrz76PPvpovksA50xLPmVnH86HMsct7JjhP47FMY4//vh8m8G33norH6c7/8R5sw/nwGNCadSoUTmQ/8pXvpKHW8T+0003Xe5pETaUJVzIL9ZzZwU8OA77mhRoBwFb+NvhKllGBRRQQAEFFFBAgbYSYCb7ueeeO99KjzHs3FKP1vIxY8Ykxu4T9BIM0/IficoCgmO6wt92221pjz32yC3o5LPlllvmygK6nO+0006J2/nx/Oabb06rFz0HCMZ5fuONN+bW+KgoIG8CVFroWUd3dQJcAv6jjz46t9ZTCUHFBJP9EQwzweCf/vSndPbZZ+dAnmMz6z63rWNOAoJ7xu9///vfz+PgORe69jNOn+OfXMzIT2BP5QHHZhgDLeiUga70LN9999108MEH54Cf18cee2we/hAW5WVHwfV1112Xg2/ei8n/mIF/9cKis8TwCR7/+Mc/8vHoDUGrPhUllDHuSMBdFDCK4+IScxfss88++TpSKcJcDCxNCtRaoPiAmhRQQAEFFFBAAQUU6LcCRUDXKFqzG0UgSrN3owgwG7vuumuj6OLdKFpye+W8P/zww0bRfb1RTN6Xj8lxy48iSG0U3dwbReDbPH4RHDeKwLdRtCiPt21RUdAoAvRc1qLlvHHCCSc0ilv+jbdN5F3Mlt/Yd999G0Ugmt/fbrvtmvnz5KWXXmoUM+Y3iuB/vP2LlvbmdsVEdo1iAr5GMcndeNvEMYpguFHMP9AogvrmPpS9qKRoFPMKdLgP+xbd5xvFmPkG27JvMZa+ue1+++3XzKuzJ8Wt9D5R7igTyyJ4bxQ9DhoPP/xwoxiakPMuehw0sysC+Mbf//73RlF50TxueX9MimA//100dyqeXHPNNY1i9v7x9hk6dGijqHQpb+ZzBSYqwN9gMSFmoxgW09h2223z3xTfEXw38dnms1F1soW/+JSbFFBAAQUUUEABBRSoUoDWesbp02LPzPx33HFHoks4rfpFsJhvYUdrNy3JkWjpZpI/xsUXAUBufafL/uKLL96cdZ+JAGmBp6WaseZ33nlnogs6Lc2MmWdCvMGDBye6r3M8Wt7LqagoSEWFQR5Lf8stt+Qu+bRkzzHHHM3NGIN/1FFH5e7vzDHABIHkRVmZj+A73/lOHqNfbt2m7PRgYP4AhhUUQXIeMkCms846a1pvvfXyuXGcIqBJnAf50BOAOxpsttlmzeN39oSyM+ae/TtKlA13yslcBJSPdZHo4cDt92644YZ05plnpiuuuCLbsZ4yMM/AJptsMp4F+9IL47LLLstu9HLAm3OK4RuRv0sF6igwBTUIdSyYZVJAAQUUUEABBRRQoAqBorU9jynnlnEEywSndEcvWsITQWR3b2HX3TLxczvGzBOEElxWccyiNbCZ78wzz5x4cG5VJ27Rx9h1KhIoP+dDkMyjs4Q5ww5IzPzfOgFe7Ee3eiyoAOjrRFd+ysjxKSN2veHX1+fl8eorUP4u+OlPf5or7fg+YHgNd4bg81X136At/PX9e7BkCiiggAIKKKCAAv1AgMCYMe+MMa+yrY3AgACBYLnKfFvJOQb2QigxAAA49klEQVSPrqSoDKD1e6655spj+CdUuUElxeRKVEIMGzYsj9XnGlUdaE2u8/K4CpQFqq8CLOfucwUUUEABBRRQQAEFFMhBJV3naZWvKhGkEmBHnhNqce/pMTlOlJ/jdHasqHhgyYNgv7NtKVOUvaflm9T9o5wG+5Mq6H51FzDgr/sVsnwKKKCAAgoooIACbS8QQfLEAuDuniiBKg+C8d5OcQ4TCtIjcCaQ5vnEgv0Jvd/b50P+Uc6+OJbHUGByCBjwTw51j6mAAgoooIACCigwYAQIkCOwrSowJ5/Ii7wn1G2+CmiOEefQlWNNbBsCbfKLCoIqyjgpeUQ5w3JS8nAfBeos4Bj+Ol8dy6aAAgoooIACCijQ9gLloLb8vCcnFsF3T/KYlH2rKj/Hnlzn0HredSlHa7l8rUAVAgb8VSiahwIKKKCAAgoooIACnQhEQBnLTjbr1uoq8+rWgSvauE7lr1NZKuI1GwWaAnbpb1L4RAEFFFBAAQUUUEABBRRQQIH+I2DA33+upWeigAIKKKCAAgoooIACCiigQFPAgL9J4RMFFFBAAQUUUEABBRRQQAEF+o+AAX//uZaeiQIKKKCAAgoooIACCiiggAJNAQP+JoVPFFBAAQUUUEABBRRQQAEFFOg/Agb8/edaeiYKKKCAAgoooIACCiiggAIKNAUM+JsUPlFAAQUUUEABBRRQQAEFFFCg/wgY8Pefa+mZKKCAAgoooIACCiiggAIKKNAUMOBvUvhEAQUUUEABBRRQYKAJNBqNxMOkgAIK9EcBA/7+eFU9JwUUUEABBRRQQIEuCRjsd4nJjRRQoE0Fpm7TcltsBRRQQAEFFFBAAQUmWYBA//XXX8+t+1NNNdUk5+OOCiigQFcF+N6Zcsq+bXM34O/q1XE7BRRQQAEFFFBAgX4j8NFHH6UNNtggPfbYY/3mnDwRBRSov8Dmm2+ejjjiiD4raN9WL/TZaXkgBRRQQAEFFFBAAQU6F/j4448du985j+8ooEA/EbCFv59cSE9DAQUUUEABBRRQoOsCdONfb7310rhx45pdbKeYYoquZ+CWCiigwCQILL/88pOw16TvYsA/6XbuqYACCiiggAIKKNCmAlNPPXX6yU9+koYOHZp4TjLgb9OLabEVaBMBxvC/9957aezYsX1WYgP+PqP2QAoooIACCiiggAJ1EiDAZwItA/06XRXLooACVQo4hr9KTfNSQAEFFFBAAQUUUEABBRRQoCYCBvw1uRAWQwEFFFBAAQUUUEABBRRQQIEqBQz4q9Q0LwUUUEABBRRQQAEFFFBAAQVqImDAX5MLYTEUUEABBRRQQAEFFFBAAQUUqFLAgL9KTfNSQAEFFFBAAQUUUEABBRRQoCYCBvw1uRAWQwEFFFBAAQUUUEABBRRQQIEqBQz4q9Q0LwUUUEABBRRQQAEFFFBAAQVqImDAX5MLYTEUUEABBRRQQAEFFFBAAQUUqFLAgL9KTfNSQAEFFFBAAQUUUEABBRRQoCYCBvw1uRAWQwEFFFBAAQUUUEABBRRQQIEqBQz4q9Q0LwUUUEABBRRQQAEFFFBAAQVqImDAX5MLYTEUUEABBRRQQAEFFFBAAQUUqFLAgL9KTfNSQAEFFFBAAQUUUEABBRRQoCYCBvw1uRAWQwEFFFBAAQUUUEABBRRQQIEqBQz4q9Q0LwUUUEABBRRQQAEFFOhUoNFopI8//rjT9/vTG5znQDnX/nTd+tu5GPD3tyvq+SiggAIKKKCAAgooUFMBAuApppiipqWrplhUapA4zzjX//73vzn45714v5qjmYsCExaYesJv+64CCiiggAIKKKCAAgoo0HWBCOoJdgl0I+glh3IQ3PUc22tLAnrOE4epppoqL+O8I9gvm7TX2VnadhMw4G+3K2Z5FVBAAQUUUEABBRSosUAEu//617/SkUcemV577bW0+OKLp/322y9NO+20NS55NUWLoH7KKadMN9xwQzruuOPS+++/n9Zdd930rW99K33qU5+q5kDmokAXBAz4u4DkJgoooIACCiiggAIKKNA1AQL+l156KY0cOTJdf/31adiwYWnHHXfMgS4t/gTCpFh2Ldf22YpWfRIOyy67bO7Cf8kll6Rbb701zTrrrGnTTTdtn5OxpG0v4Bj+tr+EnoACCiiggAIKKKCAAtUK0EodLdUTyzm2jeXrr7+efvKTn+TWbQLcAw88MK2zzjo5wCcYJhDm0dUU+XZ1+zptN9tss6Vf//rXaa211kqvvvpq2nPPPdMtt9xSpyJaln4uYMDfzy+wp6eAAgoooIACCiigQFcEGHNeDvLLzye0f2zH8qOPPkrnnntuOv/88/PY9R122CFtu+22zW7sEex3J+Cf0LHb4b0RI0akQw45JM0xxxzp+eefz0MbGOZgUqAvBAz4+0LZYyiggAIKKKCAAgooUGMBAtB///vf6eGHH07jxo3LLfBd7XLPdlQWsHzllVfSiSeemN5555206KKLpp122ilNM800PTrzqBygQiEqF3qUYcvODDOIWfRb3qrs5XLLLZfH73Mu//znPxNd/DEjcezeOK/KCm9GbS1gwN/Wl8/CK6CAAgoooIACCijQcwEC0JVWWimtueaa6ZprrskZtrb4T+goMW6dfUeNGpWD/C233DJ95jOfmdBuXX7v3XffTW+99VZ+ECBXmaLsb7/9duLxwQcf5OyrPA6B/nbbbZc93nzzzXTKKafkLv4ciIoSA/4qr6h5lQUM+MsaPldAAQUUUEABBRRQYAAIEMwT0JYfEVB/+OGHOQDtbhBKUH788cdnvXnmmSdtv/32PW7dj0vxgx/8IK2wwgpplVVWycMGYn1Vy2eeeSZ94QtfSLTEH3zwwTnbrvZwmFgZCPbJa8EFF0zf/OY38636/vGPf+SWfvaN9yeWj+8rMCkCBvyTouY+CiiggAIKKKCAAgq0sQABaLRsx7J8OgShrGfZ1cRwAAJnEoH5fPPN1639J3Qcxr4/9thj6YknnpjQZpP8HpUcjz/+eD7Gyy+/nPPpzrl35cAMbfjyl7+cZplllsTxrr322q7s5jYK9EjA2/L1iM+dFVBAAQUUUEABBRQYX4CWcQK6aCmfeuqp03TTTZdbzd977708vp09pp9++rye5wTgtLZH8M1ztiUv7ttOsFgOQHmf17Sqsw3vcxzyKW9H93S2Ycn7gwYNyvnFNnE8ylBO5MkEfIzF5zwoP+VtzT/2YXvGpo8dOzYf/6tf/Wq81emSc6BsPCgH+U877bT5GLFTbMOSxHHodk+ZOAfKFefAe7EN971nO7aZYYYZcr68x3rOi/VYsMSZbvaxP3nT24HXce3YrpzoIRFlx55y82jdjn3Ih/XY0UuByfuYsZ9WfsrD9SW/OI/ycXyuQE8FDPh7Kuj+CiiggAIKKKCAAgqUBAjuCOh+97vfpeeeey4ts8wy6fvf/366+eab04UXXpiefPLJHOAxvv3zn/982nDDDXMQWA74HnrooXTsscfmgHurrbZKX/nKV8YLCNmWCfK4/R3B/Oqrr56YEZ9E8MiDPM4888zccv3SSy+lwYMHp0UWWSR9/etfz+P1I3jvKEgleL/gggvyJH5M6DfvvPPmfTbffPM0ZMiQ0tn+71OCZvYhCCag5f7zE0qjR49O55xzTrrvvvuyEcHy8OHD09prr53WW2+9HARTvkcffTR3sWdCQRIB8u67756DZ275t9tuu6WFFloony/vU1bOmXN/5JFH8naLLbZYzneNNdZIxx13XD7mTDPNlI4++ugc0DPJ4HXXXdccKvC3v/0tXy/yI0DfZZddcnl4Tbr//vvT5ZdfnvPnPHBdYIEF8jXgOlEJUU7lYH7GGWdMX/rSl7IrvRYo49JLLz3etS3v63MFeixQ1DiZFFBAAQUUUEABBRTotwJFQNwoWp4bJ598Mk3AjSKQbOy6666NF198sVG09vbKeRfd2xtLLLFEPt5qq63W+PGPf9yYffbZ8+siwM5LylK0ajeKifIabF+0YjfLctVVVzWKoDRvd+SRRzaKoLH5Xjwpus/n/cmnmA0/Vud8zj777EZxO7h8rhyvaIVusOTcP/3pT2cLXMgXgz//+c/5WJRn0003bRRBdN6+XNaiRbxRVE40nn766U+Up6jgaKy//vo5jyKgbRTBbM63fE4ch8ftt9/eWHnllRtFy3benrJRLs6juG99Y5999mkUdwrI53PjjTfm9bzX+uA8brvttny+kW9RWdDMl+0pP4+hQ4c2ilvjNYqKkZxPUWnR4PxJxbj6T+QdxyoqRxpFJUYud9Hq3ygm28uuRYVL3qfoAZDzZ3uO8Z3vfKdRVPLkfPkH3/K14/mf/vSnvG9RUdAoJkv8xDbNnX3S7wS4/kWvmcazzz7bKG5Xmf8OiiEe+fNY9DIZ7zugqpO3hb/4dJoUUEABBRRQQAEFFOgtgTvvvDPRakyLNDO1zz333GnMmDG5Szfj3m+44YZ8+7rTTz89zT///LkYtG4XgWq3ilQEE3mfoiIj7bnnnrnlnMnzNttss1QEx3l8/VlnnZVeeOGFdMABB6SiQiK3YNNbII5FC/15552X5pxzznwbOfZjTHtRAZHzu+KKK/LkcwcddFDuEh8FpBt83FueHgDlrvaxDceg6/z++++fbr311jyWfYsttsg9IOgRcf755+eW72OOOSavY5Z/POjFUFRgpKKiIQ9d+OEPf5hbxGmlp3xY0dvh29/+dm7Z53jcEpAW/ZlnnjmP+8d4v/32i6KMt9xoo40SeZ100km5pwAT99HTAM8ll1wyHwsjemcweSDd/YcNG5Y23njjPE9BXEuuM5MWYsE5MGSgCNqathyUPNmXRM8MboEY1y2uQX7TfxSoSMCAvyJIs1FAAQUUUEABBRRQoCMBxsHTrZzZ35m0jbHqdE2nOzhd0q+//vp0xx13JAL+fffdt6MsurQuAsa77rorB8Ds9L3vfS/ttddeuUs6x6Qce++9dw7O77333rT88suPF5CyT9ETIRW9IdKqq66aA3e66xOgf/e7383DEag0IPBl1vlI5YCfig3GpTPunkA5EuV74403ckUH6+j+/tvf/jYVrfp5W2bJ32OPPdJ//vOf9Pe//z0R8NNVHre77747B/x0/T/wwAObY/IJqCPAphs/iSELVCoQ9DO+nmMSjG+zzTa58iJvVPqHSgeC/FNPPTUH4ZSDCg3KS2UCiaC+6CGQg32GEBx11FFprbXWyuXg+FSijBw5Mg+DuOiii9I666yTip4Szf3Jg8CehC95sx9l4xjxXt7AfxSoUOB//4IrzNCsFFBAAQUUUEABBRRQ4P8LEPT+/Oc/TxtssEGeQI4Aj6Cf8fQEkUXX+xxoFl29mzsRyPLoKBEcdvQeQSQPWtdZkhj7Tisy2xP8cls47gH/xz/+Ma244oodZZ8D7dWLOQFooaasLIthCXk950JAXnRJHm9fWqsJXkm0lhPwl4N91lMmJsEjaCeRB+PYSbxHizzzFjCmfpNNNsnrKffEgmHuDFB0jc/bzzXXXDkYZ94EjkP5qYCgcoEWftw7Shw/zHifsrNvpCuvvDLP4M9rKj6YZyDOA1d6IlBZQ+s9PR2uvvrqPBlg7M+S/MgXTx5hxnFbrcr7+VyBngjYwt8TPfdVQAEFFFBAAQUUUGAiAgTAtDq3JgK9pZZaKj+45RzBL8Eik8ARHJYDzvK+5cC0vD6e02pPyzgt3nST51Z2BNC0SLOeSQIJMMmHgLpceUDwSkVEBLORJ+tpMSdgpks75V29qBSIRH4E+SQC2aiUaC0rXexp/T7jjDMSPRFoXacihHUMMSDP1mO35hHHjCUTEtKln8SEeMOLyf86StwqkMCcYRTdSfgwuV4xT0DejWEPp5122iey4A4FBPIkfOgZEa9ZFz0eWGLE9cWV/ONaTOxcycekQHcEDPi7o+W2CiiggAIKKKCAAgp0U2DhhRcer2WZYDgCO4Jk3iexnnvBf+5zn/vEEXgvWoFj309s9H8r6DJ+wgknpF/+8pepmPQujRo1Kj8IMGnVZ8w63dsZ/14O9tmdYJsKio4SFREEqCSC/nLiPBi7zx0I6FEQt5trLSu3yKO7PdszLp9KCR6HHnponm2/mPgv7bjjjrnSISolysfp6DkBf8wfwJj7zhLzEtADYGIBPyYRhONOcM7wC56T6K0xsUSvA7rsk9gP+7h+lJX3qDyhAiRS+RrHOpcK9FTAgL+ngu6vgAIKKKCAAgoooMAEBBjDHwFkLGNzXkdXeNaVA8DYJgJHXrM9iUCa9fGaJY8IGldaaaXcdZ+x8JdddlkO/Ak0i1nt83h45gzgtoEEwJFHzvj/8uY5LdEEqq1Be2wXS/anq36UnePQCl7MPh6b5GNEPvQyOPzww/NkgnR9ZyJAxsBT2cGYfu5Pz6R3HVV8NDP8vyfkSSs6FRVUQlDZQKJMcbz/2zQH7gTvE0vl/XjOuZWHAtADIio+ynlhFZUC9DKIbcr5sT2TIJJ4n0qUeD8qBPKb/qNARQIG/BVBmo0CCiiggAIKKPD/2jvzYD3H84/fv/nVmsQSSawhRGqXhLTTlhrTKmKdimotLWksU4NiqEFRdAmqtWS6aFFLW2pqi6UdDG0FZYiIUELTKAnNQhKRiP7xO59Lr/f35O05SSTnfc/2uWee99nu9XPO88zzva/rvm8JSKA1ArjU467PjPkpyDMeruhTpkyJU4TrVlttVTvGGj5v3rzyj5bZ6QkpJjlGJGJFrl5D5KZoRHwynvywww6LjdnxmXiPMfIIbGacHzFiRMzmj6CthuwAyLyq91o7Jj4WeyzohJZl6f7LA4B6UmfqRWBcPTPhszEp36RJk2LsPlZ/OiOYmC/H5UeCNn4om04LvBpwqaeNdIRQDvXnPhvnWOnr5x4g2ypDzqlninD28Nl+++1jj1t/yxKGpWVZwcgz20W8dNnPPKt5cC1DTi7IXAvU2yCBRhL48IlrZAnmLQEJSEACEpCABCQggR5MgLHcV199dVm4cGFNkIMD8XjXXXeVZ555Juh88pOfrFmFEYIDBgyI6w888MBSXgBcxGWepfJyXDniMsXtrbfeGmP2WTauZc37uN67d+8Q17jTD2qxPiNUmdAPizdClbQZUqjWX8/79Xvi0znBGH+ENR0ciP5q4DrxnnvuuVjOjjkFrr/++qg/1nnafskll8RyfKRjVv6qZ0N2SlDP6nXi0pGy+eabc1hYeYCOgmp7uE47f9Wy8gCeBNVAGwnZZo6JW59+5513rs0twGz+/E2Jk+ngyd+DVQZYNhDPhWpHQrLk2iOPPEIxYd1n1QSDBBpJYOnuvEaWZN4SkIAEJCABCUhAAhLogQQQhljWsdYzwzuWcKzRf/rTn2I8ONZ3rp199tk1Ooyv33XXXUPA4up+yimnlOOOOy6ELWKTyfhy3fhMlBZ53MQRn7jVM1zge9/7XoyJp3MA6zllEygTIU26FK5c55gt8+PasgLtQ9Djgs8Se3gt0EmxZ8sEfBky/379+sWwAsbdY+lmGADxSM8kfjNnzowkm2666VLlp6BHjOMFwKoBdBTQKcLcAbCDJx0hJ510UswlwHwA5I+HxG233RaW+axP7rONeEPkMUv4MfQBzwE6Muh8oY6jRo2KpftYlpAOlGOPPbZQT4YSMAyBpQphO3DgwFgNIfOjrDx++eWXa7P9Dxs2rOYVkfVxL4H2JqDgb2+i5icBCUhAAhKQgAQkIIEKAWaGR6TjCv7QQw+FZRchjns5opyx3F/72tfKbrvtVkvFmHHWdWdNd0QkIhNBi/gkLybHyzHitUT/OSCf/fffP9aEJ80RRxwRVnAs48wezzh3RCkz4yP408qd+aQ1OkV6Xq/fp4U74zFhXgp+JguknojyakCcn3jiiTFJHzPfI5IHDx4cHQwMUcAzAFd3eGS+pEfgMxEhbTjnnHNCKNNhcfnll4dXAC72TER48803x7KB559/flj0GSbBmHks+4hzOj3obKgPCHi8DLC+M8SCvJi8kKUC8TygHaeddlqZPHlydMIw/wGdKrSHToZp06bF34mhDfzdEPPJJ8vifMKECdHxw7U99tgjbsE7OwQyrnsJtBcBXfrbi6T5SEACEpCABCQgAQlIoBUCuG0zbh6LM2vYY8nG0ot7N8IQd3/GsSN0MyB2cZH/3e9+F+IdIUkHAe7/7FliD9fyappMi1UaQXrmmWeGyGXsOpP3MVs/1mhm6qdMrNaUUy82q0I780SsslVDnucer4SRI0dGFIQxwxWq6Timk+KMM86I9uImzwR/jLtHCCPKafNll11WRo8evZTgZ2WB008/PToH6Cx5/vnnQ5gzISIcyfeKK64ITwpWPaAsPAhgTQcH4hpeLFnYVqDzgI4ShD6dDww/wDsg28ff6v777w8vDYYR0HmCZR+PALw0KINOHbw46CCouvRTJh0NLEdIJw/p995776hKPf+26ud1CawMAS38K0PNNBKQgAQkIAEJSEACElhBAgjo4cOHl5///Odl4sSJYZ3H0jxkyJCy9dZbly1bZq1H9FUt62n1RZQzYRyT2jHxHyKSif2YKR5r+u233x7pcHknDa7xxMHVnfH6hx56aIhXLNB4DQxqGb9PfsRPYY+g/cIXvlDGjx8fFn8s9eRBnbiX8XDZx9MAKzt5UBYh9xxjGb/hhhtCZNNZsddee4UVnHvkQ77UAys/nRZ4KlA3eNAurP10kNSLYNLQniOPPDIs9tSBThA6CDLQ+XH00UfHUAiGBjBHAR0BsNphhx3COwJLPmWTtloG7IYOHRoTB9IZQ8cIdcKLoOpJAVc6JHDnpyOFurMaAd4DcKPTg3ayJZfsMKBjg417zGHAMIJqyL8f9w0SaC8CCv72Imk+EpCABCQgAQlIQAISaIMAIo4x4WkBby1ain72OUldpsOVvypQMz2z3BNSXHKc8UjLPADMxp8dCNyvBgQ4ARd/tvqQwp+8EL+IdMqqlpdpiIOw/upXvxqW9nvvvTcmr2NIQYZMRx3pNKgK9ryXcev3uOcjyhHQ1bjUkWvJjDiI7ypr4lA/3PZbC8kMF/3dd9894rYWj3LofIArGyEZkj9bfeA+wzLGjh0bwxwGtXS64MGAJ0Y10Cbyby2PajyPJfBRCOjS/1FoGVcCEpCABCQgAQlIQALLIYBoY1uZkMKzPm1b1xGJVfFbTcf1FI8rk5686tMhqtsqj/hY2b/+9a+HtZ6x7YhcLObL4rGsNpDn8kJr6evrvbw88v6y2kYc7i8r79b+9nAYN25ceGnw9zjmmGOisyPLzD33lld+xnUvgRUloOBfUVLGk4AEJCABCUhAAhKQwAoSWJbAXcEsumQ0RCtj3X/2s5/FsALG8p988skxHKG1Bn1Ugbsiopg4bNVAOfXXqvfzeEXjZXz2pMl0/N3T4s+e7aabbophANzDss9cBAwpMEigGQR06W8GZcuQgAQkIAEJSEACEugxBFZElHZ3GLjFX3TRRbEqAV4BLC3IRHXdPSD8CQyh4P9g4cKF0XYmbGRJQiYsZEiAQQLNIqDgbxZpy5GABCQgAQlIQAIS6NYEsODmxGttWfjT+pvCsLsCYZZ6JrYbM2ZMbWw9bU0L+LLc4rs6E/7G+fdlxn8m+eP/grbTCdCd297V/3bdsf4K/u74V7VNEpCABCQgAQlIQAJNJ4CYw5qNsMOai+v27NmzYxb+rEwKwTzvjnsEb1vCtq3r3Y1DivtsF+3mb8/eIIFmElDwN5O2ZUlAAhKQgAQkIAEJdHsCiDpme2e8dk8JCFwCbVfUfujJAA86P7DowwRGec49gwSaQUDB3wzKliEBCUhAAhKQgAQk0KMI9CTRi4hlw4KtoF16icT8p7cjJEm4bzYBBX+ziVueBCQgAQlIQAISkIAEuhgBxqAvXry4TJ06tSxZsiTWkN9uu+3Kiy++GBPTrbbaamXIkCG1teXTmk0zHbPexf7YVrdbEXBZvm7157QxEpCABCQgAQlIQAISaH8CH3zwQbn55pvLoYceWkaNGlXuvPPOKGT8+PFx/qUvfanccMMN0RmAlZ+AVVuxHyj8kUCHEVDwdxh6C5aABCQgAQlIQAISkEDnJ4CAv+OOO8pZZ51V/vGPf5TPfOYz5fjjjw8Xfmbh32233cr06dPLOeecU2677bYYq06rqlb+zt9KayiB7klAwd89/662SgISkIAEJCABCUhAAu1CYOLEieWCCy4o8+bNK8OGDSsXX3xx6d+/f+TNagSc77LLLmX+/PnlwgsvLM8880zcw7rfE1YlaBfIZiKBBhFQ8DcIrNlKQAISkIAEJCABCUigKxPAQo+IHzduXIzd7927d7n00ktjrD7t4j5h6623juvcf+WVV8oVV1xRFixYEPf8kYAEOpaAgr9j+Vu6BCQgAQlIQAISkIAEOiUBBP0LL7xQ7r777qjfvvvuW3bdddfasnsp+BmrP3z48HLAAQdEvPvvv79Mnjy5U7bJSkmgpxFQ8Pe0v7jtlYAEJCABCUhAAhKQwHIIIOaZmf+qq64qc+fOLQMGDCgnnHBCWWeddeI691Pwk1WfPn3i/kYbbVTefvvtcuWVV0a85RTjbQlIoMEEFPwNBmz2EpCABCQgAQlIQAIS6IoEZs6cWf785z9H1Rmjv/vuu8cxY/NzBn72BPZM5ocHAGHChAnln//8Zxz7IwEJdBwBBX/HsbdkCUhAAhKQgAQkIAEJdEoCCPi//vWvMVEfFdxvv/3KmmuuWXPnb63Sq6++etl///3jFhP8PfHEE61F85oEJNBEAh9rYlkWJQEJSEACEpCABCQggR5B4P333w8L95IlS8LdfeDAgeECz/J1TGzHUndMdrfFFlu0ulZ9rmWfs9wvXLgwlr4j/QYbbBAT56277rqtzoK/aNGiWD4Pl3vibrjhhuXf//53mTZtWpSNMN9uu+0K7veZf/0fhfjMzv/ee++F0GfpPepER0Ba9evTcI6Vf+211450zNY/atSostpqq7UW1WsSkEATCCj4mwDZIiQgAQlIQAISkIAEegaBHNeOO/vo0aPLSy+9VD73uc+V8847L2a7Zz37xYsXB4w11lgjhPcZZ5xR9t5774IQz/SIagQ2697feuut5ac//WmIaDoSPvaxj5VevXqVPffcs5xzzjnRccA1AkL95ZdfLgcffHDEZ9w9x9/5znfKU089FWWTN6J8xIgRsYzeTjvtFHlGBv/5wUL/3HPPRR24v8kmmyxVN+rZmvCnE2HnnXcO6/7zzz9f3nnnndK3b99WOzWq5XksAQk0hoCCvzFczVUCEpCABCQgAQlIoIcSYLI7NiavmzVrVsxYf+SRR5ZJkyYFEYQ+wp3wr3/9K4T12LFjo4MghTti/7XXXivHHHNMeeyxx0LIEx9r+QcffBAT6d10001hhf/BD34QLvdY69kQ/bNnzy54BTzwwAPllltuCcs+6bNsBP348eOjQ+KHP/xhGTly5FKiHy8B8iBsvvnmZa211grRnp4HbQl+3P6Jjzs/bScfxvwbJCCBjiHgGP6O4W6pEpCABCQgAQlIQALdkABWb0Q3gj/D3/72t8KGpf+Pf/xjdAAwGd6JJ54Y7v50DHz/+9+Pie5Iz4Zl/Nvf/nZMmsf5IYccUu67774yZcqUENN0BDBjPlb0008/PYYPIMbrXfSx6s+YMaMcddRR5eGHH46yH3rooXLggQeGlR9vALwE8EhAxKeHAUMR5s+fH03AQo/3AW2iLoT6cuJiyw/xGEZAID35GCQggY4joIW/49hbsgQkIAEJSEACEpBANySAGK5atRHirFE/bty4WN6O+4MHDy6f/vSnS79+/coll1wS4/O5v2eLmz7h3nvvLXfddVcck/aGG24ovXv3jnN+cLNn/P93v/vdMnXq1PKjH/2oYKmvF+LUY8yYMQUvAIYBEIYMGVKGDRtWvvWtb5Vf/epX0WlA/ueff35N0CPU8QIgIPjxPKi2KW608oMHwnrrrRd3SJ/DF1qJ6iUJSKAJBLTwNwGyRUhAAhKQgAQkIAEJ9FwCuNEzhp7J89KCjqUcAX388cfXlrJ78MEHa677t912W7jkM3b+pJNOCpf6KkHG4J966qlls802i8uPPPJIDAGoxuF4m222KaecckpY86v31l9//XL22WfXrPG4/jMUIC34WPNTrOOmvyJin/zpcCA+gU6DqtdAXPRHAhJoKgEFf1NxW5gEJCABCUhAAhKQQEcQSCHbEWUzkd2OO+4YYjqFM/VhQ9AzYz4Bi3iuXZ/j/bm/1VZb1QQ33gI5jh6X/qFDh0Zaxtu//vrrSw0l4AYrAZC+vv2c42UwaNCgSD937tzy5ptvxjE/WOr79OkT59SLeQMI1aEKcaHuh06DBQsWxFU8CsgnOznqonoqgR5DYHnPTSNBKPgbSde8JSABCUhAAhKQgAQ6BYF60Vl/3shKbrrppiHSU6hXy0J4Y/nPwCR+hBz7jmjGlT8t5cRny7wGDBgQ8RHkTJDHvWpIr4K2BEeWzSSCzBuQXBiLz7J/BOYYSMFfn3+1LI4R/HQeEEhPPvXDDOKmPxLoQQR4BvIZbqvZ+ey1dX9lryv4V5ac6SQgAQlIQAISkIAEugSB1kRqoz6uWwPC0nqE+jI5R0hPmzYt7vODNZ6AZZ7AxHdY2BH4xKctbCkg/v73v0c83Oix+NeXMX369Fq6iFj5oRMgy6ZjYeONN651GCDUyY+A90AK/vr8K9nFIR0VObs/6cnHIIGeToBndnnPzvLuryxDBf/KkjOdBCQgAQlIQAISkECXINDWhzTX27rXng1DADMrf2uWbmbvnzx5chSHJ0DOcM9a9gSW5nvhhRcibX163P8zLa7/g1rc83PIQCRu+WFCv+eeey5Pa+2l3Y8//ngMA+DmwIEDa2VzjlcB1wgvvvhizU0/82/LYwB3fupLYHm+HBYQF/yRQA8mwPPbWudjIql/vvP6qu4V/KtK0PQSkIAEJCABCUhAAp2eQFrG6yvaDMGP1fu8886rifOsA67vzJ7PUnt87B922GG1ToF99tknBPicOXPKZZddVhPmmfaNN94o5557bs2a/pWvfKUwV0C6+mc8PABY8u+tt96KS3mfjoYLLrgg3Pgp+9BDD62VTUQEPzP5Mzs/XgAvvfTSUulT+MfFys+rr75a2LhPp4WCvwLHQwlUCOSzWLnUkEOX5WsIVjOVgAQkIAEJSEACEuhMBBD2TCBH4Dgt1M0Q/JT75JNPhqg+9thjy7bbblsQ4uPHjy9/+ctfoj4jRowo3KM+dE58/vOfL4j4n/zkJ2XChAnly1/+cjnkkENigj+s/tdff31Y7om71157laOPPjoEe317KPuee+4JwY+o33LLLUO833jjjWG5J/2+++5bDjrooFrZWYddd901BDtj+FlBgHKI31YgHfHYI/RpU3192krrdQn0NAIp+Jdn+V9VLgr+VSVoeglIQAISkIAEJCCBTk9geR/VfHwjZpclaFe2kbvsskvMiH/HHXeUs84667+y2WmnncIKT0cA9cA6joX9/PPPL1j46RjA/Z6tGmjTqFGjwtK/3nrrxa36+iPmyfO+++4rjz76aDV5HI8cObJcfPHFhWX6Uujnfvjw4bGKAIL/D3/4QznttNMKkwRmGfXMmHCQcgh4G9DutjwBIpI/EujBBHh+mhEU/M2gbBkSkIAEJCABCUhAAh1KAJGa4hNBi4U/P7jZc879FLPtWVnE9JVXXll23333cs0115SZM2eGuGa8PoJ79OjRZfvtt4+yEfEE6oO4xsJ/4IEHll/+8pfhFfDee++VNdZYo2yzzTbli1/8YgwDyHH/rdWZJf9OPfXUMm7cuEKHA/MJ0EbG5++3337hVbDZZptFfZJL1oFZ9vEyoOOBuQB+//vflxNOOKHm+p+sSAfDO++8M7wHuE66ZdWrtbp6TQI9hQDPNytaEHje8plrRPsV/I2gap4SkIAEJCABCUhAAp2OQLr0U7EU+2nNrt5r74ojgPv161e+8Y1vlDFjxpRZs2aFoGeiPcbIZ32yLpxn5wSdBbjzH3744WXx4sVlxowZsYzfWmutFcKdNMsSC7QTa/tFF10U8wjQ2cDM+f37948yMm2Kd+JnntQB4X7zzTeHkL/uuuvKwQcfXOggIFTTMEfAtddeW+iQGDJkSDniiCNq9yOyPxKQQI0Azxiin8BzVH0P5DNZi7yKB07at4oATS4BCUhAAhKQgAQk0DUIpIimtnxsp7htZu0R2whwZrDnI7/64d9aPagjgoANkT948OBw96ctKQxoC/m0FVJY4BkwqGUmfzoaSN9aGvLMfMkPTwBEPx0ikyZNKr/+9a9rlknSs2Gp/M1vflMmTpwYbWLyQdpnkIAE2iaQzyXPYr6bshOt7VQf/Y6C/6MzM4UEJCABCUhAAhKQQBcikB/RCNn8sGZdecR0s0KKY8rLOnDMdepXL7S5R2jr+od3P8yL/LKNeb26535VxHOvyqIat/6YToJvfvObMfQAgXLppZeWu+++u9ZhwrX777+/jB07NoQ/qwsw1p90hGYyrq+75xLozATw2CFUn8VlPccr2xYF/8qSM50EJCABCUhAAhKQQJcggKgmIHzTdf/999+vudQ2uxFV8b88Qd/surVWHsMKLrzwwlimD5HCUoKsMkDdWTGAZf8WLVoUy/AxdKA6dr8RAqa1OnpNAl2JAO+AFPy8k9KlvxFtcAx/I6iapwQkIAEJSEACEpBApyKAOOWjGsszH9qMNUf0E7BCV63u7VFxhG5V7FaPG1Vme9S7rTyGDh1afvvb35aXX345osCSNsH13HPPDU8Fxu4zSSAhOzW4b5CABJYmgGfMwoUL4yKCn6E+9e+IpVOs/JmCf+XZmVICEpCABCQgAQlIoAsRQKQyDn7evHkh+hl7jjBNwc9HeHsJf4Tu2muvHePtKbMa+LBvr3Kq+eYxZbOsH+UgJNojkBfLBrI6ACHFCWP1B7XMCwBDWGZIwZ/n7iUggf+fO4TnJQX/mmuuGe+l6vPTnqwU/O1J07wkIAEJSEACEpCABDodgRTYiF+EMGH+/Plh5efDm44A9u1pjd5iiy3KXXfdFePaczx7iuD2LKceNu3YYYcdytNPPx1t6tOnT32UlTrPusOS4xT82RauVTsx6s9XqlATSaCbEeAZoaOROUTeeeedaF0K/urz057NVvC3J03zkoAEJCABCUhAAhLotASwtK+zzjpRPwQ/Lv0IU0IK2Dhphx/cdJmNHwHe7EDHxqabblrzXmiv8lPos8/j1vLGU6LaEQCDRomZ1sr3mgQ6KwGeDZ4dBP/bb78d1ezVq1etI7IR9VbwN4KqeUpAAhKQgAQkIAEJdBoCfGAjOHGxR4QTZs2aFS61fIA3UpCm8KVMOhXau2OBfKuhvrz2EtrUO/PKfbXc6rXqcTVdNb7HEuhpBLKjjP3MmTPLkiVLAgGTXOYQnEYwcRaNRlA1TwlIQAISkIAEJCCBTkMAEcxHNhb+/v37R72w8M+ZMydm6kf0GyQgAQk0gwDWfVa5yIA3Dh5BdJQ1okNQwZ+k3UtAAhKQgAQkIAEJdEsCiH0+pBkrO6hlgjlc3rHqT5o0KVxrud8RrvfdEraNkoAEWiWQ7xkE/7PPPhtxeC/tuOOONbGv4G8VnRclIAEJSEACEpCABCSwbAJY+ZmcD8HPmFnClClTauP4G/GhvewaeVcCEuhpBOhYfPfdd8vUqVOj6bx3WMoSC3+jghb+RpE1XwlIQAISkIAEJCCBTkEAoY/g56OaGez79u0b9Zo8eXKZO3duWPm18HeKP5WVkEC3JsDwoVdeeaVMnz492jl48OCYV4R3VKM6HRX83fpfysZJQAISkIAEJCABCUAgLfz9+vUrfGQTGMc/ceLEWCYLwd+a6M9J/SKBPxKQgARWggDu/CzHt3jx4rDuv/nmm5HL8OHDY6gRgr862eVKFNFmEgV/m2i8IQEJSEACEpCABCTQXQhgPeODmpn6R44cGR0ACP777rsvlsfiY5yPckJ1Ej86ChpleesubG2HBCTQOoEU+nQm8o5ZsGBBuf3220P48y7aY489YogR75lGhcbl3Kgam68EJCABCUhAAhKQgAQ+IgE+uPmoZsI+rGqM5Sc89thj5dVXX40lslLoVy1tiH0Ff6DyRwIS+IgEeHdgvUf4M1nftGnTylNPPRW54GmU4/er75yPWMRyoyv4l4vICBKQgAQkIAEJSEACXZ1AivY11lijbLHFFmWfffYJi/+MGTPKddddFxNpIfj5KG/Ntb+rt9/6S0ACHUOA98n7779fcOO/6qqrwrrP+2j//feP4UV0Qmrh75i/jaVKQAISkIAEJCABCXQTAnxgY0Vj4r4+ffqE4N9oo42idQ8++GBY3fgoN0hAAhJYVQLpLZQu/UuWLClPPPFEefTRRyNr3j0HHHBAvIt4LzWyk1EL/6r+NU0vAQlIQAISkIAEJNAlCCD6saStueaaZdiwYeXII4+M89mzZ5fLL7+85trPWNv8YO8SDbOSEpBAhxBoS6jznkmxv2jRonDlv+yyy8qcOXMKXkZjxowpg1qGFa211lrxDtKlv0P+fBYqAQlIQAISkIAEJNAdCFTFO6IfK3/v3r3LfvvtV7bffvtoIta3G2+8MWbuT7f++o95PuDrr3UHPrZBAhJYNQLVdwPvCM5579B5iMi/5pprypQpU6KQESNGlL322ism60Pos/FealT43++0hEZlbr4SkIAEJCABCUhAAhLoaAJ8fLOlhZ89H9m9evUqffv2DXd+Zuzng5yZs7fddtvwAqjGzzZwjc0gAQlIoPouqL4bEP10HL799tvlyiuvjHlCOGdZ0EsuuaTsvPPO0emYgr+RJHXpbyRd85aABCQgAQlIQAIS6HAC+VGdH+fsmTkbKz/LYuHaT5x33323XH311eXuu++OYz7QsdDx8Z6Wfax2edzhDbMCEpBApyCQYr9q2Z83b1659dZbw7r/3nvvRWfi6NGjy9ChQ2PsPu+gfCc1shFa+BtJ17wlIAEJSEACEpCABDodAQQ7Ap+Pbdz7mbV/8eLF5cUXXwyXfpbqY5z/oJYxtlj8MzAuNz/sm/GhnuW6l4AEOicB3iW8C1Lo0yHI5J8zZ84My/6Pf/zjsmDBglgO9IQTTigI/gEDBsQ4ft49+U6hdeSVnkjt2VoFf3vSNC8JSEACEpCABCQggU5PoPqRzXEu1Yf7LaIf8f/000/Hhzpj/HNirWwYaQwSkIAEEOhsiHXEPu+OV155pSD0r7322rJw4cIQ+wcffHA5+eSTyyabbNLm2P3sTGxvqgr+9iZqfhKQgAQkIAEJSEACXYIAH9iIdzaW6ttuu+3io50Pdqxyzz77bHnyySfLuuuuG2Nv8QogbtWqR0O19neJP7eVlMB/EUCsE1b0Gc747HN4T1r133jjjcISn2eeeWbsGRLEsKHjjjuunHjiiWXzzTePc1z508PovyrUgAv/01LZD1vZgMzNUgISkIAEJCABCUhAAp2dAB/srJONyH/ttdfKLbfcEta5d955J6q+3nrrFSx0hx12WPnEJz4RFju8AqodBhzzWc2HfH0g/9au18fzXAISaC4Bnlm27MijdI7rA3Ho6GMjpNhnjg+s+HgEXX/99eWhhx4qjN0nbLzxxuXoo48uRx11VNlwww3Dso8bf74LVrSTITJbhR8F/yrAM6kEJCABCUhAAhKQQNclwEd8CnU+5LHIMXHfrFmzyoQJE8ovfvGLMmnSpBiTiwjA0v+pT32qHHTQQbGcHx/x/fv3jwkA+YgnTlUs5Ad9ltN1SVlzCfQcAjyv9YH3A+Kee4zRnzt3bpkxY0YMAaKDcPLkySH0uc+8HzvttFM5/fTTYzZ+3hMMC8KyT8h9fRmNOlfwN4qs+UpAAhKQgAQkIAEJdGoCfMSnQOeYj3VEPx/0WPenTZtW7rzzznLHHXeE5T8bg5AfOHBg2XrrrcvHP/7xMnjw4DKoZYK/jTbaKCbk4oMfS14KfsrI48zDvQQk0DkJIOx5XtOKj+fP7Nmz4x2A2/7UqVPLq6++GmL/rbfeqln9ac2WW25ZDj/88LLPPvvEZKDrr79+zBGCyM93TbPfBQr+zvl/Zq0kIAEJSEACEpCABJpIIK16CH82hD9Lac2ZMycm4brnnnvKww8/XF5//fW4nvH5eMe9f/XVVw+Rj9BnY04AZvrHspf38QJIT4D86G+2ta+JSC1KAp2WAKKegKjPPcN6eO7ZmHwPV308fjgnPvdzy+eftOuss07ZbLPNwvPns5/9bHQEMgyI8fu8C3jG83mPwpr8o+BvMnCLk4AEJCABCUhAAhLo3AT4mEf085GPtR/hj8Ufsf/444+HZe+FF14ID4D58+d37sZYOwlIoN0JMLwHz55tt922DB8+POb2YAZ+RH6vXr2Wsup3pNin4Qr+dv/zm6EEJCABCUhAAhKQQHcggPDHAsiG8Mfqt2jRopjcDxdfxvFOnz49hD/u/5zjEYAVMNOlxwB55QYbjjNUj/OaewlIoDEE6gU459UN13u29MhhiA4W+wEDBoQlf5tttonl9TbYYIPSt2/fuEccvHyw5qcXT0e58NdTU/DXE/FcAhKQgAQkIAEJSKBHEkhBnh/qCQHRzj0s/mn5T9deOgJw+eWcfXYO4BVABwH3uZZpsyMgRX6WmWW5l4AEGksgxX2WUhXpiHXc8BmGw8aQHMQ814nHxnXiMGSHc46zc4B3R3Yo5DOe51les/cK/mYTtzwJSEACEpCABCQggU5JID/QqRwf6Zwj8PmYJyDa+aDPDgDup5DP+1xjQ9izJ+Q+Tio/1TgpCtqKW0nmoQQksBIE8tllz7aswPNIHJ5HRD3nueeYd0Lmkft8T/B+IGT6fLaXVV4j7yn4G0nXvCUgAQlIQAISkIAEuhwBPtjzI75aeT7+2fIex4h2PujzXjU+x1xPAVB/z3MJSKBzEkixns86teQ5T/HOdY5be1fwzBNyX80jbjT5R8HfZOAWJwEJSEACEpCABCTQPQjkB30K/hVtFZ0EaQ1c0TTGk4AEmksgO+rqBXuKfmqTHXpcy3j5XuB+NS7nHREU/B1B3TIlIAEJSEACEpCABCQgAQlIQAINJrDswQsNLtzsJSABCUhAAhKQgAQkIAEJSEACEmgMAQV/Y7iaqwQkIAEJSEACEpCABCQgAQlIoEMJKPg7FL+FS0ACEpCABCQgAQlIQAISkIAEGkNAwd8YruYqAQlIQAISkIAEJCABCUhAAhLoUAIK/g7Fb+ESkIAEJCABCUhAAhKQgAQkIIHGEFDwN4aruUpAAhKQgAQkIAEJSEACEpCABDqUgIK/Q/FbuAQkIAEJSEACEpCABCQgAQlIoDEEFPyN4WquEpCABCQgAQlIQAISkIAEJCCBDiWg4O9Q/BYuAQlIQAISkIAEJCABCUhAAhJoDAEFf2O4mqsEJCABCUhAAhKQgAQkIAEJSKBDCfwfaExc1kP41fwAAAAASUVORK5CYII=;" vertex="1" parent="1">
          <mxGeometry x="60" y="30" width="520" height="391.53" as="geometry" />
        </mxCell>
      </root>
    </mxGraphModel>
  </diagram>
</mxfile>
